<?xml version="1.0" encoding="utf-8" standalone="no"?>
<!DOCTYPE svg PUBLIC "-//W3C//DTD SVG 1.1//EN"
  "http://www.w3.org/Graphics/SVG/1.1/DTD/svg11.dtd">
<svg xmlns:xlink="http://www.w3.org/1999/xlink" width="720pt" height="518.4pt" viewBox="0 0 720 518.4" xmlns="http://www.w3.org/2000/svg" version="1.1">
 <metadata>
  <rdf:RDF xmlns:dc="http://purl.org/dc/elements/1.1/" xmlns:cc="http://creativecommons.org/ns#" xmlns:rdf="http://www.w3.org/1999/02/22-rdf-syntax-ns#">
   <cc:Work>
    <dc:type rdf:resource="http://purl.org/dc/dcmitype/StillImage"/>
    <dc:format>image/svg+xml</dc:format>
    <dc:creator>
     <cc:Agent>
      <dc:title>Matplotlib v3.11.2, https://matplotlib.org/</dc:title>
     </cc:Agent>
    </dc:creator>
   </cc:Work>
  </rdf:RDF>
 </metadata>
 <defs>
  <style type="text/css">*{stroke-linejoin: round; stroke-linecap: butt}</style>
 </defs>
 <g id="figure_1">
  <g id="patch_1">
   <path d="M 0 518.4 
L 720 518.4 
L 720 0 
L 0 0 
z
" style="fill: #ffffff"/>
  </g>
  <g id="axes_1">
   <g id="patch_2">
    <path d="M 129.384 435.456 
L 608.616 435.456 
L 608.616 62.208 
L 129.384 62.208 
z
" style="fill: #ffffff"/>
   </g>
   <g id="QuadContourSet_1">
    <path d="M 130.718908 435.456 
L 132.053816 435.456 
L 133.388724 435.456 
L 134.723632 435.456 
L 136.05854 435.456 
L 137.393448 435.456 
L 138.728357 435.456 
L 140.063265 435.456 
L 141.398173 435.456 
L 142.733081 435.456 
L 144.067989 435.456 
L 145.402897 435.456 
L 146.737805 435.456 
L 148.072713 435.456 
L 149.407621 435.456 
L 150.742529 435.456 
L 152.077437 435.456 
L 153.412345 435.456 
L 154.747253 435.456 
L 156.082162 435.456 
L 157.41707 435.456 
L 158.751978 435.456 
L 160.086886 435.456 
L 161.421794 435.456 
L 162.756702 435.456 
L 164.09161 435.456 
L 165.426518 435.456 
L 166.761426 435.456 
L 168.096334 435.456 
L 169.431242 435.456 
L 170.76615 435.456 
L 172.101058 435.456 
L 173.435967 435.456 
L 174.770875 435.456 
L 176.105783 435.456 
L 177.440691 435.456 
L 178.775599 435.456 
L 180.110507 435.456 
L 181.445415 435.456 
L 182.780323 435.456 
L 184.115231 435.456 
L 185.450139 435.456 
L 186.785047 435.456 
L 188.119955 435.456 
L 189.454864 435.456 
L 190.789772 435.456 
L 192.12468 435.456 
L 193.459588 435.456 
L 194.794496 435.456 
L 196.129404 435.456 
L 197.464312 435.456 
L 198.79922 435.456 
L 200.134128 435.456 
L 201.469036 435.456 
L 202.803944 435.456 
L 204.138852 435.456 
L 205.47376 435.456 
L 206.808669 435.456 
L 208.143577 435.456 
L 209.478485 435.456 
L 210.813393 435.456 
L 212.148301 435.456 
L 213.483209 435.456 
L 214.818117 435.456 
L 216.153025 435.456 
L 217.487933 435.456 
L 218.822841 435.456 
L 220.157749 435.456 
L 221.492657 435.456 
L 222.827565 435.456 
L 224.162474 435.456 
L 225.497382 435.456 
L 226.83229 435.456 
L 228.167198 435.456 
L 229.502106 435.456 
L 230.837014 435.456 
L 232.171922 435.456 
L 233.50683 435.456 
L 234.841738 435.456 
L 236.176646 435.456 
L 237.511554 435.456 
L 238.846462 435.456 
L 240.18137 435.456 
L 241.516279 435.456 
L 242.851187 435.456 
L 244.186095 435.456 
L 245.521003 435.456 
L 246.855911 435.456 
L 248.190819 435.456 
L 249.525727 435.456 
L 250.860635 435.456 
L 252.195543 435.456 
L 253.530451 435.456 
L 254.865359 435.456 
L 256.200267 435.456 
L 257.535175 435.456 
L 258.870084 435.456 
L 260.204992 435.456 
L 261.5399 435.456 
L 262.874808 435.456 
L 264.209716 435.456 
L 265.544624 435.456 
L 266.879532 435.456 
L 268.21444 435.456 
L 269.549348 435.456 
L 270.884256 435.456 
L 272.219164 435.456 
L 273.554072 435.456 
L 274.888981 435.456 
L 276.223889 435.456 
L 277.558797 435.456 
L 278.893705 435.456 
L 280.228613 435.456 
L 281.563521 435.456 
L 282.898429 435.456 
L 284.233337 435.456 
L 285.568245 435.456 
L 286.903153 435.456 
L 288.238061 435.456 
L 289.572969 435.456 
L 290.907877 435.456 
L 292.242786 435.456 
L 293.577694 435.456 
L 294.912602 435.456 
L 296.24751 435.456 
L 297.582418 435.456 
L 298.917326 435.456 
L 300.252234 435.456 
L 301.587142 435.456 
L 302.92205 435.456 
L 304.256958 435.456 
L 305.591866 435.456 
L 306.926774 435.456 
L 308.261682 435.456 
L 309.596591 435.456 
L 310.931499 435.456 
L 312.266407 435.456 
L 313.601315 435.456 
L 314.936223 435.456 
L 316.271131 435.456 
L 317.606039 435.456 
L 318.940947 435.456 
L 320.275855 435.456 
L 321.610763 435.456 
L 322.945671 435.456 
L 324.280579 435.456 
L 325.615487 435.456 
L 326.950396 435.456 
L 328.285304 435.456 
L 329.620212 435.456 
L 330.95512 435.456 
L 332.290028 435.456 
L 333.624936 435.456 
L 334.959844 435.456 
L 336.294752 435.456 
L 337.62966 435.456 
L 338.964568 435.456 
L 340.299476 435.456 
L 341.634384 435.456 
L 342.969292 435.456 
L 344.304201 435.456 
L 345.639109 435.456 
L 346.974017 435.456 
L 348.308925 435.456 
L 349.643833 435.456 
L 350.978741 435.456 
L 352.313649 435.456 
L 353.648557 435.456 
L 354.983465 435.456 
L 356.318373 435.456 
L 357.653281 435.456 
L 358.988189 435.456 
L 360.323097 435.456 
L 361.658006 435.456 
L 362.992914 435.456 
L 364.327822 435.456 
L 365.66273 435.456 
L 366.997638 435.456 
L 368.332546 435.456 
L 369.667454 435.456 
L 371.002362 435.456 
L 372.33727 435.456 
L 373.672178 435.456 
L 375.007086 435.456 
L 376.341994 435.456 
L 377.676903 435.456 
L 379.011811 435.456 
L 380.346719 435.456 
L 381.681627 435.456 
L 383.016535 435.456 
L 384.351443 435.456 
L 385.686351 435.456 
L 387.021259 435.456 
L 388.356167 435.456 
L 389.691075 435.456 
L 391.025983 435.456 
L 392.360891 435.456 
L 393.695799 435.456 
L 395.030708 435.456 
L 396.365616 435.456 
L 397.03307 435.456 
L 396.365616 434.735444 
L 395.698162 434.014888 
L 395.698162 432.573776 
L 395.030708 431.85322 
L 394.363253 431.132664 
L 394.363253 429.691552 
L 393.695799 428.970996 
L 393.028345 428.25044 
L 393.028345 426.809328 
L 392.360891 426.088772 
L 391.693437 425.368216 
L 391.693437 423.927104 
L 391.025983 423.206548 
L 390.358529 422.485992 
L 390.358529 421.04488 
L 389.691075 420.324324 
L 389.023621 419.603768 
L 389.023621 418.162656 
L 388.356167 417.4421 
L 387.688713 416.721544 
L 387.688713 415.280432 
L 387.021259 414.559876 
L 386.353805 413.83932 
L 386.353805 412.398208 
L 385.686351 411.677653 
L 385.018897 410.957097 
L 385.018897 409.515985 
L 384.351443 408.795429 
L 383.683989 408.074873 
L 383.683989 406.633761 
L 383.683989 405.192649 
L 383.016535 404.472093 
L 382.349081 403.751537 
L 382.349081 402.310425 
L 381.681627 401.589869 
L 381.014173 400.869313 
L 381.014173 399.428201 
L 380.346719 398.707645 
L 379.679265 397.987089 
L 379.679265 396.545977 
L 379.011811 395.825421 
L 378.344357 395.104865 
L 378.344357 393.663753 
L 377.676903 392.943197 
L 377.009448 392.222641 
L 377.009448 390.781529 
L 376.341994 390.060973 
L 375.67454 389.340417 
L 375.67454 387.899305 
L 375.007086 387.178749 
L 374.339632 386.458193 
L 374.339632 385.017081 
L 373.672178 384.296525 
L 373.004724 383.575969 
L 373.004724 382.134857 
L 372.33727 381.414301 
L 371.669816 380.693745 
L 371.669816 379.252633 
L 371.002362 378.532077 
L 370.334908 377.811521 
L 370.334908 376.370409 
L 369.667454 375.649853 
L 369 374.929297 
L 369 373.488185 
L 369 372.047073 
L 368.332546 371.326517 
L 367.665092 370.605961 
L 367.665092 369.164849 
L 366.997638 368.444293 
L 366.330184 367.723737 
L 366.330184 366.282625 
L 365.66273 365.562069 
L 364.995276 364.841514 
L 364.995276 363.400402 
L 364.327822 362.679846 
L 363.660368 361.95929 
L 363.660368 360.518178 
L 362.992914 359.797622 
L 362.32546 359.077066 
L 362.32546 357.635954 
L 361.658006 356.915398 
L 360.990552 356.194842 
L 360.990552 354.75373 
L 360.323097 354.033174 
L 359.655643 353.312618 
L 359.655643 351.871506 
L 358.988189 351.15095 
L 358.320735 350.430394 
L 358.320735 348.989282 
L 357.653281 348.268726 
L 356.985827 347.54817 
L 356.985827 346.107058 
L 356.318373 345.386502 
L 355.650919 344.665946 
L 355.650919 343.224834 
L 355.650919 341.783722 
L 354.983465 341.063166 
L 354.316011 340.34261 
L 354.316011 338.901498 
L 353.648557 338.180942 
L 352.981103 337.460386 
L 352.981103 336.019274 
L 352.313649 335.298718 
L 351.646195 334.578162 
L 351.646195 333.13705 
L 350.978741 332.416494 
L 350.311287 331.695938 
L 350.311287 330.254826 
L 349.643833 329.53427 
L 348.976379 328.813714 
L 348.976379 327.372602 
L 348.308925 326.652046 
L 347.641471 325.93149 
L 347.641471 324.490378 
L 346.974017 323.769822 
L 346.306563 323.049266 
L 346.306563 321.608154 
L 345.639109 320.887598 
L 344.971655 320.167042 
L 344.971655 318.725931 
L 344.304201 318.005375 
L 343.636747 317.284819 
L 343.636747 315.843707 
L 342.969292 315.123151 
L 342.301838 314.402595 
L 342.301838 312.961483 
L 341.634384 312.240927 
L 340.96693 311.520371 
L 340.96693 310.079259 
L 340.96693 308.638147 
L 340.299476 307.917591 
L 339.632022 307.197035 
L 339.632022 305.755923 
L 338.964568 305.035367 
L 338.297114 304.314811 
L 338.297114 302.873699 
L 337.62966 302.153143 
L 336.962206 301.432587 
L 336.962206 299.991475 
L 336.294752 299.270919 
L 335.627298 298.550363 
L 335.627298 297.109251 
L 334.959844 296.388695 
L 334.29239 295.668139 
L 334.29239 294.227027 
L 333.624936 293.506471 
L 332.957482 292.785915 
L 332.957482 291.344803 
L 332.290028 290.624247 
L 331.622574 289.903691 
L 331.622574 288.462579 
L 330.95512 287.742023 
L 330.287666 287.021467 
L 330.287666 285.580355 
L 329.620212 284.859799 
L 328.952758 284.139243 
L 328.952758 282.698131 
L 328.285304 281.977575 
L 327.61785 281.257019 
L 327.61785 279.815907 
L 327.61785 278.374795 
L 326.950396 277.654239 
L 326.282942 276.933683 
L 326.282942 275.492571 
L 325.615487 274.772015 
L 324.948033 274.051459 
L 324.948033 272.610347 
L 324.280579 271.889792 
L 323.613125 271.169236 
L 323.613125 269.728124 
L 322.945671 269.007568 
L 322.278217 268.287012 
L 322.278217 266.8459 
L 321.610763 266.125344 
L 320.943309 265.404788 
L 320.943309 263.963676 
L 320.275855 263.24312 
L 319.608401 262.522564 
L 319.608401 261.081452 
L 318.940947 260.360896 
L 318.273493 259.64034 
L 318.273493 258.199228 
L 317.606039 257.478672 
L 316.938585 256.758116 
L 316.938585 255.317004 
L 316.271131 254.596448 
L 315.603677 253.875892 
L 315.603677 252.43478 
L 314.936223 251.714224 
L 314.268769 250.993668 
L 314.268769 249.552556 
L 314.268769 248.111444 
L 313.601315 247.390888 
L 312.933861 246.670332 
L 312.933861 245.22922 
L 312.266407 244.508664 
L 311.598953 243.788108 
L 311.598953 242.346996 
L 310.931499 241.62644 
L 310.264045 240.905884 
L 310.264045 239.464772 
L 309.596591 238.744216 
L 308.929136 238.02366 
L 308.929136 236.582548 
L 308.261682 235.861992 
L 307.594228 235.141436 
L 307.594228 233.700324 
L 306.926774 232.979768 
L 306.25932 232.259212 
L 306.25932 230.8181 
L 305.591866 230.097544 
L 304.924412 229.376988 
L 304.924412 227.935876 
L 304.256958 227.21532 
L 303.589504 226.494764 
L 303.589504 225.053653 
L 302.92205 224.333097 
L 302.254596 223.612541 
L 302.254596 222.171429 
L 301.587142 221.450873 
L 300.919688 220.730317 
L 300.919688 219.289205 
L 300.252234 218.568649 
L 299.58478 217.848093 
L 299.58478 216.406981 
L 299.58478 214.965869 
L 298.917326 214.245313 
L 298.249872 213.524757 
L 298.249872 212.083645 
L 297.582418 211.363089 
L 296.914964 210.642533 
L 296.914964 209.201421 
L 296.24751 208.480865 
L 295.580056 207.760309 
L 295.580056 206.319197 
L 294.912602 205.598641 
L 294.245148 204.878085 
L 294.245148 203.436973 
L 293.577694 202.716417 
L 292.91024 201.995861 
L 292.91024 200.554749 
L 292.242786 199.834193 
L 291.575331 199.113637 
L 291.575331 197.672525 
L 290.907877 196.951969 
L 290.240423 196.231413 
L 290.240423 194.790301 
L 289.572969 194.069745 
L 288.905515 193.349189 
L 288.905515 191.908077 
L 288.238061 191.187521 
L 287.570607 190.466965 
L 287.570607 189.025853 
L 286.903153 188.305297 
L 286.235699 187.584741 
L 286.235699 186.143629 
L 286.235699 184.702517 
L 285.568245 183.981961 
L 284.900791 183.261405 
L 284.900791 181.820293 
L 284.233337 181.099737 
L 283.565883 180.379181 
L 283.565883 178.938069 
L 282.898429 178.217514 
L 282.230975 177.496958 
L 282.230975 176.055846 
L 281.563521 175.33529 
L 280.896067 174.614734 
L 280.896067 173.173622 
L 280.228613 172.453066 
L 279.561159 171.73251 
L 279.561159 170.291398 
L 278.893705 169.570842 
L 278.226251 168.850286 
L 278.226251 167.409174 
L 277.558797 166.688618 
L 276.891343 165.968062 
L 276.891343 164.52695 
L 276.223889 163.806394 
L 275.556435 163.085838 
L 275.556435 161.644726 
L 274.888981 160.92417 
L 274.221526 160.203614 
L 274.221526 158.762502 
L 273.554072 158.041946 
L 272.886618 157.32139 
L 272.886618 155.880278 
L 272.219164 155.159722 
L 271.55171 154.439166 
L 271.55171 152.998054 
L 271.55171 151.556942 
L 270.884256 150.836386 
L 270.216802 150.11583 
L 270.216802 148.674718 
L 269.549348 147.954162 
L 268.881894 147.233606 
L 268.881894 145.792494 
L 268.21444 145.071938 
L 267.546986 144.351382 
L 267.546986 142.91027 
L 266.879532 142.189714 
L 266.212078 141.469158 
L 266.212078 140.028046 
L 265.544624 139.30749 
L 264.87717 138.586934 
L 264.87717 137.145822 
L 264.209716 136.425266 
L 263.542262 135.70471 
L 263.542262 134.263598 
L 262.874808 133.543042 
L 262.207354 132.822486 
L 262.207354 131.381375 
L 261.5399 130.660819 
L 260.872446 129.940263 
L 260.872446 128.499151 
L 260.204992 127.778595 
L 259.537538 127.058039 
L 259.537538 125.616927 
L 258.870084 124.896371 
L 258.20263 124.175815 
L 258.20263 122.734703 
L 258.20263 121.293591 
L 257.535175 120.573035 
L 256.867721 119.852479 
L 256.867721 118.411367 
L 256.200267 117.690811 
L 255.532813 116.970255 
L 255.532813 115.529143 
L 254.865359 114.808587 
L 254.197905 114.088031 
L 254.197905 112.646919 
L 253.530451 111.926363 
L 252.862997 111.205807 
L 252.862997 109.764695 
L 252.195543 109.044139 
L 251.528089 108.323583 
L 251.528089 106.882471 
L 250.860635 106.161915 
L 250.193181 105.441359 
L 250.193181 104.000247 
L 249.525727 103.279691 
L 248.858273 102.559135 
L 248.858273 101.118023 
L 248.190819 100.397467 
L 247.523365 99.676911 
L 247.523365 98.235799 
L 246.855911 97.515243 
L 246.188457 96.794687 
L 246.188457 95.353575 
L 245.521003 94.633019 
L 244.853549 93.912463 
L 244.853549 92.471351 
L 244.186095 91.750795 
L 243.518641 91.030239 
L 243.518641 89.589127 
L 243.518641 88.148015 
L 242.851187 87.427459 
L 242.183733 86.706903 
L 242.183733 85.265792 
L 241.516279 84.545236 
L 240.848825 83.82468 
L 240.848825 82.383568 
L 240.18137 81.663012 
L 239.513916 80.942456 
L 239.513916 79.501344 
L 238.846462 78.780788 
L 238.179008 78.060232 
L 238.179008 76.61912 
L 237.511554 75.898564 
L 236.8441 75.178008 
L 236.8441 73.736896 
L 236.176646 73.01634 
L 235.509192 72.295784 
L 235.509192 70.854672 
L 234.841738 70.134116 
L 234.174284 69.41356 
L 234.174284 67.972448 
L 233.50683 67.251892 
L 232.839376 66.531336 
L 232.839376 65.090224 
L 232.171922 64.369668 
L 231.504468 63.649112 
L 231.504468 62.208 
L 230.837014 62.208 
L 229.502106 62.208 
L 228.167198 62.208 
L 226.83229 62.208 
L 225.497382 62.208 
L 224.162474 62.208 
L 222.827565 62.208 
L 221.492657 62.208 
L 220.157749 62.208 
L 218.822841 62.208 
L 217.487933 62.208 
L 216.153025 62.208 
L 214.818117 62.208 
L 213.483209 62.208 
L 212.148301 62.208 
L 210.813393 62.208 
L 209.478485 62.208 
L 208.143577 62.208 
L 206.808669 62.208 
L 205.47376 62.208 
L 204.138852 62.208 
L 202.803944 62.208 
L 201.469036 62.208 
L 200.134128 62.208 
L 198.79922 62.208 
L 197.464312 62.208 
L 196.129404 62.208 
L 194.794496 62.208 
L 193.459588 62.208 
L 192.12468 62.208 
L 190.789772 62.208 
L 189.454864 62.208 
L 188.119955 62.208 
L 186.785047 62.208 
L 185.450139 62.208 
L 184.115231 62.208 
L 182.780323 62.208 
L 181.445415 62.208 
L 180.110507 62.208 
L 178.775599 62.208 
L 177.440691 62.208 
L 176.105783 62.208 
L 174.770875 62.208 
L 173.435967 62.208 
L 172.101058 62.208 
L 170.76615 62.208 
L 169.431242 62.208 
L 168.096334 62.208 
L 166.761426 62.208 
L 165.426518 62.208 
L 164.09161 62.208 
L 162.756702 62.208 
L 161.421794 62.208 
L 160.086886 62.208 
L 158.751978 62.208 
L 157.41707 62.208 
L 156.082162 62.208 
L 154.747253 62.208 
L 153.412345 62.208 
L 152.077437 62.208 
L 150.742529 62.208 
L 149.407621 62.208 
L 148.072713 62.208 
L 146.737805 62.208 
L 145.402897 62.208 
L 144.067989 62.208 
L 142.733081 62.208 
L 141.398173 62.208 
L 140.063265 62.208 
L 138.728357 62.208 
L 137.393448 62.208 
L 136.05854 62.208 
L 134.723632 62.208 
L 133.388724 62.208 
L 132.053816 62.208 
L 130.718908 62.208 
L 129.384 62.208 
L 129.384 63.649112 
L 129.384 65.090224 
L 129.384 66.531336 
L 129.384 67.972448 
L 129.384 69.41356 
L 129.384 70.854672 
L 129.384 72.295784 
L 129.384 73.736896 
L 129.384 75.178008 
L 129.384 76.61912 
L 129.384 78.060232 
L 129.384 79.501344 
L 129.384 80.942456 
L 129.384 82.383568 
L 129.384 83.82468 
L 129.384 85.265792 
L 129.384 86.706903 
L 129.384 88.148015 
L 129.384 89.589127 
L 129.384 91.030239 
L 129.384 92.471351 
L 129.384 93.912463 
L 129.384 95.353575 
L 129.384 96.794687 
L 129.384 98.235799 
L 129.384 99.676911 
L 129.384 101.118023 
L 129.384 102.559135 
L 129.384 104.000247 
L 129.384 105.441359 
L 129.384 106.882471 
L 129.384 108.323583 
L 129.384 109.764695 
L 129.384 111.205807 
L 129.384 112.646919 
L 129.384 114.088031 
L 129.384 115.529143 
L 129.384 116.970255 
L 129.384 118.411367 
L 129.384 119.852479 
L 129.384 121.293591 
L 129.384 122.734703 
L 129.384 124.175815 
L 129.384 125.616927 
L 129.384 127.058039 
L 129.384 128.499151 
L 129.384 129.940263 
L 129.384 131.381375 
L 129.384 132.822486 
L 129.384 134.263598 
L 129.384 135.70471 
L 129.384 137.145822 
L 129.384 138.586934 
L 129.384 140.028046 
L 129.384 141.469158 
L 129.384 142.91027 
L 129.384 144.351382 
L 129.384 145.792494 
L 129.384 147.233606 
L 129.384 148.674718 
L 129.384 150.11583 
L 129.384 151.556942 
L 129.384 152.998054 
L 129.384 154.439166 
L 129.384 155.880278 
L 129.384 157.32139 
L 129.384 158.762502 
L 129.384 160.203614 
L 129.384 161.644726 
L 129.384 163.085838 
L 129.384 164.52695 
L 129.384 165.968062 
L 129.384 167.409174 
L 129.384 168.850286 
L 129.384 170.291398 
L 129.384 171.73251 
L 129.384 173.173622 
L 129.384 174.614734 
L 129.384 176.055846 
L 129.384 177.496958 
L 129.384 178.938069 
L 129.384 180.379181 
L 129.384 181.820293 
L 129.384 183.261405 
L 129.384 184.702517 
L 129.384 186.143629 
L 129.384 187.584741 
L 129.384 189.025853 
L 129.384 190.466965 
L 129.384 191.908077 
L 129.384 193.349189 
L 129.384 194.790301 
L 129.384 196.231413 
L 129.384 197.672525 
L 129.384 199.113637 
L 129.384 200.554749 
L 129.384 201.995861 
L 129.384 203.436973 
L 129.384 204.878085 
L 129.384 206.319197 
L 129.384 207.760309 
L 129.384 209.201421 
L 129.384 210.642533 
L 129.384 212.083645 
L 129.384 213.524757 
L 129.384 214.965869 
L 129.384 216.406981 
L 129.384 217.848093 
L 129.384 219.289205 
L 129.384 220.730317 
L 129.384 222.171429 
L 129.384 223.612541 
L 129.384 225.053653 
L 129.384 226.494764 
L 129.384 227.935876 
L 129.384 229.376988 
L 129.384 230.8181 
L 129.384 232.259212 
L 129.384 233.700324 
L 129.384 235.141436 
L 129.384 236.582548 
L 129.384 238.02366 
L 129.384 239.464772 
L 129.384 240.905884 
L 129.384 242.346996 
L 129.384 243.788108 
L 129.384 245.22922 
L 129.384 246.670332 
L 129.384 248.111444 
L 129.384 249.552556 
L 129.384 250.993668 
L 129.384 252.43478 
L 129.384 253.875892 
L 129.384 255.317004 
L 129.384 256.758116 
L 129.384 258.199228 
L 129.384 259.64034 
L 129.384 261.081452 
L 129.384 262.522564 
L 129.384 263.963676 
L 129.384 265.404788 
L 129.384 266.8459 
L 129.384 268.287012 
L 129.384 269.728124 
L 129.384 271.169236 
L 129.384 272.610347 
L 129.384 274.051459 
L 129.384 275.492571 
L 129.384 276.933683 
L 129.384 278.374795 
L 129.384 279.815907 
L 129.384 281.257019 
L 129.384 282.698131 
L 129.384 284.139243 
L 129.384 285.580355 
L 129.384 287.021467 
L 129.384 288.462579 
L 129.384 289.903691 
L 129.384 291.344803 
L 129.384 292.785915 
L 129.384 294.227027 
L 129.384 295.668139 
L 129.384 297.109251 
L 129.384 298.550363 
L 129.384 299.991475 
L 129.384 301.432587 
L 129.384 302.873699 
L 129.384 304.314811 
L 129.384 305.755923 
L 129.384 307.197035 
L 129.384 308.638147 
L 129.384 310.079259 
L 129.384 311.520371 
L 129.384 312.961483 
L 129.384 314.402595 
L 129.384 315.843707 
L 129.384 317.284819 
L 129.384 318.725931 
L 129.384 320.167042 
L 129.384 321.608154 
L 129.384 323.049266 
L 129.384 324.490378 
L 129.384 325.93149 
L 129.384 327.372602 
L 129.384 328.813714 
L 129.384 330.254826 
L 129.384 331.695938 
L 129.384 333.13705 
L 129.384 334.578162 
L 129.384 336.019274 
L 129.384 337.460386 
L 129.384 338.901498 
L 129.384 340.34261 
L 129.384 341.783722 
L 129.384 343.224834 
L 129.384 344.665946 
L 129.384 346.107058 
L 129.384 347.54817 
L 129.384 348.989282 
L 129.384 350.430394 
L 129.384 351.871506 
L 129.384 353.312618 
L 129.384 354.75373 
L 129.384 356.194842 
L 129.384 357.635954 
L 129.384 359.077066 
L 129.384 360.518178 
L 129.384 361.95929 
L 129.384 363.400402 
L 129.384 364.841514 
L 129.384 366.282625 
L 129.384 367.723737 
L 129.384 369.164849 
L 129.384 370.605961 
L 129.384 372.047073 
L 129.384 373.488185 
L 129.384 374.929297 
L 129.384 376.370409 
L 129.384 377.811521 
L 129.384 379.252633 
L 129.384 380.693745 
L 129.384 382.134857 
L 129.384 383.575969 
L 129.384 385.017081 
L 129.384 386.458193 
L 129.384 387.899305 
L 129.384 389.340417 
L 129.384 390.781529 
L 129.384 392.222641 
L 129.384 393.663753 
L 129.384 395.104865 
L 129.384 396.545977 
L 129.384 397.987089 
L 129.384 399.428201 
L 129.384 400.869313 
L 129.384 402.310425 
L 129.384 403.751537 
L 129.384 405.192649 
L 129.384 406.633761 
L 129.384 408.074873 
L 129.384 409.515985 
L 129.384 410.957097 
L 129.384 412.398208 
L 129.384 413.83932 
L 129.384 415.280432 
L 129.384 416.721544 
L 129.384 418.162656 
L 129.384 419.603768 
L 129.384 421.04488 
L 129.384 422.485992 
L 129.384 423.927104 
L 129.384 425.368216 
L 129.384 426.809328 
L 129.384 428.25044 
L 129.384 429.691552 
L 129.384 431.132664 
L 129.384 432.573776 
L 129.384 434.014888 
L 129.384 435.456 
z
" clip-path="url(#p44888c57d5)" style="fill: #dceafe; fill-opacity: 0.82"/>
    <path d="M 396.365616 434.735444 
L 397.03307 435.456 
L 397.700524 435.456 
L 399.035432 435.456 
L 400.37034 435.456 
L 401.705248 435.456 
L 403.040156 435.456 
L 404.375064 435.456 
L 405.709972 435.456 
L 407.04488 435.456 
L 408.379788 435.456 
L 409.714696 435.456 
L 411.049604 435.456 
L 412.384513 435.456 
L 413.719421 435.456 
L 415.054329 435.456 
L 416.389237 435.456 
L 417.724145 435.456 
L 419.059053 435.456 
L 420.393961 435.456 
L 421.728869 435.456 
L 423.063777 435.456 
L 424.398685 435.456 
L 425.733593 435.456 
L 427.068501 435.456 
L 428.403409 435.456 
L 429.738318 435.456 
L 431.073226 435.456 
L 432.408134 435.456 
L 433.743042 435.456 
L 435.07795 435.456 
L 436.412858 435.456 
L 437.747766 435.456 
L 439.082674 435.456 
L 440.417582 435.456 
L 441.75249 435.456 
L 443.087398 435.456 
L 444.422306 435.456 
L 445.757214 435.456 
L 447.092123 435.456 
L 448.427031 435.456 
L 449.761939 435.456 
L 451.096847 435.456 
L 452.431755 435.456 
L 453.766663 435.456 
L 455.101571 435.456 
L 456.436479 435.456 
L 457.771387 435.456 
L 459.106295 435.456 
L 460.441203 435.456 
L 461.776111 435.456 
L 463.111019 435.456 
L 464.445928 435.456 
L 465.780836 435.456 
L 467.115744 435.456 
L 468.450652 435.456 
L 469.78556 435.456 
L 471.120468 435.456 
L 472.455376 435.456 
L 473.790284 435.456 
L 475.125192 435.456 
L 476.4601 435.456 
L 477.795008 435.456 
L 479.129916 435.456 
L 480.464825 435.456 
L 481.799733 435.456 
L 483.134641 435.456 
L 484.469549 435.456 
L 485.804457 435.456 
L 487.139365 435.456 
L 488.474273 435.456 
L 489.809181 435.456 
L 491.144089 435.456 
L 492.478997 435.456 
L 493.813905 435.456 
L 495.148813 435.456 
L 496.483721 435.456 
L 497.81863 435.456 
L 499.153538 435.456 
L 500.488446 435.456 
L 501.823354 435.456 
L 503.158262 435.456 
L 504.49317 435.456 
L 505.828078 435.456 
L 507.162986 435.456 
L 508.497894 435.456 
L 509.832802 435.456 
L 511.16771 435.456 
L 512.502618 435.456 
L 513.837526 435.456 
L 515.172435 435.456 
L 516.507343 435.456 
L 517.842251 435.456 
L 519.177159 435.456 
L 520.512067 435.456 
L 521.846975 435.456 
L 523.181883 435.456 
L 524.516791 435.456 
L 525.851699 435.456 
L 527.186607 435.456 
L 528.521515 435.456 
L 529.856423 435.456 
L 531.191331 435.456 
L 532.52624 435.456 
L 533.861148 435.456 
L 535.196056 435.456 
L 536.530964 435.456 
L 537.865872 435.456 
L 539.20078 435.456 
L 540.535688 435.456 
L 541.870596 435.456 
L 543.205504 435.456 
L 544.540412 435.456 
L 545.87532 435.456 
L 547.210228 435.456 
L 548.545136 435.456 
L 549.880045 435.456 
L 551.214953 435.456 
L 552.549861 435.456 
L 553.884769 435.456 
L 555.219677 435.456 
L 556.554585 435.456 
L 557.889493 435.456 
L 559.224401 435.456 
L 560.559309 435.456 
L 561.894217 435.456 
L 563.229125 435.456 
L 564.564033 435.456 
L 565.898942 435.456 
L 567.23385 435.456 
L 568.568758 435.456 
L 569.903666 435.456 
L 571.238574 435.456 
L 572.573482 435.456 
L 573.90839 435.456 
L 575.243298 435.456 
L 576.578206 435.456 
L 577.913114 435.456 
L 579.248022 435.456 
L 580.58293 435.456 
L 581.917838 435.456 
L 583.252747 435.456 
L 584.587655 435.456 
L 585.922563 435.456 
L 587.257471 435.456 
L 588.592379 435.456 
L 589.927287 435.456 
L 591.262195 435.456 
L 592.597103 435.456 
L 593.932011 435.456 
L 595.266919 435.456 
L 596.601827 435.456 
L 597.936735 435.456 
L 599.271643 435.456 
L 600.606552 435.456 
L 601.94146 435.456 
L 603.276368 435.456 
L 604.611276 435.456 
L 605.946184 435.456 
L 607.281092 435.456 
L 608.616 435.456 
L 608.616 434.014888 
L 608.616 432.573776 
L 608.616 431.132664 
L 608.616 429.691552 
L 608.616 428.25044 
L 608.616 426.809328 
L 608.616 425.368216 
L 608.616 423.927104 
L 608.616 422.485992 
L 608.616 421.04488 
L 608.616 419.603768 
L 608.616 418.162656 
L 608.616 416.721544 
L 608.616 415.280432 
L 608.616 413.83932 
L 608.616 412.398208 
L 608.616 410.957097 
L 608.616 409.515985 
L 608.616 408.074873 
L 608.616 406.633761 
L 608.616 405.192649 
L 608.616 403.751537 
L 608.616 402.310425 
L 608.616 400.869313 
L 608.616 399.428201 
L 608.616 397.987089 
L 608.616 396.545977 
L 608.616 395.104865 
L 608.616 393.663753 
L 608.616 392.222641 
L 608.616 390.781529 
L 608.616 389.340417 
L 608.616 387.899305 
L 608.616 386.458193 
L 608.616 385.017081 
L 608.616 383.575969 
L 608.616 382.134857 
L 608.616 380.693745 
L 608.616 379.252633 
L 608.616 377.811521 
L 608.616 376.370409 
L 608.616 374.929297 
L 608.616 373.488185 
L 608.616 372.047073 
L 608.616 370.605961 
L 608.616 369.164849 
L 608.616 367.723737 
L 608.616 366.282625 
L 608.616 364.841514 
L 608.616 363.400402 
L 608.616 361.95929 
L 608.616 360.518178 
L 608.616 359.077066 
L 608.616 357.635954 
L 608.616 356.194842 
L 608.616 354.75373 
L 608.616 353.312618 
L 608.616 351.871506 
L 608.616 350.430394 
L 608.616 348.989282 
L 608.616 347.54817 
L 608.616 346.107058 
L 608.616 344.665946 
L 608.616 343.224834 
L 608.616 341.783722 
L 608.616 340.34261 
L 608.616 338.901498 
L 608.616 337.460386 
L 608.616 336.019274 
L 608.616 334.578162 
L 608.616 333.13705 
L 608.616 331.695938 
L 608.616 330.254826 
L 608.616 328.813714 
L 608.616 327.372602 
L 608.616 325.93149 
L 608.616 324.490378 
L 608.616 323.049266 
L 608.616 321.608154 
L 608.616 320.167042 
L 608.616 318.725931 
L 608.616 317.284819 
L 608.616 315.843707 
L 608.616 314.402595 
L 608.616 312.961483 
L 608.616 311.520371 
L 608.616 310.079259 
L 608.616 308.638147 
L 608.616 307.197035 
L 608.616 305.755923 
L 608.616 304.314811 
L 608.616 302.873699 
L 608.616 301.432587 
L 608.616 299.991475 
L 608.616 298.550363 
L 608.616 297.109251 
L 608.616 295.668139 
L 608.616 294.227027 
L 608.616 292.785915 
L 608.616 291.344803 
L 608.616 289.903691 
L 608.616 288.462579 
L 608.616 287.021467 
L 608.616 285.580355 
L 608.616 284.139243 
L 608.616 282.698131 
L 608.616 281.257019 
L 608.616 279.815907 
L 608.616 278.374795 
L 608.616 276.933683 
L 608.616 275.492571 
L 608.616 274.051459 
L 608.616 272.610347 
L 608.616 271.169236 
L 608.616 269.728124 
L 608.616 268.287012 
L 608.616 266.8459 
L 608.616 265.404788 
L 608.616 263.963676 
L 608.616 262.522564 
L 608.616 261.081452 
L 608.616 259.64034 
L 608.616 258.199228 
L 608.616 256.758116 
L 608.616 255.317004 
L 608.616 253.875892 
L 608.616 252.43478 
L 608.616 250.993668 
L 608.616 249.552556 
L 608.616 248.111444 
L 608.616 246.670332 
L 608.616 245.22922 
L 608.616 243.788108 
L 608.616 242.346996 
L 608.616 240.905884 
L 608.616 239.464772 
L 608.616 238.02366 
L 608.616 236.582548 
L 608.616 235.141436 
L 608.616 233.700324 
L 608.616 232.259212 
L 608.616 230.8181 
L 608.616 229.376988 
L 608.616 227.935876 
L 608.616 226.494764 
L 608.616 225.053653 
L 608.616 223.612541 
L 608.616 222.171429 
L 608.616 220.730317 
L 608.616 219.289205 
L 608.616 217.848093 
L 608.616 216.406981 
L 608.616 214.965869 
L 608.616 213.524757 
L 608.616 212.083645 
L 608.616 210.642533 
L 608.616 209.201421 
L 608.616 207.760309 
L 608.616 206.319197 
L 608.616 204.878085 
L 608.616 203.436973 
L 608.616 201.995861 
L 608.616 200.554749 
L 608.616 199.113637 
L 608.616 197.672525 
L 608.616 196.231413 
L 608.616 194.790301 
L 608.616 193.349189 
L 608.616 191.908077 
L 608.616 190.466965 
L 608.616 189.025853 
L 608.616 187.584741 
L 608.616 186.143629 
L 608.616 184.702517 
L 608.616 183.261405 
L 608.616 181.820293 
L 608.616 180.379181 
L 608.616 178.938069 
L 608.616 177.496958 
L 608.616 176.055846 
L 608.616 174.614734 
L 608.616 173.173622 
L 608.616 171.73251 
L 608.616 170.291398 
L 608.616 168.850286 
L 608.616 167.409174 
L 608.616 165.968062 
L 608.616 164.52695 
L 608.616 163.085838 
L 608.616 161.644726 
L 608.616 160.203614 
L 608.616 158.762502 
L 608.616 157.32139 
L 608.616 155.880278 
L 608.616 154.439166 
L 608.616 152.998054 
L 608.616 151.556942 
L 608.616 150.11583 
L 608.616 148.674718 
L 608.616 147.233606 
L 608.616 145.792494 
L 608.616 144.351382 
L 608.616 142.91027 
L 608.616 141.469158 
L 608.616 140.028046 
L 608.616 138.586934 
L 608.616 137.145822 
L 608.616 135.70471 
L 608.616 134.263598 
L 608.616 132.822486 
L 608.616 131.381375 
L 608.616 129.940263 
L 608.616 128.499151 
L 608.616 127.058039 
L 608.616 125.616927 
L 608.616 124.175815 
L 608.616 122.734703 
L 608.616 121.293591 
L 608.616 119.852479 
L 608.616 118.411367 
L 608.616 116.970255 
L 608.616 115.529143 
L 608.616 114.088031 
L 608.616 112.646919 
L 608.616 111.205807 
L 608.616 109.764695 
L 608.616 108.323583 
L 608.616 106.882471 
L 608.616 105.441359 
L 608.616 104.000247 
L 608.616 102.559135 
L 608.616 101.118023 
L 608.616 99.676911 
L 608.616 98.235799 
L 608.616 96.794687 
L 608.616 95.353575 
L 608.616 93.912463 
L 608.616 92.471351 
L 608.616 91.030239 
L 608.616 89.589127 
L 608.616 88.148015 
L 608.616 86.706903 
L 608.616 85.265792 
L 608.616 83.82468 
L 608.616 82.383568 
L 608.616 80.942456 
L 608.616 79.501344 
L 608.616 78.060232 
L 608.616 76.61912 
L 608.616 75.178008 
L 608.616 73.736896 
L 608.616 72.295784 
L 608.616 70.854672 
L 608.616 69.41356 
L 608.616 67.972448 
L 608.616 66.531336 
L 608.616 65.090224 
L 608.616 63.649112 
L 608.616 62.208 
L 607.281092 62.208 
L 605.946184 62.208 
L 604.611276 62.208 
L 603.276368 62.208 
L 601.94146 62.208 
L 600.606552 62.208 
L 599.271643 62.208 
L 597.936735 62.208 
L 596.601827 62.208 
L 595.266919 62.208 
L 593.932011 62.208 
L 592.597103 62.208 
L 591.262195 62.208 
L 589.927287 62.208 
L 588.592379 62.208 
L 587.257471 62.208 
L 585.922563 62.208 
L 584.587655 62.208 
L 583.252747 62.208 
L 581.917838 62.208 
L 580.58293 62.208 
L 579.248022 62.208 
L 577.913114 62.208 
L 576.578206 62.208 
L 575.243298 62.208 
L 573.90839 62.208 
L 572.573482 62.208 
L 571.238574 62.208 
L 569.903666 62.208 
L 568.568758 62.208 
L 567.23385 62.208 
L 565.898942 62.208 
L 564.564033 62.208 
L 563.229125 62.208 
L 561.894217 62.208 
L 560.559309 62.208 
L 559.224401 62.208 
L 557.889493 62.208 
L 556.554585 62.208 
L 555.219677 62.208 
L 553.884769 62.208 
L 552.549861 62.208 
L 551.214953 62.208 
L 549.880045 62.208 
L 548.545136 62.208 
L 547.210228 62.208 
L 545.87532 62.208 
L 544.540412 62.208 
L 543.205504 62.208 
L 541.870596 62.208 
L 540.535688 62.208 
L 539.20078 62.208 
L 537.865872 62.208 
L 536.530964 62.208 
L 535.196056 62.208 
L 533.861148 62.208 
L 532.52624 62.208 
L 531.191331 62.208 
L 529.856423 62.208 
L 528.521515 62.208 
L 527.186607 62.208 
L 525.851699 62.208 
L 524.516791 62.208 
L 523.181883 62.208 
L 521.846975 62.208 
L 520.512067 62.208 
L 519.177159 62.208 
L 517.842251 62.208 
L 516.507343 62.208 
L 515.172435 62.208 
L 513.837526 62.208 
L 512.502618 62.208 
L 511.16771 62.208 
L 509.832802 62.208 
L 508.497894 62.208 
L 507.162986 62.208 
L 505.828078 62.208 
L 504.49317 62.208 
L 503.158262 62.208 
L 501.823354 62.208 
L 500.488446 62.208 
L 499.153538 62.208 
L 497.81863 62.208 
L 496.483721 62.208 
L 495.148813 62.208 
L 493.813905 62.208 
L 492.478997 62.208 
L 491.144089 62.208 
L 489.809181 62.208 
L 488.474273 62.208 
L 487.139365 62.208 
L 485.804457 62.208 
L 484.469549 62.208 
L 483.134641 62.208 
L 481.799733 62.208 
L 480.464825 62.208 
L 479.129916 62.208 
L 477.795008 62.208 
L 476.4601 62.208 
L 475.125192 62.208 
L 473.790284 62.208 
L 472.455376 62.208 
L 471.120468 62.208 
L 469.78556 62.208 
L 468.450652 62.208 
L 467.115744 62.208 
L 465.780836 62.208 
L 464.445928 62.208 
L 463.111019 62.208 
L 461.776111 62.208 
L 460.441203 62.208 
L 459.106295 62.208 
L 457.771387 62.208 
L 456.436479 62.208 
L 455.101571 62.208 
L 453.766663 62.208 
L 452.431755 62.208 
L 451.096847 62.208 
L 449.761939 62.208 
L 448.427031 62.208 
L 447.092123 62.208 
L 445.757214 62.208 
L 444.422306 62.208 
L 443.087398 62.208 
L 441.75249 62.208 
L 440.417582 62.208 
L 439.082674 62.208 
L 437.747766 62.208 
L 436.412858 62.208 
L 435.07795 62.208 
L 433.743042 62.208 
L 432.408134 62.208 
L 431.073226 62.208 
L 429.738318 62.208 
L 428.403409 62.208 
L 427.068501 62.208 
L 425.733593 62.208 
L 424.398685 62.208 
L 423.063777 62.208 
L 421.728869 62.208 
L 420.393961 62.208 
L 419.059053 62.208 
L 417.724145 62.208 
L 416.389237 62.208 
L 415.054329 62.208 
L 413.719421 62.208 
L 412.384513 62.208 
L 411.049604 62.208 
L 409.714696 62.208 
L 408.379788 62.208 
L 407.04488 62.208 
L 405.709972 62.208 
L 404.375064 62.208 
L 403.040156 62.208 
L 401.705248 62.208 
L 400.37034 62.208 
L 399.035432 62.208 
L 397.700524 62.208 
L 396.365616 62.208 
L 395.030708 62.208 
L 393.695799 62.208 
L 392.360891 62.208 
L 391.025983 62.208 
L 389.691075 62.208 
L 388.356167 62.208 
L 387.021259 62.208 
L 385.686351 62.208 
L 384.351443 62.208 
L 383.016535 62.208 
L 381.681627 62.208 
L 380.346719 62.208 
L 379.011811 62.208 
L 377.676903 62.208 
L 376.341994 62.208 
L 375.007086 62.208 
L 373.672178 62.208 
L 372.33727 62.208 
L 371.002362 62.208 
L 369.667454 62.208 
L 368.332546 62.208 
L 366.997638 62.208 
L 365.66273 62.208 
L 364.327822 62.208 
L 362.992914 62.208 
L 361.658006 62.208 
L 360.323097 62.208 
L 358.988189 62.208 
L 357.653281 62.208 
L 356.318373 62.208 
L 354.983465 62.208 
L 353.648557 62.208 
L 352.313649 62.208 
L 350.978741 62.208 
L 349.643833 62.208 
L 348.308925 62.208 
L 346.974017 62.208 
L 345.639109 62.208 
L 344.304201 62.208 
L 342.969292 62.208 
L 341.634384 62.208 
L 340.299476 62.208 
L 338.964568 62.208 
L 337.62966 62.208 
L 336.294752 62.208 
L 334.959844 62.208 
L 333.624936 62.208 
L 332.290028 62.208 
L 330.95512 62.208 
L 329.620212 62.208 
L 328.285304 62.208 
L 326.950396 62.208 
L 325.615487 62.208 
L 324.280579 62.208 
L 322.945671 62.208 
L 321.610763 62.208 
L 320.275855 62.208 
L 318.940947 62.208 
L 317.606039 62.208 
L 316.271131 62.208 
L 314.936223 62.208 
L 313.601315 62.208 
L 312.266407 62.208 
L 310.931499 62.208 
L 309.596591 62.208 
L 308.261682 62.208 
L 306.926774 62.208 
L 305.591866 62.208 
L 304.256958 62.208 
L 302.92205 62.208 
L 301.587142 62.208 
L 300.252234 62.208 
L 298.917326 62.208 
L 297.582418 62.208 
L 296.24751 62.208 
L 294.912602 62.208 
L 293.577694 62.208 
L 292.242786 62.208 
L 290.907877 62.208 
L 289.572969 62.208 
L 288.238061 62.208 
L 286.903153 62.208 
L 285.568245 62.208 
L 284.233337 62.208 
L 282.898429 62.208 
L 281.563521 62.208 
L 280.228613 62.208 
L 278.893705 62.208 
L 277.558797 62.208 
L 276.223889 62.208 
L 274.888981 62.208 
L 273.554072 62.208 
L 272.219164 62.208 
L 270.884256 62.208 
L 269.549348 62.208 
L 268.21444 62.208 
L 266.879532 62.208 
L 265.544624 62.208 
L 264.209716 62.208 
L 262.874808 62.208 
L 261.5399 62.208 
L 260.204992 62.208 
L 258.870084 62.208 
L 257.535175 62.208 
L 256.200267 62.208 
L 254.865359 62.208 
L 253.530451 62.208 
L 252.195543 62.208 
L 250.860635 62.208 
L 249.525727 62.208 
L 248.190819 62.208 
L 246.855911 62.208 
L 245.521003 62.208 
L 244.186095 62.208 
L 242.851187 62.208 
L 241.516279 62.208 
L 240.18137 62.208 
L 238.846462 62.208 
L 237.511554 62.208 
L 236.176646 62.208 
L 234.841738 62.208 
L 233.50683 62.208 
L 232.171922 62.208 
L 231.504468 62.208 
L 231.504468 63.649112 
L 232.171922 64.369668 
L 232.839376 65.090224 
L 232.839376 66.531336 
L 233.50683 67.251892 
L 234.174284 67.972448 
L 234.174284 69.41356 
L 234.841738 70.134116 
L 235.509192 70.854672 
L 235.509192 72.295784 
L 236.176646 73.01634 
L 236.8441 73.736896 
L 236.8441 75.178008 
L 237.511554 75.898564 
L 238.179008 76.61912 
L 238.179008 78.060232 
L 238.846462 78.780788 
L 239.513916 79.501344 
L 239.513916 80.942456 
L 240.18137 81.663012 
L 240.848825 82.383568 
L 240.848825 83.82468 
L 241.516279 84.545236 
L 242.183733 85.265792 
L 242.183733 86.706903 
L 242.851187 87.427459 
L 243.518641 88.148015 
L 243.518641 89.589127 
L 243.518641 91.030239 
L 244.186095 91.750795 
L 244.853549 92.471351 
L 244.853549 93.912463 
L 245.521003 94.633019 
L 246.188457 95.353575 
L 246.188457 96.794687 
L 246.855911 97.515243 
L 247.523365 98.235799 
L 247.523365 99.676911 
L 248.190819 100.397467 
L 248.858273 101.118023 
L 248.858273 102.559135 
L 249.525727 103.279691 
L 250.193181 104.000247 
L 250.193181 105.441359 
L 250.860635 106.161915 
L 251.528089 106.882471 
L 251.528089 108.323583 
L 252.195543 109.044139 
L 252.862997 109.764695 
L 252.862997 111.205807 
L 253.530451 111.926363 
L 254.197905 112.646919 
L 254.197905 114.088031 
L 254.865359 114.808587 
L 255.532813 115.529143 
L 255.532813 116.970255 
L 256.200267 117.690811 
L 256.867721 118.411367 
L 256.867721 119.852479 
L 257.535175 120.573035 
L 258.20263 121.293591 
L 258.20263 122.734703 
L 258.20263 124.175815 
L 258.870084 124.896371 
L 259.537538 125.616927 
L 259.537538 127.058039 
L 260.204992 127.778595 
L 260.872446 128.499151 
L 260.872446 129.940263 
L 261.5399 130.660819 
L 262.207354 131.381375 
L 262.207354 132.822486 
L 262.874808 133.543042 
L 263.542262 134.263598 
L 263.542262 135.70471 
L 264.209716 136.425266 
L 264.87717 137.145822 
L 264.87717 138.586934 
L 265.544624 139.30749 
L 266.212078 140.028046 
L 266.212078 141.469158 
L 266.879532 142.189714 
L 267.546986 142.91027 
L 267.546986 144.351382 
L 268.21444 145.071938 
L 268.881894 145.792494 
L 268.881894 147.233606 
L 269.549348 147.954162 
L 270.216802 148.674718 
L 270.216802 150.11583 
L 270.884256 150.836386 
L 271.55171 151.556942 
L 271.55171 152.998054 
L 271.55171 154.439166 
L 272.219164 155.159722 
L 272.886618 155.880278 
L 272.886618 157.32139 
L 273.554072 158.041946 
L 274.221526 158.762502 
L 274.221526 160.203614 
L 274.888981 160.92417 
L 275.556435 161.644726 
L 275.556435 163.085838 
L 276.223889 163.806394 
L 276.891343 164.52695 
L 276.891343 165.968062 
L 277.558797 166.688618 
L 278.226251 167.409174 
L 278.226251 168.850286 
L 278.893705 169.570842 
L 279.561159 170.291398 
L 279.561159 171.73251 
L 280.228613 172.453066 
L 280.896067 173.173622 
L 280.896067 174.614734 
L 281.563521 175.33529 
L 282.230975 176.055846 
L 282.230975 177.496958 
L 282.898429 178.217514 
L 283.565883 178.938069 
L 283.565883 180.379181 
L 284.233337 181.099737 
L 284.900791 181.820293 
L 284.900791 183.261405 
L 285.568245 183.981961 
L 286.235699 184.702517 
L 286.235699 186.143629 
L 286.235699 187.584741 
L 286.903153 188.305297 
L 287.570607 189.025853 
L 287.570607 190.466965 
L 288.238061 191.187521 
L 288.905515 191.908077 
L 288.905515 193.349189 
L 289.572969 194.069745 
L 290.240423 194.790301 
L 290.240423 196.231413 
L 290.907877 196.951969 
L 291.575331 197.672525 
L 291.575331 199.113637 
L 292.242786 199.834193 
L 292.91024 200.554749 
L 292.91024 201.995861 
L 293.577694 202.716417 
L 294.245148 203.436973 
L 294.245148 204.878085 
L 294.912602 205.598641 
L 295.580056 206.319197 
L 295.580056 207.760309 
L 296.24751 208.480865 
L 296.914964 209.201421 
L 296.914964 210.642533 
L 297.582418 211.363089 
L 298.249872 212.083645 
L 298.249872 213.524757 
L 298.917326 214.245313 
L 299.58478 214.965869 
L 299.58478 216.406981 
L 299.58478 217.848093 
L 300.252234 218.568649 
L 300.919688 219.289205 
L 300.919688 220.730317 
L 301.587142 221.450873 
L 302.254596 222.171429 
L 302.254596 223.612541 
L 302.92205 224.333097 
L 303.589504 225.053653 
L 303.589504 226.494764 
L 304.256958 227.21532 
L 304.924412 227.935876 
L 304.924412 229.376988 
L 305.591866 230.097544 
L 306.25932 230.8181 
L 306.25932 232.259212 
L 306.926774 232.979768 
L 307.594228 233.700324 
L 307.594228 235.141436 
L 308.261682 235.861992 
L 308.929136 236.582548 
L 308.929136 238.02366 
L 309.596591 238.744216 
L 310.264045 239.464772 
L 310.264045 240.905884 
L 310.931499 241.62644 
L 311.598953 242.346996 
L 311.598953 243.788108 
L 312.266407 244.508664 
L 312.933861 245.22922 
L 312.933861 246.670332 
L 313.601315 247.390888 
L 314.268769 248.111444 
L 314.268769 249.552556 
L 314.268769 250.993668 
L 314.936223 251.714224 
L 315.603677 252.43478 
L 315.603677 253.875892 
L 316.271131 254.596448 
L 316.938585 255.317004 
L 316.938585 256.758116 
L 317.606039 257.478672 
L 318.273493 258.199228 
L 318.273493 259.64034 
L 318.940947 260.360896 
L 319.608401 261.081452 
L 319.608401 262.522564 
L 320.275855 263.24312 
L 320.943309 263.963676 
L 320.943309 265.404788 
L 321.610763 266.125344 
L 322.278217 266.8459 
L 322.278217 268.287012 
L 322.945671 269.007568 
L 323.613125 269.728124 
L 323.613125 271.169236 
L 324.280579 271.889792 
L 324.948033 272.610347 
L 324.948033 274.051459 
L 325.615487 274.772015 
L 326.282942 275.492571 
L 326.282942 276.933683 
L 326.950396 277.654239 
L 327.61785 278.374795 
L 327.61785 279.815907 
L 327.61785 281.257019 
L 328.285304 281.977575 
L 328.952758 282.698131 
L 328.952758 284.139243 
L 329.620212 284.859799 
L 330.287666 285.580355 
L 330.287666 287.021467 
L 330.95512 287.742023 
L 331.622574 288.462579 
L 331.622574 289.903691 
L 332.290028 290.624247 
L 332.957482 291.344803 
L 332.957482 292.785915 
L 333.624936 293.506471 
L 334.29239 294.227027 
L 334.29239 295.668139 
L 334.959844 296.388695 
L 335.627298 297.109251 
L 335.627298 298.550363 
L 336.294752 299.270919 
L 336.962206 299.991475 
L 336.962206 301.432587 
L 337.62966 302.153143 
L 338.297114 302.873699 
L 338.297114 304.314811 
L 338.964568 305.035367 
L 339.632022 305.755923 
L 339.632022 307.197035 
L 340.299476 307.917591 
L 340.96693 308.638147 
L 340.96693 310.079259 
L 340.96693 311.520371 
L 341.634384 312.240927 
L 342.301838 312.961483 
L 342.301838 314.402595 
L 342.969292 315.123151 
L 343.636747 315.843707 
L 343.636747 317.284819 
L 344.304201 318.005375 
L 344.971655 318.725931 
L 344.971655 320.167042 
L 345.639109 320.887598 
L 346.306563 321.608154 
L 346.306563 323.049266 
L 346.974017 323.769822 
L 347.641471 324.490378 
L 347.641471 325.93149 
L 348.308925 326.652046 
L 348.976379 327.372602 
L 348.976379 328.813714 
L 349.643833 329.53427 
L 350.311287 330.254826 
L 350.311287 331.695938 
L 350.978741 332.416494 
L 351.646195 333.13705 
L 351.646195 334.578162 
L 352.313649 335.298718 
L 352.981103 336.019274 
L 352.981103 337.460386 
L 353.648557 338.180942 
L 354.316011 338.901498 
L 354.316011 340.34261 
L 354.983465 341.063166 
L 355.650919 341.783722 
L 355.650919 343.224834 
L 355.650919 344.665946 
L 356.318373 345.386502 
L 356.985827 346.107058 
L 356.985827 347.54817 
L 357.653281 348.268726 
L 358.320735 348.989282 
L 358.320735 350.430394 
L 358.988189 351.15095 
L 359.655643 351.871506 
L 359.655643 353.312618 
L 360.323097 354.033174 
L 360.990552 354.75373 
L 360.990552 356.194842 
L 361.658006 356.915398 
L 362.32546 357.635954 
L 362.32546 359.077066 
L 362.992914 359.797622 
L 363.660368 360.518178 
L 363.660368 361.95929 
L 364.327822 362.679846 
L 364.995276 363.400402 
L 364.995276 364.841514 
L 365.66273 365.562069 
L 366.330184 366.282625 
L 366.330184 367.723737 
L 366.997638 368.444293 
L 367.665092 369.164849 
L 367.665092 370.605961 
L 368.332546 371.326517 
L 369 372.047073 
L 369 373.488185 
L 369 374.929297 
L 369.667454 375.649853 
L 370.334908 376.370409 
L 370.334908 377.811521 
L 371.002362 378.532077 
L 371.669816 379.252633 
L 371.669816 380.693745 
L 372.33727 381.414301 
L 373.004724 382.134857 
L 373.004724 383.575969 
L 373.672178 384.296525 
L 374.339632 385.017081 
L 374.339632 386.458193 
L 375.007086 387.178749 
L 375.67454 387.899305 
L 375.67454 389.340417 
L 376.341994 390.060973 
L 377.009448 390.781529 
L 377.009448 392.222641 
L 377.676903 392.943197 
L 378.344357 393.663753 
L 378.344357 395.104865 
L 379.011811 395.825421 
L 379.679265 396.545977 
L 379.679265 397.987089 
L 380.346719 398.707645 
L 381.014173 399.428201 
L 381.014173 400.869313 
L 381.681627 401.589869 
L 382.349081 402.310425 
L 382.349081 403.751537 
L 383.016535 404.472093 
L 383.683989 405.192649 
L 383.683989 406.633761 
L 383.683989 408.074873 
L 384.351443 408.795429 
L 385.018897 409.515985 
L 385.018897 410.957097 
L 385.686351 411.677653 
L 386.353805 412.398208 
L 386.353805 413.83932 
L 387.021259 414.559876 
L 387.688713 415.280432 
L 387.688713 416.721544 
L 388.356167 417.4421 
L 389.023621 418.162656 
L 389.023621 419.603768 
L 389.691075 420.324324 
L 390.358529 421.04488 
L 390.358529 422.485992 
L 391.025983 423.206548 
L 391.693437 423.927104 
L 391.693437 425.368216 
L 392.360891 426.088772 
L 393.028345 426.809328 
L 393.028345 428.25044 
L 393.695799 428.970996 
L 394.363253 429.691552 
L 394.363253 431.132664 
L 395.030708 431.85322 
L 395.698162 432.573776 
L 395.698162 434.014888 
z
" clip-path="url(#p44888c57d5)" style="fill: #fbe7d3; fill-opacity: 0.82"/>
   </g>
   <g id="matplotlib.axis_1">
    <g id="xtick_1">
     <g id="line2d_1">
      <path d="M 184.68 435.456 
L 184.68 62.208 
" clip-path="url(#p44888c57d5)" style="fill: none; stroke: #d8dee4; stroke-opacity: 0.75; stroke-width: 0.7; stroke-linecap: square"/>
     </g>
     <g id="line2d_2">
      <defs>
       <path id="m5d7419c445" d="M 0 0 
L 0 3.5 
" style="stroke: #000000; stroke-width: 0.8"/>
      </defs>
      <g>
       <use xlink:href="#m5d7419c445" x="184.68" y="435.456" style="stroke: #000000; stroke-width: 0.8"/>
      </g>
     </g>
     <g id="text_1">
      <text style="font-size: 12px; font-family: 'DejaVu Sans', 'Bitstream Vera Sans', 'Computer Modern Sans Serif', 'Lucida Grande', 'Verdana', 'Geneva', 'Lucid', 'Arial', 'Helvetica', 'Avant Garde', sans-serif; text-anchor: middle" x="184.68" y="451.573187" transform="rotate(-0 184.68 451.573187)">−4</text>
     </g>
    </g>
    <g id="xtick_2">
     <g id="line2d_3">
      <path d="M 276.84 435.456 
L 276.84 62.208 
" clip-path="url(#p44888c57d5)" style="fill: none; stroke: #d8dee4; stroke-opacity: 0.75; stroke-width: 0.7; stroke-linecap: square"/>
     </g>
     <g id="line2d_4">
      <g>
       <use xlink:href="#m5d7419c445" x="276.84" y="435.456" style="stroke: #000000; stroke-width: 0.8"/>
      </g>
     </g>
     <g id="text_2">
      <text style="font-size: 12px; font-family: 'DejaVu Sans', 'Bitstream Vera Sans', 'Computer Modern Sans Serif', 'Lucida Grande', 'Verdana', 'Geneva', 'Lucid', 'Arial', 'Helvetica', 'Avant Garde', sans-serif; text-anchor: middle" x="276.84" y="451.573187" transform="rotate(-0 276.84 451.573187)">−2</text>
     </g>
    </g>
    <g id="xtick_3">
     <g id="line2d_5">
      <path d="M 369 435.456 
L 369 62.208 
" clip-path="url(#p44888c57d5)" style="fill: none; stroke: #d8dee4; stroke-opacity: 0.75; stroke-width: 0.7; stroke-linecap: square"/>
     </g>
     <g id="line2d_6">
      <g>
       <use xlink:href="#m5d7419c445" x="369" y="435.456" style="stroke: #000000; stroke-width: 0.8"/>
      </g>
     </g>
     <g id="text_3">
      <text style="font-size: 12px; font-family: 'DejaVu Sans', 'Bitstream Vera Sans', 'Computer Modern Sans Serif', 'Lucida Grande', 'Verdana', 'Geneva', 'Lucid', 'Arial', 'Helvetica', 'Avant Garde', sans-serif; text-anchor: middle" x="369" y="451.573187" transform="rotate(-0 369 451.573187)">0</text>
     </g>
    </g>
    <g id="xtick_4">
     <g id="line2d_7">
      <path d="M 461.16 435.456 
L 461.16 62.208 
" clip-path="url(#p44888c57d5)" style="fill: none; stroke: #d8dee4; stroke-opacity: 0.75; stroke-width: 0.7; stroke-linecap: square"/>
     </g>
     <g id="line2d_8">
      <g>
       <use xlink:href="#m5d7419c445" x="461.16" y="435.456" style="stroke: #000000; stroke-width: 0.8"/>
      </g>
     </g>
     <g id="text_4">
      <text style="font-size: 12px; font-family: 'DejaVu Sans', 'Bitstream Vera Sans', 'Computer Modern Sans Serif', 'Lucida Grande', 'Verdana', 'Geneva', 'Lucid', 'Arial', 'Helvetica', 'Avant Garde', sans-serif; text-anchor: middle" x="461.16" y="451.573187" transform="rotate(-0 461.16 451.573187)">2</text>
     </g>
    </g>
    <g id="xtick_5">
     <g id="line2d_9">
      <path d="M 553.32 435.456 
L 553.32 62.208 
" clip-path="url(#p44888c57d5)" style="fill: none; stroke: #d8dee4; stroke-opacity: 0.75; stroke-width: 0.7; stroke-linecap: square"/>
     </g>
     <g id="line2d_10">
      <g>
       <use xlink:href="#m5d7419c445" x="553.32" y="435.456" style="stroke: #000000; stroke-width: 0.8"/>
      </g>
     </g>
     <g id="text_5">
      <text style="font-size: 12px; font-family: 'DejaVu Sans', 'Bitstream Vera Sans', 'Computer Modern Sans Serif', 'Lucida Grande', 'Verdana', 'Geneva', 'Lucid', 'Arial', 'Helvetica', 'Avant Garde', sans-serif; text-anchor: middle" x="553.32" y="451.573187" transform="rotate(-0 553.32 451.573187)">4</text>
     </g>
    </g>
    <g id="text_6">
     <text style="font-size: 12px; font-family: 'DejaVu Sans', 'Bitstream Vera Sans', 'Computer Modern Sans Serif', 'Lucida Grande', 'Verdana', 'Geneva', 'Lucid', 'Arial', 'Helvetica', 'Avant Garde', sans-serif; text-anchor: middle" x="369" y="467.573187" transform="rotate(-0 369 467.573187)">Feature 1</text>
    </g>
   </g>
   <g id="matplotlib.axis_2">
    <g id="ytick_1">
     <g id="line2d_11">
      <path d="M 129.384 430.848 
L 608.616 430.848 
" clip-path="url(#p44888c57d5)" style="fill: none; stroke: #d8dee4; stroke-opacity: 0.75; stroke-width: 0.7; stroke-linecap: square"/>
     </g>
     <g id="line2d_12">
      <defs>
       <path id="mb9716fbb55" d="M 0 0 
L -3.5 0 
" style="stroke: #000000; stroke-width: 0.8"/>
      </defs>
      <g>
       <use xlink:href="#mb9716fbb55" x="129.384" y="430.848" style="stroke: #000000; stroke-width: 0.8"/>
      </g>
     </g>
     <g id="text_7">
      <text style="font-size: 12px; font-family: 'DejaVu Sans', 'Bitstream Vera Sans', 'Computer Modern Sans Serif', 'Lucida Grande', 'Verdana', 'Geneva', 'Lucid', 'Arial', 'Helvetica', 'Avant Garde', sans-serif; text-anchor: end" x="122.384" y="435.406594" transform="rotate(-0 122.384 435.406594)">−3</text>
     </g>
    </g>
    <g id="ytick_2">
     <g id="line2d_13">
      <path d="M 129.384 384.768 
L 608.616 384.768 
" clip-path="url(#p44888c57d5)" style="fill: none; stroke: #d8dee4; stroke-opacity: 0.75; stroke-width: 0.7; stroke-linecap: square"/>
     </g>
     <g id="line2d_14">
      <g>
       <use xlink:href="#mb9716fbb55" x="129.384" y="384.768" style="stroke: #000000; stroke-width: 0.8"/>
      </g>
     </g>
     <g id="text_8">
      <text style="font-size: 12px; font-family: 'DejaVu Sans', 'Bitstream Vera Sans', 'Computer Modern Sans Serif', 'Lucida Grande', 'Verdana', 'Geneva', 'Lucid', 'Arial', 'Helvetica', 'Avant Garde', sans-serif; text-anchor: end" x="122.384" y="389.326594" transform="rotate(-0 122.384 389.326594)">−2</text>
     </g>
    </g>
    <g id="ytick_3">
     <g id="line2d_15">
      <path d="M 129.384 338.688 
L 608.616 338.688 
" clip-path="url(#p44888c57d5)" style="fill: none; stroke: #d8dee4; stroke-opacity: 0.75; stroke-width: 0.7; stroke-linecap: square"/>
     </g>
     <g id="line2d_16">
      <g>
       <use xlink:href="#mb9716fbb55" x="129.384" y="338.688" style="stroke: #000000; stroke-width: 0.8"/>
      </g>
     </g>
     <g id="text_9">
      <text style="font-size: 12px; font-family: 'DejaVu Sans', 'Bitstream Vera Sans', 'Computer Modern Sans Serif', 'Lucida Grande', 'Verdana', 'Geneva', 'Lucid', 'Arial', 'Helvetica', 'Avant Garde', sans-serif; text-anchor: end" x="122.384" y="343.246594" transform="rotate(-0 122.384 343.246594)">−1</text>
     </g>
    </g>
    <g id="ytick_4">
     <g id="line2d_17">
      <path d="M 129.384 292.608 
L 608.616 292.608 
" clip-path="url(#p44888c57d5)" style="fill: none; stroke: #d8dee4; stroke-opacity: 0.75; stroke-width: 0.7; stroke-linecap: square"/>
     </g>
     <g id="line2d_18">
      <g>
       <use xlink:href="#mb9716fbb55" x="129.384" y="292.608" style="stroke: #000000; stroke-width: 0.8"/>
      </g>
     </g>
     <g id="text_10">
      <text style="font-size: 12px; font-family: 'DejaVu Sans', 'Bitstream Vera Sans', 'Computer Modern Sans Serif', 'Lucida Grande', 'Verdana', 'Geneva', 'Lucid', 'Arial', 'Helvetica', 'Avant Garde', sans-serif; text-anchor: end" x="122.384" y="297.166594" transform="rotate(-0 122.384 297.166594)">0</text>
     </g>
    </g>
    <g id="ytick_5">
     <g id="line2d_19">
      <path d="M 129.384 246.528 
L 608.616 246.528 
" clip-path="url(#p44888c57d5)" style="fill: none; stroke: #d8dee4; stroke-opacity: 0.75; stroke-width: 0.7; stroke-linecap: square"/>
     </g>
     <g id="line2d_20">
      <g>
       <use xlink:href="#mb9716fbb55" x="129.384" y="246.528" style="stroke: #000000; stroke-width: 0.8"/>
      </g>
     </g>
     <g id="text_11">
      <text style="font-size: 12px; font-family: 'DejaVu Sans', 'Bitstream Vera Sans', 'Computer Modern Sans Serif', 'Lucida Grande', 'Verdana', 'Geneva', 'Lucid', 'Arial', 'Helvetica', 'Avant Garde', sans-serif; text-anchor: end" x="122.384" y="251.086594" transform="rotate(-0 122.384 251.086594)">1</text>
     </g>
    </g>
    <g id="ytick_6">
     <g id="line2d_21">
      <path d="M 129.384 200.448 
L 608.616 200.448 
" clip-path="url(#p44888c57d5)" style="fill: none; stroke: #d8dee4; stroke-opacity: 0.75; stroke-width: 0.7; stroke-linecap: square"/>
     </g>
     <g id="line2d_22">
      <g>
       <use xlink:href="#mb9716fbb55" x="129.384" y="200.448" style="stroke: #000000; stroke-width: 0.8"/>
      </g>
     </g>
     <g id="text_12">
      <text style="font-size: 12px; font-family: 'DejaVu Sans', 'Bitstream Vera Sans', 'Computer Modern Sans Serif', 'Lucida Grande', 'Verdana', 'Geneva', 'Lucid', 'Arial', 'Helvetica', 'Avant Garde', sans-serif; text-anchor: end" x="122.384" y="205.006594" transform="rotate(-0 122.384 205.006594)">2</text>
     </g>
    </g>
    <g id="ytick_7">
     <g id="line2d_23">
      <path d="M 129.384 154.368 
L 608.616 154.368 
" clip-path="url(#p44888c57d5)" style="fill: none; stroke: #d8dee4; stroke-opacity: 0.75; stroke-width: 0.7; stroke-linecap: square"/>
     </g>
     <g id="line2d_24">
      <g>
       <use xlink:href="#mb9716fbb55" x="129.384" y="154.368" style="stroke: #000000; stroke-width: 0.8"/>
      </g>
     </g>
     <g id="text_13">
      <text style="font-size: 12px; font-family: 'DejaVu Sans', 'Bitstream Vera Sans', 'Computer Modern Sans Serif', 'Lucida Grande', 'Verdana', 'Geneva', 'Lucid', 'Arial', 'Helvetica', 'Avant Garde', sans-serif; text-anchor: end" x="122.384" y="158.926594" transform="rotate(-0 122.384 158.926594)">3</text>
     </g>
    </g>
    <g id="ytick_8">
     <g id="line2d_25">
      <path d="M 129.384 108.288 
L 608.616 108.288 
" clip-path="url(#p44888c57d5)" style="fill: none; stroke: #d8dee4; stroke-opacity: 0.75; stroke-width: 0.7; stroke-linecap: square"/>
     </g>
     <g id="line2d_26">
      <g>
       <use xlink:href="#mb9716fbb55" x="129.384" y="108.288" style="stroke: #000000; stroke-width: 0.8"/>
      </g>
     </g>
     <g id="text_14">
      <text style="font-size: 12px; font-family: 'DejaVu Sans', 'Bitstream Vera Sans', 'Computer Modern Sans Serif', 'Lucida Grande', 'Verdana', 'Geneva', 'Lucid', 'Arial', 'Helvetica', 'Avant Garde', sans-serif; text-anchor: end" x="122.384" y="112.846594" transform="rotate(-0 122.384 112.846594)">4</text>
     </g>
    </g>
    <g id="ytick_9">
     <g id="line2d_27">
      <path d="M 129.384 62.208 
L 608.616 62.208 
" clip-path="url(#p44888c57d5)" style="fill: none; stroke: #d8dee4; stroke-opacity: 0.75; stroke-width: 0.7; stroke-linecap: square"/>
     </g>
     <g id="line2d_28">
      <g>
       <use xlink:href="#mb9716fbb55" x="129.384" y="62.208" style="stroke: #000000; stroke-width: 0.8"/>
      </g>
     </g>
     <g id="text_15">
      <text style="font-size: 12px; font-family: 'DejaVu Sans', 'Bitstream Vera Sans', 'Computer Modern Sans Serif', 'Lucida Grande', 'Verdana', 'Geneva', 'Lucid', 'Arial', 'Helvetica', 'Avant Garde', sans-serif; text-anchor: end" x="122.384" y="66.766594" transform="rotate(-0 122.384 66.766594)">5</text>
     </g>
    </g>
    <g id="text_16">
     <text style="font-size: 12px; font-family: 'DejaVu Sans', 'Bitstream Vera Sans', 'Computer Modern Sans Serif', 'Lucida Grande', 'Verdana', 'Geneva', 'Lucid', 'Arial', 'Helvetica', 'Avant Garde', sans-serif; text-anchor: middle" x="97.810562" y="248.832" transform="rotate(-90 97.810562 248.832)">Feature 2</text>
    </g>
   </g>
   <g id="patch_3">
    <path d="M 129.384 435.456 
L 129.384 62.208 
" style="fill: none; stroke: #000000; stroke-width: 0.8; stroke-linejoin: miter; stroke-linecap: square"/>
   </g>
   <g id="patch_4">
    <path d="M 129.384 435.456 
L 608.616 435.456 
" style="fill: none; stroke: #000000; stroke-width: 0.8; stroke-linejoin: miter; stroke-linecap: square"/>
   </g>
   <g id="PathCollection_1">
    <defs>
     <path id="m732bbe0b35" d="M 0 3.464102 
C 0.91869 3.464102 1.799877 3.099102 2.44949 2.44949 
C 3.099102 1.799877 3.464102 0.91869 3.464102 0 
C 3.464102 -0.91869 3.099102 -1.799877 2.44949 -2.44949 
C 1.799877 -3.099102 0.91869 -3.464102 0 -3.464102 
C -0.91869 -3.464102 -1.799877 -3.099102 -2.44949 -2.44949 
C -3.099102 -1.799877 -3.464102 -0.91869 -3.464102 0 
C -3.464102 0.91869 -3.099102 1.799877 -2.44949 2.44949 
C -1.799877 3.099102 -0.91869 3.464102 0 3.464102 
z
" style="stroke: #ffffff; stroke-width: 0.55"/>
    </defs>
    <g clip-path="url(#p44888c57d5)">
     <use xlink:href="#m732bbe0b35" x="237.978326" y="406.414199" style="fill: #0969da; stroke: #ffffff; stroke-width: 0.55"/>
     <use xlink:href="#m732bbe0b35" x="239.122216" y="404.810965" style="fill: #0969da; stroke: #ffffff; stroke-width: 0.55"/>
     <use xlink:href="#m732bbe0b35" x="195.756556" y="327.827612" style="fill: #0969da; stroke: #ffffff; stroke-width: 0.55"/>
     <use xlink:href="#m732bbe0b35" x="242.635448" y="399.618668" style="fill: #0969da; stroke: #ffffff; stroke-width: 0.55"/>
     <use xlink:href="#m732bbe0b35" x="281.836018" y="356.599419" style="fill: #0969da; stroke: #ffffff; stroke-width: 0.55"/>
     <use xlink:href="#m732bbe0b35" x="211.946133" y="334.854515" style="fill: #0969da; stroke: #ffffff; stroke-width: 0.55"/>
     <use xlink:href="#m732bbe0b35" x="226.763195" y="349.094144" style="fill: #0969da; stroke: #ffffff; stroke-width: 0.55"/>
     <use xlink:href="#m732bbe0b35" x="214.199738" y="345.104374" style="fill: #0969da; stroke: #ffffff; stroke-width: 0.55"/>
     <use xlink:href="#m732bbe0b35" x="218.915786" y="366.414702" style="fill: #0969da; stroke: #ffffff; stroke-width: 0.55"/>
     <use xlink:href="#m732bbe0b35" x="243.249832" y="285.533456" style="fill: #0969da; stroke: #ffffff; stroke-width: 0.55"/>
     <use xlink:href="#m732bbe0b35" x="201.756642" y="349.37438" style="fill: #0969da; stroke: #ffffff; stroke-width: 0.55"/>
     <use xlink:href="#m732bbe0b35" x="233.931252" y="407.378382" style="fill: #0969da; stroke: #ffffff; stroke-width: 0.55"/>
     <use xlink:href="#m732bbe0b35" x="214.840324" y="302.153856" style="fill: #0969da; stroke: #ffffff; stroke-width: 0.55"/>
     <use xlink:href="#m732bbe0b35" x="202.818461" y="356.028723" style="fill: #0969da; stroke: #ffffff; stroke-width: 0.55"/>
     <use xlink:href="#m732bbe0b35" x="140.221609" y="310.283049" style="fill: #0969da; stroke: #ffffff; stroke-width: 0.55"/>
     <use xlink:href="#m732bbe0b35" x="253.144116" y="286.052088" style="fill: #0969da; stroke: #ffffff; stroke-width: 0.55"/>
     <use xlink:href="#m732bbe0b35" x="210.001927" y="348.768936" style="fill: #0969da; stroke: #ffffff; stroke-width: 0.55"/>
     <use xlink:href="#m732bbe0b35" x="217.208742" y="389.267077" style="fill: #0969da; stroke: #ffffff; stroke-width: 0.55"/>
     <use xlink:href="#m732bbe0b35" x="232.841556" y="253.558353" style="fill: #0969da; stroke: #ffffff; stroke-width: 0.55"/>
     <use xlink:href="#m732bbe0b35" x="230.936721" y="346.795331" style="fill: #0969da; stroke: #ffffff; stroke-width: 0.55"/>
     <use xlink:href="#m732bbe0b35" x="233.768347" y="349.021694" style="fill: #0969da; stroke: #ffffff; stroke-width: 0.55"/>
     <use xlink:href="#m732bbe0b35" x="228.27133" y="304.005903" style="fill: #0969da; stroke: #ffffff; stroke-width: 0.55"/>
     <use xlink:href="#m732bbe0b35" x="192.525063" y="380.028901" style="fill: #0969da; stroke: #ffffff; stroke-width: 0.55"/>
     <use xlink:href="#m732bbe0b35" x="285.337595" y="312.165456" style="fill: #0969da; stroke: #ffffff; stroke-width: 0.55"/>
     <use xlink:href="#m732bbe0b35" x="212.451487" y="320.949478" style="fill: #0969da; stroke: #ffffff; stroke-width: 0.55"/>
     <use xlink:href="#m732bbe0b35" x="181.844787" y="353.225502" style="fill: #0969da; stroke: #ffffff; stroke-width: 0.55"/>
     <use xlink:href="#m732bbe0b35" x="230.293536" y="375.24249" style="fill: #0969da; stroke: #ffffff; stroke-width: 0.55"/>
     <use xlink:href="#m732bbe0b35" x="229.521852" y="284.613915" style="fill: #0969da; stroke: #ffffff; stroke-width: 0.55"/>
     <use xlink:href="#m732bbe0b35" x="179.66228" y="363.565816" style="fill: #0969da; stroke: #ffffff; stroke-width: 0.55"/>
     <use xlink:href="#m732bbe0b35" x="225.185966" y="324.724002" style="fill: #0969da; stroke: #ffffff; stroke-width: 0.55"/>
     <use xlink:href="#m732bbe0b35" x="214.744285" y="354.78362" style="fill: #0969da; stroke: #ffffff; stroke-width: 0.55"/>
     <use xlink:href="#m732bbe0b35" x="239.660942" y="341.260851" style="fill: #0969da; stroke: #ffffff; stroke-width: 0.55"/>
     <use xlink:href="#m732bbe0b35" x="256.281405" y="332.765512" style="fill: #0969da; stroke: #ffffff; stroke-width: 0.55"/>
     <use xlink:href="#m732bbe0b35" x="207.365576" y="317.548467" style="fill: #0969da; stroke: #ffffff; stroke-width: 0.55"/>
     <use xlink:href="#m732bbe0b35" x="229.560361" y="379.077513" style="fill: #0969da; stroke: #ffffff; stroke-width: 0.55"/>
     <use xlink:href="#m732bbe0b35" x="241.960342" y="351.996444" style="fill: #0969da; stroke: #ffffff; stroke-width: 0.55"/>
     <use xlink:href="#m732bbe0b35" x="281.412821" y="346.490829" style="fill: #0969da; stroke: #ffffff; stroke-width: 0.55"/>
     <use xlink:href="#m732bbe0b35" x="259.187152" y="380.880357" style="fill: #0969da; stroke: #ffffff; stroke-width: 0.55"/>
     <use xlink:href="#m732bbe0b35" x="258.840892" y="291.816345" style="fill: #0969da; stroke: #ffffff; stroke-width: 0.55"/>
     <use xlink:href="#m732bbe0b35" x="214.534965" y="319.937125" style="fill: #0969da; stroke: #ffffff; stroke-width: 0.55"/>
     <use xlink:href="#m732bbe0b35" x="242.208464" y="304.97316" style="fill: #0969da; stroke: #ffffff; stroke-width: 0.55"/>
     <use xlink:href="#m732bbe0b35" x="199.378688" y="387.497216" style="fill: #0969da; stroke: #ffffff; stroke-width: 0.55"/>
     <use xlink:href="#m732bbe0b35" x="243.258141" y="360.983339" style="fill: #0969da; stroke: #ffffff; stroke-width: 0.55"/>
     <use xlink:href="#m732bbe0b35" x="234.115" y="305.211629" style="fill: #0969da; stroke: #ffffff; stroke-width: 0.55"/>
     <use xlink:href="#m732bbe0b35" x="223.16814" y="326.34619" style="fill: #0969da; stroke: #ffffff; stroke-width: 0.55"/>
     <use xlink:href="#m732bbe0b35" x="266.391343" y="306.502959" style="fill: #0969da; stroke: #ffffff; stroke-width: 0.55"/>
     <use xlink:href="#m732bbe0b35" x="270.255956" y="312.701194" style="fill: #0969da; stroke: #ffffff; stroke-width: 0.55"/>
     <use xlink:href="#m732bbe0b35" x="171.14684" y="358.120657" style="fill: #0969da; stroke: #ffffff; stroke-width: 0.55"/>
     <use xlink:href="#m732bbe0b35" x="209.965019" y="274.673266" style="fill: #0969da; stroke: #ffffff; stroke-width: 0.55"/>
     <use xlink:href="#m732bbe0b35" x="233.093775" y="387.927297" style="fill: #0969da; stroke: #ffffff; stroke-width: 0.55"/>
     <use xlink:href="#m732bbe0b35" x="222.667659" y="346.779773" style="fill: #0969da; stroke: #ffffff; stroke-width: 0.55"/>
     <use xlink:href="#m732bbe0b35" x="295.946585" y="332.654591" style="fill: #0969da; stroke: #ffffff; stroke-width: 0.55"/>
     <use xlink:href="#m732bbe0b35" x="190.981662" y="325.703876" style="fill: #0969da; stroke: #ffffff; stroke-width: 0.55"/>
     <use xlink:href="#m732bbe0b35" x="240.993917" y="329.66593" style="fill: #0969da; stroke: #ffffff; stroke-width: 0.55"/>
     <use xlink:href="#m732bbe0b35" x="184.85789" y="331.884476" style="fill: #0969da; stroke: #ffffff; stroke-width: 0.55"/>
     <use xlink:href="#m732bbe0b35" x="206.497045" y="350.012004" style="fill: #0969da; stroke: #ffffff; stroke-width: 0.55"/>
     <use xlink:href="#m732bbe0b35" x="262.396297" y="327.326362" style="fill: #0969da; stroke: #ffffff; stroke-width: 0.55"/>
     <use xlink:href="#m732bbe0b35" x="224.112005" y="328.266524" style="fill: #0969da; stroke: #ffffff; stroke-width: 0.55"/>
     <use xlink:href="#m732bbe0b35" x="164.447267" y="339.60432" style="fill: #0969da; stroke: #ffffff; stroke-width: 0.55"/>
     <use xlink:href="#m732bbe0b35" x="247.926441" y="343.466414" style="fill: #0969da; stroke: #ffffff; stroke-width: 0.55"/>
    </g>
   </g>
   <g id="PathCollection_2">
    <defs>
     <path id="mb218a57e60" d="M 0 3.464102 
C 0.91869 3.464102 1.799877 3.099102 2.44949 2.44949 
C 3.099102 1.799877 3.464102 0.91869 3.464102 0 
C 3.464102 -0.91869 3.099102 -1.799877 2.44949 -2.44949 
C 1.799877 -3.099102 0.91869 -3.464102 0 -3.464102 
C -0.91869 -3.464102 -1.799877 -3.099102 -2.44949 -2.44949 
C -3.099102 -1.799877 -3.464102 -0.91869 -3.464102 0 
C -3.464102 0.91869 -3.099102 1.799877 -2.44949 2.44949 
C -1.799877 3.099102 -0.91869 3.464102 0 3.464102 
z
" style="stroke: #ffffff; stroke-width: 0.55"/>
    </defs>
    <g clip-path="url(#p44888c57d5)">
     <use xlink:href="#mb218a57e60" x="468.796269" y="311.372331" style="fill: #b54708; stroke: #ffffff; stroke-width: 0.55"/>
     <use xlink:href="#mb218a57e60" x="377.385083" y="115.39749" style="fill: #b54708; stroke: #ffffff; stroke-width: 0.55"/>
     <use xlink:href="#mb218a57e60" x="332.484869" y="184.46" style="fill: #b54708; stroke: #ffffff; stroke-width: 0.55"/>
     <use xlink:href="#mb218a57e60" x="475.035272" y="319.927259" style="fill: #b54708; stroke: #ffffff; stroke-width: 0.55"/>
     <use xlink:href="#mb218a57e60" x="329.839236" y="146.125489" style="fill: #b54708; stroke: #ffffff; stroke-width: 0.55"/>
     <use xlink:href="#mb218a57e60" x="497.347411" y="378.345172" style="fill: #b54708; stroke: #ffffff; stroke-width: 0.55"/>
     <use xlink:href="#mb218a57e60" x="342.075764" y="155.604471" style="fill: #b54708; stroke: #ffffff; stroke-width: 0.55"/>
     <use xlink:href="#mb218a57e60" x="539.078183" y="304.810698" style="fill: #b54708; stroke: #ffffff; stroke-width: 0.55"/>
     <use xlink:href="#mb218a57e60" x="518.245889" y="353.861895" style="fill: #b54708; stroke: #ffffff; stroke-width: 0.55"/>
     <use xlink:href="#mb218a57e60" x="311.836343" y="161.056494" style="fill: #b54708; stroke: #ffffff; stroke-width: 0.55"/>
     <use xlink:href="#mb218a57e60" x="335.106345" y="106.447218" style="fill: #b54708; stroke: #ffffff; stroke-width: 0.55"/>
     <use xlink:href="#mb218a57e60" x="475.191932" y="247.517375" style="fill: #b54708; stroke: #ffffff; stroke-width: 0.55"/>
     <use xlink:href="#mb218a57e60" x="556.862376" y="357.189998" style="fill: #b54708; stroke: #ffffff; stroke-width: 0.55"/>
     <use xlink:href="#mb218a57e60" x="318.213596" y="198.155982" style="fill: #b54708; stroke: #ffffff; stroke-width: 0.55"/>
     <use xlink:href="#mb218a57e60" x="390.045308" y="121.722508" style="fill: #b54708; stroke: #ffffff; stroke-width: 0.55"/>
     <use xlink:href="#mb218a57e60" x="388.240854" y="152.635957" style="fill: #b54708; stroke: #ffffff; stroke-width: 0.55"/>
     <use xlink:href="#mb218a57e60" x="450.521433" y="384.599541" style="fill: #b54708; stroke: #ffffff; stroke-width: 0.55"/>
     <use xlink:href="#mb218a57e60" x="545.43349" y="335.231944" style="fill: #b54708; stroke: #ffffff; stroke-width: 0.55"/>
     <use xlink:href="#mb218a57e60" x="524.623519" y="299.131133" style="fill: #b54708; stroke: #ffffff; stroke-width: 0.55"/>
     <use xlink:href="#mb218a57e60" x="399.304426" y="93.660623" style="fill: #b54708; stroke: #ffffff; stroke-width: 0.55"/>
     <use xlink:href="#mb218a57e60" x="437.779912" y="146.116623" style="fill: #b54708; stroke: #ffffff; stroke-width: 0.55"/>
     <use xlink:href="#mb218a57e60" x="523.413699" y="351.551963" style="fill: #b54708; stroke: #ffffff; stroke-width: 0.55"/>
     <use xlink:href="#mb218a57e60" x="509.974008" y="344.563963" style="fill: #b54708; stroke: #ffffff; stroke-width: 0.55"/>
     <use xlink:href="#mb218a57e60" x="387.98626" y="144.643795" style="fill: #b54708; stroke: #ffffff; stroke-width: 0.55"/>
     <use xlink:href="#mb218a57e60" x="404.168321" y="139.571113" style="fill: #b54708; stroke: #ffffff; stroke-width: 0.55"/>
     <use xlink:href="#mb218a57e60" x="511.686247" y="303.537666" style="fill: #b54708; stroke: #ffffff; stroke-width: 0.55"/>
     <use xlink:href="#mb218a57e60" x="515.03677" y="352.981295" style="fill: #b54708; stroke: #ffffff; stroke-width: 0.55"/>
     <use xlink:href="#mb218a57e60" x="498.713863" y="286.435108" style="fill: #b54708; stroke: #ffffff; stroke-width: 0.55"/>
     <use xlink:href="#mb218a57e60" x="552.600887" y="298.464156" style="fill: #b54708; stroke: #ffffff; stroke-width: 0.55"/>
     <use xlink:href="#mb218a57e60" x="490.004338" y="324.351153" style="fill: #b54708; stroke: #ffffff; stroke-width: 0.55"/>
     <use xlink:href="#mb218a57e60" x="398.989499" y="208.958582" style="fill: #b54708; stroke: #ffffff; stroke-width: 0.55"/>
     <use xlink:href="#mb218a57e60" x="576.389312" y="313.609676" style="fill: #b54708; stroke: #ffffff; stroke-width: 0.55"/>
     <use xlink:href="#mb218a57e60" x="590.360614" y="289.032401" style="fill: #b54708; stroke: #ffffff; stroke-width: 0.55"/>
     <use xlink:href="#mb218a57e60" x="539.569908" y="297.608455" style="fill: #b54708; stroke: #ffffff; stroke-width: 0.55"/>
     <use xlink:href="#mb218a57e60" x="371.145806" y="205.718457" style="fill: #b54708; stroke: #ffffff; stroke-width: 0.55"/>
     <use xlink:href="#mb218a57e60" x="351.107558" y="160.565792" style="fill: #b54708; stroke: #ffffff; stroke-width: 0.55"/>
     <use xlink:href="#mb218a57e60" x="392.064601" y="195.182256" style="fill: #b54708; stroke: #ffffff; stroke-width: 0.55"/>
     <use xlink:href="#mb218a57e60" x="506.514877" y="340.778182" style="fill: #b54708; stroke: #ffffff; stroke-width: 0.55"/>
     <use xlink:href="#mb218a57e60" x="540.832812" y="335.736472" style="fill: #b54708; stroke: #ffffff; stroke-width: 0.55"/>
     <use xlink:href="#mb218a57e60" x="357.377915" y="135.605359" style="fill: #b54708; stroke: #ffffff; stroke-width: 0.55"/>
     <use xlink:href="#mb218a57e60" x="510.209113" y="355.99507" style="fill: #b54708; stroke: #ffffff; stroke-width: 0.55"/>
     <use xlink:href="#mb218a57e60" x="447.729317" y="348.43848" style="fill: #b54708; stroke: #ffffff; stroke-width: 0.55"/>
     <use xlink:href="#mb218a57e60" x="386.445432" y="166.268765" style="fill: #b54708; stroke: #ffffff; stroke-width: 0.55"/>
     <use xlink:href="#mb218a57e60" x="474.906926" y="342.060041" style="fill: #b54708; stroke: #ffffff; stroke-width: 0.55"/>
     <use xlink:href="#mb218a57e60" x="337.783796" y="219.427328" style="fill: #b54708; stroke: #ffffff; stroke-width: 0.55"/>
     <use xlink:href="#mb218a57e60" x="378.234168" y="150.812533" style="fill: #b54708; stroke: #ffffff; stroke-width: 0.55"/>
     <use xlink:href="#mb218a57e60" x="531.685525" y="304.860963" style="fill: #b54708; stroke: #ffffff; stroke-width: 0.55"/>
     <use xlink:href="#mb218a57e60" x="360.762268" y="137.263086" style="fill: #b54708; stroke: #ffffff; stroke-width: 0.55"/>
     <use xlink:href="#mb218a57e60" x="519.417628" y="271.685248" style="fill: #b54708; stroke: #ffffff; stroke-width: 0.55"/>
     <use xlink:href="#mb218a57e60" x="366.157723" y="151.007774" style="fill: #b54708; stroke: #ffffff; stroke-width: 0.55"/>
     <use xlink:href="#mb218a57e60" x="394.298296" y="223.035158" style="fill: #b54708; stroke: #ffffff; stroke-width: 0.55"/>
     <use xlink:href="#mb218a57e60" x="309.741738" y="156.777657" style="fill: #b54708; stroke: #ffffff; stroke-width: 0.55"/>
     <use xlink:href="#mb218a57e60" x="457.853697" y="293.521183" style="fill: #b54708; stroke: #ffffff; stroke-width: 0.55"/>
     <use xlink:href="#mb218a57e60" x="420.712609" y="215.261838" style="fill: #b54708; stroke: #ffffff; stroke-width: 0.55"/>
     <use xlink:href="#mb218a57e60" x="387.986718" y="21.556906" style="fill: #b54708; stroke: #ffffff; stroke-width: 0.55"/>
     <use xlink:href="#mb218a57e60" x="552.798798" y="329.071191" style="fill: #b54708; stroke: #ffffff; stroke-width: 0.55"/>
     <use xlink:href="#mb218a57e60" x="378.580319" y="134.762882" style="fill: #b54708; stroke: #ffffff; stroke-width: 0.55"/>
     <use xlink:href="#mb218a57e60" x="379.803824" y="189.917851" style="fill: #b54708; stroke: #ffffff; stroke-width: 0.55"/>
     <use xlink:href="#mb218a57e60" x="404.513898" y="148.367244" style="fill: #b54708; stroke: #ffffff; stroke-width: 0.55"/>
     <use xlink:href="#mb218a57e60" x="379.19993" y="133.090717" style="fill: #b54708; stroke: #ffffff; stroke-width: 0.55"/>
     <use xlink:href="#mb218a57e60" x="521.223583" y="356.611883" style="fill: #b54708; stroke: #ffffff; stroke-width: 0.55"/>
     <use xlink:href="#mb218a57e60" x="376.892352" y="209.506914" style="fill: #b54708; stroke: #ffffff; stroke-width: 0.55"/>
     <use xlink:href="#mb218a57e60" x="474.769923" y="351.413171" style="fill: #b54708; stroke: #ffffff; stroke-width: 0.55"/>
     <use xlink:href="#mb218a57e60" x="488.637342" y="355.061599" style="fill: #b54708; stroke: #ffffff; stroke-width: 0.55"/>
     <use xlink:href="#mb218a57e60" x="340.126151" y="175.456476" style="fill: #b54708; stroke: #ffffff; stroke-width: 0.55"/>
     <use xlink:href="#mb218a57e60" x="333.069335" y="134.568913" style="fill: #b54708; stroke: #ffffff; stroke-width: 0.55"/>
     <use xlink:href="#mb218a57e60" x="569.361107" y="377.954757" style="fill: #b54708; stroke: #ffffff; stroke-width: 0.55"/>
     <use xlink:href="#mb218a57e60" x="528.66871" y="337.391482" style="fill: #b54708; stroke: #ffffff; stroke-width: 0.55"/>
     <use xlink:href="#mb218a57e60" x="336.417479" y="157.917078" style="fill: #b54708; stroke: #ffffff; stroke-width: 0.55"/>
     <use xlink:href="#mb218a57e60" x="375.384142" y="149.37966" style="fill: #b54708; stroke: #ffffff; stroke-width: 0.55"/>
     <use xlink:href="#mb218a57e60" x="476.198548" y="333.965997" style="fill: #b54708; stroke: #ffffff; stroke-width: 0.55"/>
     <use xlink:href="#mb218a57e60" x="343.931569" y="155.0222" style="fill: #b54708; stroke: #ffffff; stroke-width: 0.55"/>
     <use xlink:href="#mb218a57e60" x="380.286041" y="369.595215" style="fill: #b54708; stroke: #ffffff; stroke-width: 0.55"/>
     <use xlink:href="#mb218a57e60" x="336.20894" y="193.65803" style="fill: #b54708; stroke: #ffffff; stroke-width: 0.55"/>
     <use xlink:href="#mb218a57e60" x="369.479302" y="110.00092" style="fill: #b54708; stroke: #ffffff; stroke-width: 0.55"/>
     <use xlink:href="#mb218a57e60" x="390.6339" y="82.835044" style="fill: #b54708; stroke: #ffffff; stroke-width: 0.55"/>
     <use xlink:href="#mb218a57e60" x="359.954012" y="191.36973" style="fill: #b54708; stroke: #ffffff; stroke-width: 0.55"/>
     <use xlink:href="#mb218a57e60" x="558.372994" y="328.649322" style="fill: #b54708; stroke: #ffffff; stroke-width: 0.55"/>
     <use xlink:href="#mb218a57e60" x="454.327573" y="232.418864" style="fill: #b54708; stroke: #ffffff; stroke-width: 0.55"/>
     <use xlink:href="#mb218a57e60" x="352.539673" y="132.013715" style="fill: #b54708; stroke: #ffffff; stroke-width: 0.55"/>
     <use xlink:href="#mb218a57e60" x="372.673548" y="182.144127" style="fill: #b54708; stroke: #ffffff; stroke-width: 0.55"/>
     <use xlink:href="#mb218a57e60" x="536.509996" y="305.565017" style="fill: #b54708; stroke: #ffffff; stroke-width: 0.55"/>
     <use xlink:href="#mb218a57e60" x="344.603904" y="132.159898" style="fill: #b54708; stroke: #ffffff; stroke-width: 0.55"/>
     <use xlink:href="#mb218a57e60" x="294.345144" y="156.710548" style="fill: #b54708; stroke: #ffffff; stroke-width: 0.55"/>
     <use xlink:href="#mb218a57e60" x="340.510571" y="172.314081" style="fill: #b54708; stroke: #ffffff; stroke-width: 0.55"/>
     <use xlink:href="#mb218a57e60" x="460.22679" y="342.573744" style="fill: #b54708; stroke: #ffffff; stroke-width: 0.55"/>
     <use xlink:href="#mb218a57e60" x="371.369619" y="203.313983" style="fill: #b54708; stroke: #ffffff; stroke-width: 0.55"/>
     <use xlink:href="#mb218a57e60" x="479.099977" y="337.832298" style="fill: #b54708; stroke: #ffffff; stroke-width: 0.55"/>
     <use xlink:href="#mb218a57e60" x="533.950734" y="341.624528" style="fill: #b54708; stroke: #ffffff; stroke-width: 0.55"/>
     <use xlink:href="#mb218a57e60" x="342.631044" y="138.531309" style="fill: #b54708; stroke: #ffffff; stroke-width: 0.55"/>
     <use xlink:href="#mb218a57e60" x="411.710467" y="193.837633" style="fill: #b54708; stroke: #ffffff; stroke-width: 0.55"/>
     <use xlink:href="#mb218a57e60" x="382.189473" y="142.911239" style="fill: #b54708; stroke: #ffffff; stroke-width: 0.55"/>
     <use xlink:href="#mb218a57e60" x="563.691792" y="385.711849" style="fill: #b54708; stroke: #ffffff; stroke-width: 0.55"/>
     <use xlink:href="#mb218a57e60" x="359.24369" y="63.307684" style="fill: #b54708; stroke: #ffffff; stroke-width: 0.55"/>
     <use xlink:href="#mb218a57e60" x="506.495173" y="368.73907" style="fill: #b54708; stroke: #ffffff; stroke-width: 0.55"/>
     <use xlink:href="#mb218a57e60" x="527.019342" y="295.562101" style="fill: #b54708; stroke: #ffffff; stroke-width: 0.55"/>
     <use xlink:href="#mb218a57e60" x="557.283579" y="352.642668" style="fill: #b54708; stroke: #ffffff; stroke-width: 0.55"/>
     <use xlink:href="#mb218a57e60" x="408.925601" y="124.736641" style="fill: #b54708; stroke: #ffffff; stroke-width: 0.55"/>
     <use xlink:href="#mb218a57e60" x="323.401049" y="212.261313" style="fill: #b54708; stroke: #ffffff; stroke-width: 0.55"/>
     <use xlink:href="#mb218a57e60" x="501.294881" y="306.428792" style="fill: #b54708; stroke: #ffffff; stroke-width: 0.55"/>
     <use xlink:href="#mb218a57e60" x="467.836311" y="377.02934" style="fill: #b54708; stroke: #ffffff; stroke-width: 0.55"/>
     <use xlink:href="#mb218a57e60" x="516.834851" y="349.32795" style="fill: #b54708; stroke: #ffffff; stroke-width: 0.55"/>
     <use xlink:href="#mb218a57e60" x="519.880241" y="361.872982" style="fill: #b54708; stroke: #ffffff; stroke-width: 0.55"/>
     <use xlink:href="#mb218a57e60" x="590.786651" y="405.931375" style="fill: #b54708; stroke: #ffffff; stroke-width: 0.55"/>
     <use xlink:href="#mb218a57e60" x="488.790372" y="320.383068" style="fill: #b54708; stroke: #ffffff; stroke-width: 0.55"/>
     <use xlink:href="#mb218a57e60" x="499.088268" y="348.781861" style="fill: #b54708; stroke: #ffffff; stroke-width: 0.55"/>
     <use xlink:href="#mb218a57e60" x="484.155761" y="296.194785" style="fill: #b54708; stroke: #ffffff; stroke-width: 0.55"/>
     <use xlink:href="#mb218a57e60" x="448.034355" y="140.215209" style="fill: #b54708; stroke: #ffffff; stroke-width: 0.55"/>
     <use xlink:href="#mb218a57e60" x="325.083788" y="139.380808" style="fill: #b54708; stroke: #ffffff; stroke-width: 0.55"/>
     <use xlink:href="#mb218a57e60" x="542.475528" y="317.435692" style="fill: #b54708; stroke: #ffffff; stroke-width: 0.55"/>
     <use xlink:href="#mb218a57e60" x="398.160602" y="197.107659" style="fill: #b54708; stroke: #ffffff; stroke-width: 0.55"/>
     <use xlink:href="#mb218a57e60" x="519.936948" y="334.569443" style="fill: #b54708; stroke: #ffffff; stroke-width: 0.55"/>
     <use xlink:href="#mb218a57e60" x="571.178286" y="385.487777" style="fill: #b54708; stroke: #ffffff; stroke-width: 0.55"/>
     <use xlink:href="#mb218a57e60" x="370.67996" y="187.604595" style="fill: #b54708; stroke: #ffffff; stroke-width: 0.55"/>
     <use xlink:href="#mb218a57e60" x="506.760318" y="364.615659" style="fill: #b54708; stroke: #ffffff; stroke-width: 0.55"/>
     <use xlink:href="#mb218a57e60" x="511.039138" y="306.16089" style="fill: #b54708; stroke: #ffffff; stroke-width: 0.55"/>
     <use xlink:href="#mb218a57e60" x="506.421326" y="324.876521" style="fill: #b54708; stroke: #ffffff; stroke-width: 0.55"/>
     <use xlink:href="#mb218a57e60" x="351.602704" y="123.440925" style="fill: #b54708; stroke: #ffffff; stroke-width: 0.55"/>
     <use xlink:href="#mb218a57e60" x="329.522619" y="145.798137" style="fill: #b54708; stroke: #ffffff; stroke-width: 0.55"/>
     <use xlink:href="#mb218a57e60" x="470.933987" y="331.803489" style="fill: #b54708; stroke: #ffffff; stroke-width: 0.55"/>
    </g>
   </g>
   <g id="text_17">
    <text style="font-weight: 700; font-size: 17px; font-family: 'DejaVu Sans', 'Bitstream Vera Sans', 'Computer Modern Sans Serif', 'Lucida Grande', 'Verdana', 'Geneva', 'Lucid', 'Arial', 'Helvetica', 'Avant Garde', sans-serif; text-anchor: middle" x="369" y="47.208" transform="rotate(-0 369 47.208)">K-means · k = 2</text>
   </g>
   <g id="PathCollection_3">
    <defs>
     <path id="m2c056d2299" d="M 0 -9.082951 
L -2.03925 -2.806786 
L -8.6384 -2.806786 
L -3.299575 1.072097 
L -5.338825 7.348262 
L -0 3.469378 
L 5.338825 7.348262 
L 3.299575 1.072097 
L 8.6384 -2.806786 
L 2.03925 -2.806786 
z
" style="stroke: #ffffff"/>
    </defs>
    <g clip-path="url(#p44888c57d5)">
     <use xlink:href="#m2c056d2299" x="226.438729" y="339.838894" style="fill: #24292f; stroke: #ffffff"/>
     <use xlink:href="#m2c056d2299" x="440.108897" y="245.393047" style="fill: #24292f; stroke: #ffffff"/>
    </g>
   </g>
   <g id="legend_1">
    <g id="patch_5">
     <path d="M 521.876937 85.208781 
L 601.616 85.208781 
Q 603.616 85.208781 603.616 83.208781 
L 603.616 69.208 
Q 603.616 67.208 601.616 67.208 
L 521.876937 67.208 
Q 519.876937 67.208 519.876937 69.208 
L 519.876937 83.208781 
Q 519.876937 85.208781 521.876937 85.208781 
z
" style="fill: #ffffff; opacity: 0.96; stroke: #cccccc; stroke-linejoin: miter"/>
    </g>
    <g id="PathCollection_4">
     <g>
      <use xlink:href="#m2c056d2299" x="533.876937" y="76.181437" style="fill: #24292f; stroke: #ffffff"/>
     </g>
    </g>
    <g id="text_18">
     <text style="font-size: 10px; font-family: 'DejaVu Sans', 'Bitstream Vera Sans', 'Computer Modern Sans Serif', 'Lucida Grande', 'Verdana', 'Geneva', 'Lucid', 'Arial', 'Helvetica', 'Avant Garde', sans-serif; text-anchor: start" x="551.876937" y="78.806437" transform="rotate(-0 551.876937 78.806437)">Centroids</text>
    </g>
   </g>
  </g>
  <g id="text_19">
   <text style="font-size: 11px; font-family: 'DejaVu Sans', 'Bitstream Vera Sans', 'Computer Modern Sans Serif', 'Lucida Grande', 'Verdana', 'Geneva', 'Lucid', 'Arial', 'Helvetica', 'Avant Garde', sans-serif; text-anchor: middle" x="360" y="489.888" transform="rotate(-0 360 489.888)">2 requested clusters · black stars are centroids · what changed when k changed?</text>
  </g>
 </g>
 <defs>
  <clipPath id="p44888c57d5">
   <rect x="129.384" y="62.208" width="479.232" height="373.248"/>
  </clipPath>
 </defs>
</svg>
