<?xml version="1.0" encoding="utf-8" standalone="no"?>
<!DOCTYPE svg PUBLIC "-//W3C//DTD SVG 1.1//EN"
  "http://www.w3.org/Graphics/SVG/1.1/DTD/svg11.dtd">
<svg xmlns:xlink="http://www.w3.org/1999/xlink" width="720pt" height="518.4pt" viewBox="0 0 720 518.4" xmlns="http://www.w3.org/2000/svg" version="1.1">
 <metadata>
  <rdf:RDF xmlns:dc="http://purl.org/dc/elements/1.1/" xmlns:cc="http://creativecommons.org/ns#" xmlns:rdf="http://www.w3.org/1999/02/22-rdf-syntax-ns#">
   <cc:Work>
    <dc:type rdf:resource="http://purl.org/dc/dcmitype/StillImage"/>
    <dc:format>image/svg+xml</dc:format>
    <dc:creator>
     <cc:Agent>
      <dc:title>Matplotlib v3.11.2, https://matplotlib.org/</dc:title>
     </cc:Agent>
    </dc:creator>
   </cc:Work>
  </rdf:RDF>
 </metadata>
 <defs>
  <style type="text/css">*{stroke-linejoin: round; stroke-linecap: butt}</style>
 </defs>
 <g id="figure_1">
  <g id="patch_1">
   <path d="M 0 518.4 
L 720 518.4 
L 720 0 
L 0 0 
z
" style="fill: #ffffff"/>
  </g>
  <g id="axes_1">
   <g id="patch_2">
    <path d="M 90 437.902364 
L 648 437.902364 
L 648 70.129636 
L 90 70.129636 
z
" style="fill: #ffffff"/>
   </g>
   <g id="QuadContourSet_1">
    <path d="M 91.696049 437.902364 
L 93.392097 437.902364 
L 95.088146 437.902364 
L 96.784195 437.902364 
L 98.480243 437.902364 
L 100.176292 437.902364 
L 101.87234 437.902364 
L 103.568389 437.902364 
L 105.264438 437.902364 
L 106.960486 437.902364 
L 108.656535 437.902364 
L 110.352584 437.902364 
L 112.048632 437.902364 
L 113.744681 437.902364 
L 115.440729 437.902364 
L 117.136778 437.902364 
L 118.832827 437.902364 
L 120.528875 437.902364 
L 122.224924 437.902364 
L 123.920973 437.902364 
L 125.617021 437.902364 
L 127.31307 437.902364 
L 129.009119 437.902364 
L 130.705167 437.902364 
L 132.401216 437.902364 
L 134.097264 437.902364 
L 135.793313 437.902364 
L 137.489362 437.902364 
L 139.18541 437.902364 
L 140.881459 437.902364 
L 142.577508 437.902364 
L 144.273556 437.902364 
L 145.969605 437.902364 
L 147.665653 437.902364 
L 149.361702 437.902364 
L 150.209726 437.902364 
L 151.057751 437.0627 
L 151.905775 436.223036 
L 151.905775 434.543709 
L 152.753799 433.704045 
L 153.601824 432.864381 
L 153.601824 431.185054 
L 154.449848 430.34539 
L 155.297872 429.505726 
L 155.297872 427.826399 
L 156.145897 426.986735 
L 156.993921 426.147071 
L 156.993921 424.467743 
L 157.841945 423.62808 
L 158.68997 422.788416 
L 159.537994 421.948752 
L 160.386018 421.109088 
L 160.386018 419.429761 
L 161.234043 418.590097 
L 162.082067 417.750433 
L 162.082067 416.071106 
L 162.930091 415.231442 
L 163.778116 414.391778 
L 163.778116 412.712451 
L 164.62614 411.872787 
L 165.474164 411.033123 
L 165.474164 409.353796 
L 166.322188 408.514132 
L 167.170213 407.674468 
L 167.170213 405.995141 
L 168.018237 405.155477 
L 168.866261 404.315813 
L 168.866261 402.636486 
L 169.714286 401.796822 
L 170.56231 400.957158 
L 170.56231 399.277831 
L 171.410334 398.438167 
L 172.258359 397.598503 
L 172.258359 395.919176 
L 173.106383 395.079512 
L 173.954407 394.239848 
L 173.954407 392.560521 
L 174.802432 391.720857 
L 175.650456 390.881193 
L 175.650456 389.201866 
L 176.49848 388.362202 
L 177.346505 387.522538 
L 177.346505 385.84321 
L 178.194529 385.003547 
L 179.042553 384.163883 
L 179.890578 383.324219 
L 180.738602 382.484555 
L 180.738602 380.805228 
L 181.586626 379.965564 
L 182.43465 379.1259 
L 182.43465 377.446573 
L 183.282675 376.606909 
L 184.130699 375.767245 
L 184.130699 374.087918 
L 184.978723 373.248254 
L 185.826748 372.40859 
L 185.826748 370.729263 
L 186.674772 369.889599 
L 187.522796 369.049935 
L 187.522796 367.370608 
L 188.370821 366.530944 
L 189.218845 365.69128 
L 189.218845 364.011953 
L 190.066869 363.172289 
L 190.914894 362.332625 
L 190.914894 360.653298 
L 191.762918 359.813634 
L 192.610942 358.97397 
L 192.610942 357.294643 
L 193.458967 356.454979 
L 194.306991 355.615315 
L 194.306991 353.935988 
L 195.155015 353.096324 
L 196.00304 352.25666 
L 196.00304 350.577333 
L 196.851064 349.737669 
L 197.699088 348.898005 
L 197.699088 347.218677 
L 198.547112 346.379014 
L 199.395137 345.53935 
L 200.243161 344.699686 
L 201.93921 344.699686 
L 202.787234 343.860022 
L 203.635258 343.020359 
L 204.483283 342.180695 
L 205.331307 341.341031 
L 206.179331 340.501367 
L 207.027356 339.661704 
L 208.723404 339.661704 
L 209.571429 338.82204 
L 210.419453 337.982376 
L 211.267477 337.142712 
L 212.115502 336.303049 
L 212.963526 335.463385 
L 213.81155 334.623721 
L 215.507599 334.623721 
L 216.355623 333.784057 
L 217.203647 332.944394 
L 218.051672 332.10473 
L 218.899696 331.265066 
L 219.74772 330.425402 
L 220.595745 329.585738 
L 222.291793 329.585738 
L 223.139818 328.746075 
L 223.139818 327.066747 
L 223.987842 326.227083 
L 224.835866 325.38742 
L 225.683891 324.547756 
L 226.531915 323.708092 
L 226.531915 322.028765 
L 227.379939 321.189101 
L 228.227964 320.349437 
L 229.075988 319.509773 
L 229.924012 318.67011 
L 230.772036 317.830446 
L 231.620061 316.990782 
L 231.620061 315.311455 
L 231.620061 313.632127 
L 232.468085 312.792463 
L 233.316109 311.9528 
L 233.316109 310.273472 
L 233.316109 308.594144 
L 234.164134 307.754481 
L 235.012158 306.914817 
L 235.012158 305.235489 
L 235.012158 303.556162 
L 235.860182 302.716498 
L 236.708207 301.876834 
L 236.708207 300.197507 
L 236.708207 298.518179 
L 237.556231 297.678516 
L 238.404255 296.838852 
L 238.404255 295.159524 
L 238.404255 293.480197 
L 238.404255 291.800869 
L 239.25228 290.961205 
L 240.100304 290.121542 
L 240.100304 288.442214 
L 240.948328 287.60255 
L 241.796353 286.762887 
L 241.796353 285.083559 
L 241.796353 283.404232 
L 242.644377 282.564568 
L 243.492401 281.724904 
L 243.492401 280.045577 
L 243.492401 278.366249 
L 243.492401 276.686922 
L 244.340426 275.847258 
L 245.18845 275.007594 
L 245.18845 273.328267 
L 245.18845 271.648939 
L 246.036474 270.809275 
L 246.884498 269.969611 
L 247.732523 269.129948 
L 248.580547 268.290284 
L 248.580547 266.610956 
L 248.580547 264.931629 
L 248.580547 263.252301 
L 248.580547 261.572974 
L 248.580547 259.893646 
L 248.580547 258.214319 
L 249.428571 257.374655 
L 250.276596 256.534991 
L 251.12462 255.695328 
L 251.972644 254.855664 
L 251.972644 253.176336 
L 252.820669 252.336672 
L 253.668693 251.497009 
L 254.516717 250.657345 
L 255.364742 249.817681 
L 256.212766 248.978017 
L 257.908815 248.978017 
L 258.756839 248.138354 
L 259.604863 247.29869 
L 261.300912 247.29869 
L 262.99696 247.29869 
L 263.844985 246.459026 
L 264.693009 245.619362 
L 266.389058 245.619362 
L 268.085106 245.619362 
L 268.933131 244.779699 
L 269.781155 243.940035 
L 271.477204 243.940035 
L 272.325228 243.100371 
L 273.173252 242.260707 
L 274.869301 242.260707 
L 275.717325 241.421044 
L 275.717325 239.741716 
L 276.56535 238.902052 
L 277.413374 238.062389 
L 278.261398 237.222725 
L 279.109422 236.383061 
L 279.957447 235.543397 
L 281.653495 235.543397 
L 283.349544 235.543397 
L 284.197568 234.703733 
L 285.045593 233.86407 
L 285.893617 233.024406 
L 285.893617 231.345078 
L 285.893617 229.665751 
L 286.741641 228.826087 
L 287.589666 227.986423 
L 288.43769 227.14676 
L 289.285714 226.307096 
L 290.133739 225.467432 
L 290.981763 224.627768 
L 291.829787 223.788105 
L 293.525836 223.788105 
L 294.37386 222.948441 
L 295.221884 222.108777 
L 296.069909 221.269113 
L 296.069909 219.589786 
L 296.069909 217.910458 
L 296.069909 216.231131 
L 296.917933 215.391467 
L 297.765957 214.551803 
L 298.613982 213.712139 
L 300.31003 213.712139 
L 302.006079 213.712139 
L 303.702128 213.712139 
L 304.550152 212.872476 
L 305.398176 212.032812 
L 306.246201 212.872476 
L 307.094225 213.712139 
L 308.790274 213.712139 
L 309.638298 212.872476 
L 310.486322 212.032812 
L 312.182371 212.032812 
L 313.878419 212.032812 
L 315.574468 212.032812 
L 317.270517 212.032812 
L 318.118541 211.193148 
L 318.966565 210.353484 
L 320.662614 210.353484 
L 322.358663 210.353484 
L 324.054711 210.353484 
L 324.902736 209.513821 
L 325.75076 208.674157 
L 326.598784 209.513821 
L 327.446809 210.353484 
L 329.142857 210.353484 
L 329.990881 211.193148 
L 330.838906 212.032812 
L 331.68693 212.872476 
L 332.534954 213.712139 
L 333.382979 214.551803 
L 334.231003 215.391467 
L 335.079027 216.231131 
L 335.927052 217.070795 
L 336.775076 217.910458 
L 337.6231 218.750122 
L 338.471125 219.589786 
L 339.319149 220.42945 
L 340.167173 221.269113 
L 341.015198 222.108777 
L 342.711246 222.108777 
L 344.407295 222.108777 
L 345.255319 221.269113 
L 346.103343 220.42945 
L 347.799392 220.42945 
L 348.647416 221.269113 
L 349.495441 222.108777 
L 350.343465 222.948441 
L 350.343465 224.627768 
L 350.343465 226.307096 
L 351.191489 227.14676 
L 352.039514 227.986423 
L 352.039514 229.665751 
L 352.887538 230.505415 
L 353.735562 231.345078 
L 353.735562 233.024406 
L 353.735562 234.703733 
L 353.735562 236.383061 
L 353.735562 238.062389 
L 353.735562 239.741716 
L 354.583587 240.58138 
L 355.431611 241.421044 
L 356.279635 242.260707 
L 357.975684 242.260707 
L 358.823708 243.100371 
L 359.671733 243.940035 
L 361.367781 243.940035 
L 362.215805 244.779699 
L 362.215805 246.459026 
L 362.215805 248.138354 
L 363.06383 248.978017 
L 363.911854 249.817681 
L 364.759878 250.657345 
L 365.607903 251.497009 
L 366.455927 252.336672 
L 368.151976 252.336672 
L 369 253.176336 
L 369.848024 254.016 
L 370.696049 254.855664 
L 371.544073 255.695328 
L 373.240122 255.695328 
L 374.088146 254.855664 
L 374.93617 254.016 
L 375.784195 254.855664 
L 375.784195 256.534991 
L 375.784195 258.214319 
L 376.632219 259.053983 
L 377.480243 259.893646 
L 377.480243 261.572974 
L 377.480243 263.252301 
L 378.328267 264.091965 
L 380.024316 264.091965 
L 380.87234 264.931629 
L 381.720365 265.771293 
L 382.568389 266.610956 
L 382.568389 268.290284 
L 382.568389 269.969611 
L 383.416413 270.809275 
L 384.264438 271.648939 
L 384.264438 273.328267 
L 385.112462 274.16793 
L 385.960486 275.007594 
L 386.808511 275.847258 
L 387.656535 276.686922 
L 388.504559 277.526585 
L 389.352584 278.366249 
L 390.200608 279.205913 
L 391.048632 280.045577 
L 391.896657 280.88524 
L 392.744681 281.724904 
L 392.744681 283.404232 
L 392.744681 285.083559 
L 392.744681 286.762887 
L 393.592705 287.60255 
L 394.440729 288.442214 
L 395.288754 289.281878 
L 396.136778 290.121542 
L 396.984802 290.961205 
L 397.832827 291.800869 
L 398.680851 292.640533 
L 399.528875 293.480197 
L 400.3769 294.319861 
L 401.224924 295.159524 
L 402.072948 295.999188 
L 402.920973 295.159524 
L 403.768997 294.319861 
L 404.617021 295.159524 
L 405.465046 295.999188 
L 406.31307 296.838852 
L 406.31307 298.518179 
L 407.161094 299.357843 
L 408.857143 299.357843 
L 409.705167 298.518179 
L 410.553191 297.678516 
L 411.401216 296.838852 
L 412.24924 295.999188 
L 413.097264 295.159524 
L 413.945289 294.319861 
L 414.793313 293.480197 
L 415.641337 292.640533 
L 416.489362 291.800869 
L 417.337386 290.961205 
L 418.18541 290.121542 
L 419.033435 289.281878 
L 420.729483 289.281878 
L 421.577508 288.442214 
L 422.425532 287.60255 
L 424.121581 287.60255 
L 424.969605 286.762887 
L 425.817629 285.923223 
L 426.665653 286.762887 
L 427.513678 287.60255 
L 429.209726 287.60255 
L 430.905775 287.60255 
L 431.753799 288.442214 
L 432.601824 289.281878 
L 433.449848 290.121542 
L 434.297872 290.961205 
L 435.145897 291.800869 
L 435.993921 292.640533 
L 437.68997 292.640533 
L 438.537994 291.800869 
L 439.386018 290.961205 
L 441.082067 290.961205 
L 442.778116 290.961205 
L 444.474164 290.961205 
L 446.170213 290.961205 
L 447.018237 291.800869 
L 447.866261 292.640533 
L 448.714286 293.480197 
L 449.56231 294.319861 
L 450.410334 293.480197 
L 451.258359 292.640533 
L 452.106383 291.800869 
L 452.954407 290.961205 
L 453.802432 290.121542 
L 454.650456 289.281878 
L 456.346505 289.281878 
L 458.042553 289.281878 
L 459.738602 289.281878 
L 460.586626 288.442214 
L 460.586626 286.762887 
L 461.43465 285.923223 
L 463.130699 285.923223 
L 463.978723 285.083559 
L 464.826748 284.243895 
L 465.674772 285.083559 
L 465.674772 286.762887 
L 465.674772 288.442214 
L 466.522796 289.281878 
L 468.218845 289.281878 
L 469.914894 289.281878 
L 471.610942 289.281878 
L 472.458967 288.442214 
L 473.306991 287.60255 
L 475.00304 287.60255 
L 476.699088 287.60255 
L 477.547112 286.762887 
L 478.395137 285.923223 
L 479.243161 285.083559 
L 480.091185 284.243895 
L 480.93921 283.404232 
L 481.787234 282.564568 
L 482.635258 281.724904 
L 483.483283 280.88524 
L 485.179331 280.88524 
L 486.027356 280.045577 
L 486.027356 278.366249 
L 486.87538 277.526585 
L 487.723404 276.686922 
L 487.723404 275.007594 
L 487.723404 273.328267 
L 486.87538 272.488603 
L 486.027356 271.648939 
L 486.027356 269.969611 
L 485.179331 269.129948 
L 484.331307 268.290284 
L 484.331307 266.610956 
L 484.331307 264.931629 
L 485.179331 264.091965 
L 486.027356 263.252301 
L 485.179331 262.412638 
L 484.331307 261.572974 
L 484.331307 259.893646 
L 484.331307 258.214319 
L 484.331307 256.534991 
L 484.331307 254.855664 
L 484.331307 253.176336 
L 484.331307 251.497009 
L 484.331307 249.817681 
L 484.331307 248.138354 
L 484.331307 246.459026 
L 484.331307 244.779699 
L 484.331307 243.100371 
L 484.331307 241.421044 
L 484.331307 239.741716 
L 484.331307 238.062389 
L 484.331307 236.383061 
L 484.331307 234.703733 
L 483.483283 233.86407 
L 482.635258 233.024406 
L 481.787234 232.184742 
L 480.091185 232.184742 
L 479.243161 231.345078 
L 478.395137 230.505415 
L 477.547112 229.665751 
L 477.547112 227.986423 
L 477.547112 226.307096 
L 477.547112 224.627768 
L 477.547112 222.948441 
L 477.547112 221.269113 
L 477.547112 219.589786 
L 477.547112 217.910458 
L 477.547112 216.231131 
L 477.547112 214.551803 
L 477.547112 212.872476 
L 477.547112 211.193148 
L 477.547112 209.513821 
L 476.699088 208.674157 
L 475.851064 207.834493 
L 475.851064 206.155166 
L 475.851064 204.475838 
L 475.851064 202.796511 
L 475.851064 201.117183 
L 475.851064 199.437856 
L 475.851064 197.758528 
L 476.699088 196.918864 
L 477.547112 196.0792 
L 477.547112 194.399873 
L 477.547112 192.720545 
L 477.547112 191.041218 
L 477.547112 189.36189 
L 477.547112 187.682563 
L 477.547112 186.003235 
L 477.547112 184.323908 
L 477.547112 182.64458 
L 477.547112 180.965253 
L 477.547112 179.285925 
L 477.547112 177.606598 
L 476.699088 176.766934 
L 475.851064 175.92727 
L 475.851064 174.247943 
L 475.851064 172.568615 
L 475.851064 170.889288 
L 475.851064 169.20996 
L 475.00304 168.370296 
L 474.155015 167.530633 
L 474.155015 165.851305 
L 475.00304 165.011641 
L 475.851064 164.171978 
L 475.851064 162.49265 
L 475.851064 160.813323 
L 475.851064 159.133995 
L 475.851064 157.454667 
L 475.851064 155.77534 
L 475.851064 154.096012 
L 476.699088 153.256349 
L 477.547112 152.416685 
L 476.699088 151.577021 
L 475.851064 150.737357 
L 475.851064 149.05803 
L 476.699088 148.218366 
L 477.547112 147.378702 
L 477.547112 145.699375 
L 477.547112 144.020047 
L 477.547112 142.34072 
L 478.395137 141.501056 
L 479.243161 140.661392 
L 479.243161 138.982065 
L 480.091185 138.142401 
L 480.93921 137.302737 
L 480.93921 135.62341 
L 481.787234 134.783746 
L 482.635258 133.944082 
L 482.635258 132.264755 
L 482.635258 130.585427 
L 482.635258 128.9061 
L 482.635258 127.226772 
L 483.483283 126.387108 
L 484.331307 125.547445 
L 484.331307 123.868117 
L 484.331307 122.18879 
L 484.331307 120.509462 
L 484.331307 118.830134 
L 484.331307 117.150807 
L 484.331307 115.471479 
L 484.331307 113.792152 
L 484.331307 112.112824 
L 484.331307 110.433497 
L 485.179331 109.593833 
L 486.027356 108.754169 
L 486.027356 107.074842 
L 486.027356 105.395514 
L 486.027356 103.716187 
L 486.027356 102.036859 
L 486.027356 100.357532 
L 486.027356 98.678204 
L 486.027356 96.998877 
L 486.027356 95.319549 
L 486.027356 93.640222 
L 486.87538 92.800558 
L 487.723404 91.960894 
L 487.723404 90.281567 
L 487.723404 88.602239 
L 487.723404 86.922912 
L 487.723404 85.243584 
L 487.723404 83.564257 
L 488.571429 82.724593 
L 489.419453 81.884929 
L 489.419453 80.205601 
L 489.419453 78.526274 
L 489.419453 76.846946 
L 489.419453 75.167619 
L 489.419453 73.488291 
L 490.267477 72.648628 
L 491.115502 71.808964 
L 491.115502 70.129636 
L 490.267477 70.129636 
L 488.571429 70.129636 
L 486.87538 70.129636 
L 485.179331 70.129636 
L 483.483283 70.129636 
L 481.787234 70.129636 
L 480.091185 70.129636 
L 478.395137 70.129636 
L 476.699088 70.129636 
L 475.00304 70.129636 
L 473.306991 70.129636 
L 471.610942 70.129636 
L 469.914894 70.129636 
L 468.218845 70.129636 
L 466.522796 70.129636 
L 464.826748 70.129636 
L 463.130699 70.129636 
L 461.43465 70.129636 
L 459.738602 70.129636 
L 458.042553 70.129636 
L 456.346505 70.129636 
L 454.650456 70.129636 
L 452.954407 70.129636 
L 451.258359 70.129636 
L 449.56231 70.129636 
L 447.866261 70.129636 
L 446.170213 70.129636 
L 444.474164 70.129636 
L 442.778116 70.129636 
L 441.082067 70.129636 
L 439.386018 70.129636 
L 437.68997 70.129636 
L 435.993921 70.129636 
L 434.297872 70.129636 
L 432.601824 70.129636 
L 430.905775 70.129636 
L 429.209726 70.129636 
L 427.513678 70.129636 
L 425.817629 70.129636 
L 424.121581 70.129636 
L 422.425532 70.129636 
L 420.729483 70.129636 
L 419.033435 70.129636 
L 417.337386 70.129636 
L 415.641337 70.129636 
L 413.945289 70.129636 
L 412.24924 70.129636 
L 410.553191 70.129636 
L 408.857143 70.129636 
L 407.161094 70.129636 
L 405.465046 70.129636 
L 403.768997 70.129636 
L 402.072948 70.129636 
L 400.3769 70.129636 
L 398.680851 70.129636 
L 396.984802 70.129636 
L 395.288754 70.129636 
L 393.592705 70.129636 
L 391.896657 70.129636 
L 390.200608 70.129636 
L 388.504559 70.129636 
L 386.808511 70.129636 
L 385.112462 70.129636 
L 383.416413 70.129636 
L 381.720365 70.129636 
L 380.024316 70.129636 
L 378.328267 70.129636 
L 376.632219 70.129636 
L 374.93617 70.129636 
L 373.240122 70.129636 
L 371.544073 70.129636 
L 369.848024 70.129636 
L 368.151976 70.129636 
L 366.455927 70.129636 
L 364.759878 70.129636 
L 363.06383 70.129636 
L 361.367781 70.129636 
L 359.671733 70.129636 
L 357.975684 70.129636 
L 356.279635 70.129636 
L 354.583587 70.129636 
L 352.887538 70.129636 
L 351.191489 70.129636 
L 349.495441 70.129636 
L 347.799392 70.129636 
L 346.103343 70.129636 
L 344.407295 70.129636 
L 342.711246 70.129636 
L 341.015198 70.129636 
L 339.319149 70.129636 
L 337.6231 70.129636 
L 335.927052 70.129636 
L 334.231003 70.129636 
L 332.534954 70.129636 
L 330.838906 70.129636 
L 329.142857 70.129636 
L 327.446809 70.129636 
L 325.75076 70.129636 
L 324.054711 70.129636 
L 322.358663 70.129636 
L 320.662614 70.129636 
L 318.966565 70.129636 
L 317.270517 70.129636 
L 315.574468 70.129636 
L 313.878419 70.129636 
L 312.182371 70.129636 
L 310.486322 70.129636 
L 308.790274 70.129636 
L 307.094225 70.129636 
L 305.398176 70.129636 
L 303.702128 70.129636 
L 302.006079 70.129636 
L 300.31003 70.129636 
L 298.613982 70.129636 
L 296.917933 70.129636 
L 295.221884 70.129636 
L 293.525836 70.129636 
L 291.829787 70.129636 
L 290.133739 70.129636 
L 288.43769 70.129636 
L 286.741641 70.129636 
L 285.045593 70.129636 
L 283.349544 70.129636 
L 281.653495 70.129636 
L 279.957447 70.129636 
L 278.261398 70.129636 
L 276.56535 70.129636 
L 274.869301 70.129636 
L 273.173252 70.129636 
L 271.477204 70.129636 
L 269.781155 70.129636 
L 268.085106 70.129636 
L 266.389058 70.129636 
L 264.693009 70.129636 
L 262.99696 70.129636 
L 261.300912 70.129636 
L 259.604863 70.129636 
L 257.908815 70.129636 
L 256.212766 70.129636 
L 254.516717 70.129636 
L 252.820669 70.129636 
L 251.12462 70.129636 
L 249.428571 70.129636 
L 247.732523 70.129636 
L 246.036474 70.129636 
L 244.340426 70.129636 
L 242.644377 70.129636 
L 240.948328 70.129636 
L 239.25228 70.129636 
L 237.556231 70.129636 
L 235.860182 70.129636 
L 234.164134 70.129636 
L 232.468085 70.129636 
L 230.772036 70.129636 
L 229.075988 70.129636 
L 227.379939 70.129636 
L 225.683891 70.129636 
L 223.987842 70.129636 
L 222.291793 70.129636 
L 220.595745 70.129636 
L 218.899696 70.129636 
L 217.203647 70.129636 
L 215.507599 70.129636 
L 213.81155 70.129636 
L 212.115502 70.129636 
L 210.419453 70.129636 
L 208.723404 70.129636 
L 207.027356 70.129636 
L 205.331307 70.129636 
L 203.635258 70.129636 
L 201.93921 70.129636 
L 200.243161 70.129636 
L 198.547112 70.129636 
L 196.851064 70.129636 
L 195.155015 70.129636 
L 193.458967 70.129636 
L 191.762918 70.129636 
L 190.066869 70.129636 
L 188.370821 70.129636 
L 186.674772 70.129636 
L 184.978723 70.129636 
L 183.282675 70.129636 
L 181.586626 70.129636 
L 179.890578 70.129636 
L 178.194529 70.129636 
L 176.49848 70.129636 
L 174.802432 70.129636 
L 173.106383 70.129636 
L 171.410334 70.129636 
L 169.714286 70.129636 
L 168.018237 70.129636 
L 166.322188 70.129636 
L 164.62614 70.129636 
L 162.930091 70.129636 
L 161.234043 70.129636 
L 159.537994 70.129636 
L 157.841945 70.129636 
L 156.145897 70.129636 
L 154.449848 70.129636 
L 152.753799 70.129636 
L 151.057751 70.129636 
L 149.361702 70.129636 
L 147.665653 70.129636 
L 145.969605 70.129636 
L 144.273556 70.129636 
L 142.577508 70.129636 
L 140.881459 70.129636 
L 139.18541 70.129636 
L 137.489362 70.129636 
L 135.793313 70.129636 
L 134.097264 70.129636 
L 132.401216 70.129636 
L 130.705167 70.129636 
L 129.009119 70.129636 
L 127.31307 70.129636 
L 125.617021 70.129636 
L 123.920973 70.129636 
L 122.224924 70.129636 
L 120.528875 70.129636 
L 118.832827 70.129636 
L 117.136778 70.129636 
L 115.440729 70.129636 
L 113.744681 70.129636 
L 112.048632 70.129636 
L 110.352584 70.129636 
L 108.656535 70.129636 
L 106.960486 70.129636 
L 105.264438 70.129636 
L 103.568389 70.129636 
L 101.87234 70.129636 
L 100.176292 70.129636 
L 98.480243 70.129636 
L 96.784195 70.129636 
L 95.088146 70.129636 
L 93.392097 70.129636 
L 91.696049 70.129636 
L 90 70.129636 
L 90 71.808964 
L 90 73.488291 
L 90 75.167619 
L 90 76.846946 
L 90 78.526274 
L 90 80.205601 
L 90 81.884929 
L 90 83.564257 
L 90 85.243584 
L 90 86.922912 
L 90 88.602239 
L 90 90.281567 
L 90 91.960894 
L 90 93.640222 
L 90 95.319549 
L 90 96.998877 
L 90 98.678204 
L 90 100.357532 
L 90 102.036859 
L 90 103.716187 
L 90 105.395514 
L 90 107.074842 
L 90 108.754169 
L 90 110.433497 
L 90 112.112824 
L 90 113.792152 
L 90 115.471479 
L 90 117.150807 
L 90 118.830134 
L 90 120.509462 
L 90 122.18879 
L 90 123.868117 
L 90 125.547445 
L 90 127.226772 
L 90 128.9061 
L 90 130.585427 
L 90 132.264755 
L 90 133.944082 
L 90 135.62341 
L 90 137.302737 
L 90 138.982065 
L 90 140.661392 
L 90 142.34072 
L 90 144.020047 
L 90 145.699375 
L 90 147.378702 
L 90 149.05803 
L 90 150.737357 
L 90 152.416685 
L 90 154.096012 
L 90 155.77534 
L 90 157.454667 
L 90 159.133995 
L 90 160.813323 
L 90 162.49265 
L 90 164.171978 
L 90 165.851305 
L 90 167.530633 
L 90 169.20996 
L 90 170.889288 
L 90 172.568615 
L 90 174.247943 
L 90 175.92727 
L 90 177.606598 
L 90 179.285925 
L 90 180.965253 
L 90 182.64458 
L 90 184.323908 
L 90 186.003235 
L 90 187.682563 
L 90 189.36189 
L 90 191.041218 
L 90 192.720545 
L 90 194.399873 
L 90 196.0792 
L 90 197.758528 
L 90 199.437856 
L 90 201.117183 
L 90 202.796511 
L 90 204.475838 
L 90 206.155166 
L 90 207.834493 
L 90 209.513821 
L 90 211.193148 
L 90 212.872476 
L 90 214.551803 
L 90 216.231131 
L 90 217.910458 
L 90 219.589786 
L 90 221.269113 
L 90 222.948441 
L 90 224.627768 
L 90 226.307096 
L 90 227.986423 
L 90 229.665751 
L 90 231.345078 
L 90 233.024406 
L 90 234.703733 
L 90 236.383061 
L 90 238.062389 
L 90 239.741716 
L 90 241.421044 
L 90 243.100371 
L 90 244.779699 
L 90 246.459026 
L 90 248.138354 
L 90 249.817681 
L 90 251.497009 
L 90 253.176336 
L 90 254.855664 
L 90 256.534991 
L 90 258.214319 
L 90 259.893646 
L 90 261.572974 
L 90 263.252301 
L 90 264.931629 
L 90 266.610956 
L 90 268.290284 
L 90 269.969611 
L 90 271.648939 
L 90 273.328267 
L 90 275.007594 
L 90 276.686922 
L 90 278.366249 
L 90 280.045577 
L 90 281.724904 
L 90 283.404232 
L 90 285.083559 
L 90 286.762887 
L 90 288.442214 
L 90 290.121542 
L 90 291.800869 
L 90 293.480197 
L 90 295.159524 
L 90 296.838852 
L 90 298.518179 
L 90 300.197507 
L 90 301.876834 
L 90 303.556162 
L 90 305.235489 
L 90 306.914817 
L 90 308.594144 
L 90 310.273472 
L 90 311.9528 
L 90 313.632127 
L 90 315.311455 
L 90 316.990782 
L 90 318.67011 
L 90 320.349437 
L 90 322.028765 
L 90 323.708092 
L 90 325.38742 
L 90 327.066747 
L 90 328.746075 
L 90 330.425402 
L 90 332.10473 
L 90 333.784057 
L 90 335.463385 
L 90 337.142712 
L 90 338.82204 
L 90 340.501367 
L 90 342.180695 
L 90 343.860022 
L 90 345.53935 
L 90 347.218677 
L 90 348.898005 
L 90 350.577333 
L 90 352.25666 
L 90 353.935988 
L 90 355.615315 
L 90 357.294643 
L 90 358.97397 
L 90 360.653298 
L 90 362.332625 
L 90 364.011953 
L 90 365.69128 
L 90 367.370608 
L 90 369.049935 
L 90 370.729263 
L 90 372.40859 
L 90 374.087918 
L 90 375.767245 
L 90 377.446573 
L 90 379.1259 
L 90 380.805228 
L 90 382.484555 
L 90 384.163883 
L 90 385.84321 
L 90 387.522538 
L 90 389.201866 
L 90 390.881193 
L 90 392.560521 
L 90 394.239848 
L 90 395.919176 
L 90 397.598503 
L 90 399.277831 
L 90 400.957158 
L 90 402.636486 
L 90 404.315813 
L 90 405.995141 
L 90 407.674468 
L 90 409.353796 
L 90 411.033123 
L 90 412.712451 
L 90 414.391778 
L 90 416.071106 
L 90 417.750433 
L 90 419.429761 
L 90 421.109088 
L 90 422.788416 
L 90 424.467743 
L 90 426.147071 
L 90 427.826399 
L 90 429.505726 
L 90 431.185054 
L 90 432.864381 
L 90 434.543709 
L 90 436.223036 
L 90 437.902364 
z
" clip-path="url(#pd0fb04bc2c)" style="fill: #dceafe; fill-opacity: 0.9"/>
    <path d="M 151.057751 437.902364 
L 152.753799 437.902364 
L 154.449848 437.902364 
L 156.145897 437.902364 
L 157.841945 437.902364 
L 159.537994 437.902364 
L 161.234043 437.902364 
L 162.930091 437.902364 
L 164.62614 437.902364 
L 166.322188 437.902364 
L 168.018237 437.902364 
L 169.714286 437.902364 
L 171.410334 437.902364 
L 173.106383 437.902364 
L 174.802432 437.902364 
L 176.49848 437.902364 
L 178.194529 437.902364 
L 179.890578 437.902364 
L 181.586626 437.902364 
L 183.282675 437.902364 
L 184.978723 437.902364 
L 186.674772 437.902364 
L 188.370821 437.902364 
L 190.066869 437.902364 
L 191.762918 437.902364 
L 193.458967 437.902364 
L 195.155015 437.902364 
L 196.851064 437.902364 
L 198.547112 437.902364 
L 200.243161 437.902364 
L 201.93921 437.902364 
L 203.635258 437.902364 
L 205.331307 437.902364 
L 207.027356 437.902364 
L 208.723404 437.902364 
L 210.419453 437.902364 
L 212.115502 437.902364 
L 213.81155 437.902364 
L 215.507599 437.902364 
L 217.203647 437.902364 
L 218.899696 437.902364 
L 220.595745 437.902364 
L 222.291793 437.902364 
L 223.987842 437.902364 
L 225.683891 437.902364 
L 227.379939 437.902364 
L 229.075988 437.902364 
L 230.772036 437.902364 
L 232.468085 437.902364 
L 234.164134 437.902364 
L 235.860182 437.902364 
L 237.556231 437.902364 
L 239.25228 437.902364 
L 240.948328 437.902364 
L 242.644377 437.902364 
L 244.340426 437.902364 
L 246.036474 437.902364 
L 247.732523 437.902364 
L 249.428571 437.902364 
L 251.12462 437.902364 
L 252.820669 437.902364 
L 254.516717 437.902364 
L 256.212766 437.902364 
L 257.908815 437.902364 
L 259.604863 437.902364 
L 261.300912 437.902364 
L 262.99696 437.902364 
L 264.693009 437.902364 
L 266.389058 437.902364 
L 268.085106 437.902364 
L 269.781155 437.902364 
L 271.477204 437.902364 
L 273.173252 437.902364 
L 274.869301 437.902364 
L 276.56535 437.902364 
L 278.261398 437.902364 
L 279.957447 437.902364 
L 281.653495 437.902364 
L 283.349544 437.902364 
L 285.045593 437.902364 
L 286.741641 437.902364 
L 288.43769 437.902364 
L 290.133739 437.902364 
L 291.829787 437.902364 
L 293.525836 437.902364 
L 295.221884 437.902364 
L 296.917933 437.902364 
L 298.613982 437.902364 
L 300.31003 437.902364 
L 302.006079 437.902364 
L 303.702128 437.902364 
L 305.398176 437.902364 
L 307.094225 437.902364 
L 308.790274 437.902364 
L 310.486322 437.902364 
L 312.182371 437.902364 
L 313.878419 437.902364 
L 315.574468 437.902364 
L 317.270517 437.902364 
L 318.966565 437.902364 
L 320.662614 437.902364 
L 322.358663 437.902364 
L 324.054711 437.902364 
L 325.75076 437.902364 
L 327.446809 437.902364 
L 329.142857 437.902364 
L 330.838906 437.902364 
L 332.534954 437.902364 
L 334.231003 437.902364 
L 335.927052 437.902364 
L 337.6231 437.902364 
L 339.319149 437.902364 
L 341.015198 437.902364 
L 342.711246 437.902364 
L 344.407295 437.902364 
L 346.103343 437.902364 
L 347.799392 437.902364 
L 349.495441 437.902364 
L 351.191489 437.902364 
L 352.887538 437.902364 
L 354.583587 437.902364 
L 356.279635 437.902364 
L 357.975684 437.902364 
L 359.671733 437.902364 
L 361.367781 437.902364 
L 363.06383 437.902364 
L 364.759878 437.902364 
L 366.455927 437.902364 
L 368.151976 437.902364 
L 369.848024 437.902364 
L 371.544073 437.902364 
L 373.240122 437.902364 
L 374.93617 437.902364 
L 376.632219 437.902364 
L 378.328267 437.902364 
L 380.024316 437.902364 
L 381.720365 437.902364 
L 383.416413 437.902364 
L 385.112462 437.902364 
L 386.808511 437.902364 
L 388.504559 437.902364 
L 390.200608 437.902364 
L 391.896657 437.902364 
L 393.592705 437.902364 
L 395.288754 437.902364 
L 396.984802 437.902364 
L 398.680851 437.902364 
L 400.3769 437.902364 
L 402.072948 437.902364 
L 403.768997 437.902364 
L 405.465046 437.902364 
L 407.161094 437.902364 
L 408.857143 437.902364 
L 410.553191 437.902364 
L 412.24924 437.902364 
L 413.945289 437.902364 
L 415.641337 437.902364 
L 417.337386 437.902364 
L 419.033435 437.902364 
L 420.729483 437.902364 
L 422.425532 437.902364 
L 424.121581 437.902364 
L 425.817629 437.902364 
L 427.513678 437.902364 
L 429.209726 437.902364 
L 430.905775 437.902364 
L 432.601824 437.902364 
L 434.297872 437.902364 
L 435.993921 437.902364 
L 437.68997 437.902364 
L 439.386018 437.902364 
L 441.082067 437.902364 
L 442.778116 437.902364 
L 444.474164 437.902364 
L 446.170213 437.902364 
L 447.866261 437.902364 
L 449.56231 437.902364 
L 451.258359 437.902364 
L 452.954407 437.902364 
L 454.650456 437.902364 
L 456.346505 437.902364 
L 458.042553 437.902364 
L 459.738602 437.902364 
L 461.43465 437.902364 
L 463.130699 437.902364 
L 464.826748 437.902364 
L 466.522796 437.902364 
L 468.218845 437.902364 
L 469.914894 437.902364 
L 471.610942 437.902364 
L 473.306991 437.902364 
L 475.00304 437.902364 
L 476.699088 437.902364 
L 478.395137 437.902364 
L 480.091185 437.902364 
L 481.787234 437.902364 
L 483.483283 437.902364 
L 485.179331 437.902364 
L 486.87538 437.902364 
L 488.571429 437.902364 
L 490.267477 437.902364 
L 491.963526 437.902364 
L 493.659574 437.902364 
L 495.355623 437.902364 
L 497.051672 437.902364 
L 498.74772 437.902364 
L 500.443769 437.902364 
L 502.139818 437.902364 
L 503.835866 437.902364 
L 505.531915 437.902364 
L 507.227964 437.902364 
L 508.924012 437.902364 
L 510.620061 437.902364 
L 512.316109 437.902364 
L 514.012158 437.902364 
L 515.708207 437.902364 
L 517.404255 437.902364 
L 519.100304 437.902364 
L 520.796353 437.902364 
L 522.492401 437.902364 
L 524.18845 437.902364 
L 525.884498 437.902364 
L 527.580547 437.902364 
L 529.276596 437.902364 
L 530.972644 437.902364 
L 532.668693 437.902364 
L 534.364742 437.902364 
L 536.06079 437.902364 
L 537.756839 437.902364 
L 539.452888 437.902364 
L 541.148936 437.902364 
L 542.844985 437.902364 
L 544.541033 437.902364 
L 546.237082 437.902364 
L 547.933131 437.902364 
L 549.629179 437.902364 
L 551.325228 437.902364 
L 553.021277 437.902364 
L 554.717325 437.902364 
L 556.413374 437.902364 
L 558.109422 437.902364 
L 559.805471 437.902364 
L 561.50152 437.902364 
L 563.197568 437.902364 
L 564.893617 437.902364 
L 566.589666 437.902364 
L 568.285714 437.902364 
L 569.981763 437.902364 
L 571.677812 437.902364 
L 573.37386 437.902364 
L 575.069909 437.902364 
L 576.765957 437.902364 
L 578.462006 437.902364 
L 580.158055 437.902364 
L 581.854103 437.902364 
L 583.550152 437.902364 
L 585.246201 437.902364 
L 586.942249 437.902364 
L 588.638298 437.902364 
L 590.334347 437.902364 
L 592.030395 437.902364 
L 593.726444 437.902364 
L 595.422492 437.902364 
L 597.118541 437.902364 
L 598.81459 437.902364 
L 600.510638 437.902364 
L 602.206687 437.902364 
L 603.902736 437.902364 
L 605.598784 437.902364 
L 607.294833 437.902364 
L 608.990881 437.902364 
L 610.68693 437.902364 
L 612.382979 437.902364 
L 614.079027 437.902364 
L 615.775076 437.902364 
L 617.471125 437.902364 
L 619.167173 437.902364 
L 620.863222 437.902364 
L 622.559271 437.902364 
L 624.255319 437.902364 
L 625.951368 437.902364 
L 627.647416 437.902364 
L 629.343465 437.902364 
L 631.039514 437.902364 
L 632.735562 437.902364 
L 634.431611 437.902364 
L 636.12766 437.902364 
L 637.823708 437.902364 
L 639.519757 437.902364 
L 641.215805 437.902364 
L 642.911854 437.902364 
L 644.607903 437.902364 
L 646.303951 437.902364 
L 648 437.902364 
L 648 436.223036 
L 648 434.543709 
L 648 432.864381 
L 648 431.185054 
L 648 429.505726 
L 648 427.826399 
L 648 426.147071 
L 648 424.467743 
L 648 422.788416 
L 648 421.109088 
L 648 419.429761 
L 648 417.750433 
L 648 416.071106 
L 648 414.391778 
L 648 412.712451 
L 648 411.033123 
L 648 409.353796 
L 648 407.674468 
L 648 405.995141 
L 648 404.315813 
L 648 402.636486 
L 648 400.957158 
L 648 399.277831 
L 648 397.598503 
L 648 395.919176 
L 648 394.239848 
L 648 392.560521 
L 648 390.881193 
L 648 389.201866 
L 648 387.522538 
L 648 385.84321 
L 648 384.163883 
L 648 382.484555 
L 648 380.805228 
L 648 379.1259 
L 648 377.446573 
L 648 375.767245 
L 648 374.087918 
L 648 372.40859 
L 648 370.729263 
L 648 369.049935 
L 648 367.370608 
L 648 365.69128 
L 648 364.011953 
L 648 362.332625 
L 648 360.653298 
L 648 358.97397 
L 648 357.294643 
L 648 355.615315 
L 648 353.935988 
L 648 352.25666 
L 648 350.577333 
L 648 348.898005 
L 648 347.218677 
L 648 345.53935 
L 648 343.860022 
L 648 342.180695 
L 648 340.501367 
L 648 338.82204 
L 648 337.142712 
L 648 335.463385 
L 648 333.784057 
L 648 332.10473 
L 648 330.425402 
L 648 328.746075 
L 648 327.066747 
L 648 325.38742 
L 648 323.708092 
L 648 322.028765 
L 648 320.349437 
L 648 318.67011 
L 648 316.990782 
L 648 315.311455 
L 648 313.632127 
L 648 311.9528 
L 648 310.273472 
L 648 308.594144 
L 648 306.914817 
L 648 305.235489 
L 648 303.556162 
L 648 301.876834 
L 648 300.197507 
L 648 298.518179 
L 648 296.838852 
L 648 295.159524 
L 648 293.480197 
L 648 291.800869 
L 648 290.121542 
L 648 288.442214 
L 648 286.762887 
L 648 285.083559 
L 648 283.404232 
L 648 281.724904 
L 648 280.045577 
L 648 278.366249 
L 648 276.686922 
L 648 275.007594 
L 648 273.328267 
L 648 271.648939 
L 648 269.969611 
L 648 268.290284 
L 648 266.610956 
L 648 264.931629 
L 648 263.252301 
L 648 261.572974 
L 648 259.893646 
L 648 258.214319 
L 648 256.534991 
L 648 254.855664 
L 648 253.176336 
L 648 251.497009 
L 648 249.817681 
L 648 248.138354 
L 648 246.459026 
L 648 244.779699 
L 648 243.100371 
L 648 241.421044 
L 648 239.741716 
L 648 238.062389 
L 648 236.383061 
L 648 234.703733 
L 648 233.024406 
L 648 231.345078 
L 648 229.665751 
L 648 227.986423 
L 648 226.307096 
L 648 224.627768 
L 648 222.948441 
L 648 221.269113 
L 648 219.589786 
L 648 217.910458 
L 648 216.231131 
L 648 214.551803 
L 648 212.872476 
L 648 211.193148 
L 648 209.513821 
L 648 207.834493 
L 648 206.155166 
L 648 204.475838 
L 648 202.796511 
L 648 201.117183 
L 648 199.437856 
L 648 197.758528 
L 648 196.0792 
L 648 194.399873 
L 648 192.720545 
L 648 191.041218 
L 648 189.36189 
L 648 187.682563 
L 648 186.003235 
L 648 184.323908 
L 648 182.64458 
L 648 180.965253 
L 648 179.285925 
L 648 177.606598 
L 648 175.92727 
L 648 174.247943 
L 648 172.568615 
L 648 170.889288 
L 648 169.20996 
L 648 167.530633 
L 648 165.851305 
L 648 164.171978 
L 648 162.49265 
L 648 160.813323 
L 648 159.133995 
L 648 157.454667 
L 648 155.77534 
L 648 154.096012 
L 648 152.416685 
L 648 150.737357 
L 648 149.05803 
L 648 147.378702 
L 648 145.699375 
L 648 144.020047 
L 648 142.34072 
L 648 140.661392 
L 648 138.982065 
L 648 137.302737 
L 648 135.62341 
L 648 133.944082 
L 648 132.264755 
L 648 130.585427 
L 648 128.9061 
L 648 127.226772 
L 648 125.547445 
L 648 123.868117 
L 648 122.18879 
L 648 120.509462 
L 648 118.830134 
L 648 117.150807 
L 648 115.471479 
L 648 113.792152 
L 648 112.112824 
L 648 110.433497 
L 648 108.754169 
L 648 107.074842 
L 648 105.395514 
L 648 103.716187 
L 648 102.036859 
L 648 100.357532 
L 648 98.678204 
L 648 96.998877 
L 648 95.319549 
L 648 93.640222 
L 648 91.960894 
L 648 90.281567 
L 648 88.602239 
L 648 86.922912 
L 648 85.243584 
L 648 83.564257 
L 648 81.884929 
L 648 80.205601 
L 648 78.526274 
L 648 76.846946 
L 648 75.167619 
L 648 73.488291 
L 648 71.808964 
L 648 70.129636 
L 646.303951 70.129636 
L 644.607903 70.129636 
L 642.911854 70.129636 
L 641.215805 70.129636 
L 639.519757 70.129636 
L 637.823708 70.129636 
L 636.12766 70.129636 
L 634.431611 70.129636 
L 632.735562 70.129636 
L 631.039514 70.129636 
L 629.343465 70.129636 
L 627.647416 70.129636 
L 625.951368 70.129636 
L 624.255319 70.129636 
L 622.559271 70.129636 
L 620.863222 70.129636 
L 619.167173 70.129636 
L 617.471125 70.129636 
L 615.775076 70.129636 
L 614.079027 70.129636 
L 612.382979 70.129636 
L 610.68693 70.129636 
L 608.990881 70.129636 
L 607.294833 70.129636 
L 605.598784 70.129636 
L 603.902736 70.129636 
L 602.206687 70.129636 
L 600.510638 70.129636 
L 598.81459 70.129636 
L 597.118541 70.129636 
L 595.422492 70.129636 
L 593.726444 70.129636 
L 592.030395 70.129636 
L 590.334347 70.129636 
L 588.638298 70.129636 
L 586.942249 70.129636 
L 585.246201 70.129636 
L 583.550152 70.129636 
L 581.854103 70.129636 
L 580.158055 70.129636 
L 578.462006 70.129636 
L 576.765957 70.129636 
L 575.069909 70.129636 
L 573.37386 70.129636 
L 571.677812 70.129636 
L 569.981763 70.129636 
L 568.285714 70.129636 
L 566.589666 70.129636 
L 564.893617 70.129636 
L 563.197568 70.129636 
L 561.50152 70.129636 
L 559.805471 70.129636 
L 558.109422 70.129636 
L 556.413374 70.129636 
L 554.717325 70.129636 
L 553.021277 70.129636 
L 551.325228 70.129636 
L 549.629179 70.129636 
L 547.933131 70.129636 
L 546.237082 70.129636 
L 544.541033 70.129636 
L 542.844985 70.129636 
L 541.148936 70.129636 
L 539.452888 70.129636 
L 537.756839 70.129636 
L 536.06079 70.129636 
L 534.364742 70.129636 
L 532.668693 70.129636 
L 530.972644 70.129636 
L 529.276596 70.129636 
L 527.580547 70.129636 
L 525.884498 70.129636 
L 524.18845 70.129636 
L 522.492401 70.129636 
L 520.796353 70.129636 
L 519.100304 70.129636 
L 517.404255 70.129636 
L 515.708207 70.129636 
L 514.012158 70.129636 
L 512.316109 70.129636 
L 510.620061 70.129636 
L 508.924012 70.129636 
L 507.227964 70.129636 
L 505.531915 70.129636 
L 503.835866 70.129636 
L 502.139818 70.129636 
L 500.443769 70.129636 
L 498.74772 70.129636 
L 497.051672 70.129636 
L 495.355623 70.129636 
L 493.659574 70.129636 
L 491.963526 70.129636 
L 491.115502 70.129636 
L 491.115502 71.808964 
L 490.267477 72.648628 
L 489.419453 73.488291 
L 489.419453 75.167619 
L 489.419453 76.846946 
L 489.419453 78.526274 
L 489.419453 80.205601 
L 489.419453 81.884929 
L 488.571429 82.724593 
L 487.723404 83.564257 
L 487.723404 85.243584 
L 487.723404 86.922912 
L 487.723404 88.602239 
L 487.723404 90.281567 
L 487.723404 91.960894 
L 486.87538 92.800558 
L 486.027356 93.640222 
L 486.027356 95.319549 
L 486.027356 96.998877 
L 486.027356 98.678204 
L 486.027356 100.357532 
L 486.027356 102.036859 
L 486.027356 103.716187 
L 486.027356 105.395514 
L 486.027356 107.074842 
L 486.027356 108.754169 
L 485.179331 109.593833 
L 484.331307 110.433497 
L 484.331307 112.112824 
L 484.331307 113.792152 
L 484.331307 115.471479 
L 484.331307 117.150807 
L 484.331307 118.830134 
L 484.331307 120.509462 
L 484.331307 122.18879 
L 484.331307 123.868117 
L 484.331307 125.547445 
L 483.483283 126.387108 
L 482.635258 127.226772 
L 482.635258 128.9061 
L 482.635258 130.585427 
L 482.635258 132.264755 
L 482.635258 133.944082 
L 481.787234 134.783746 
L 480.93921 135.62341 
L 480.93921 137.302737 
L 480.091185 138.142401 
L 479.243161 138.982065 
L 479.243161 140.661392 
L 478.395137 141.501056 
L 477.547112 142.34072 
L 477.547112 144.020047 
L 477.547112 145.699375 
L 477.547112 147.378702 
L 476.699088 148.218366 
L 475.851064 149.05803 
L 475.851064 150.737357 
L 476.699088 151.577021 
L 477.547112 152.416685 
L 476.699088 153.256349 
L 475.851064 154.096012 
L 475.851064 155.77534 
L 475.851064 157.454667 
L 475.851064 159.133995 
L 475.851064 160.813323 
L 475.851064 162.49265 
L 475.851064 164.171978 
L 475.00304 165.011641 
L 474.155015 165.851305 
L 474.155015 167.530633 
L 475.00304 168.370296 
L 475.851064 169.20996 
L 475.851064 170.889288 
L 475.851064 172.568615 
L 475.851064 174.247943 
L 475.851064 175.92727 
L 476.699088 176.766934 
L 477.547112 177.606598 
L 477.547112 179.285925 
L 477.547112 180.965253 
L 477.547112 182.64458 
L 477.547112 184.323908 
L 477.547112 186.003235 
L 477.547112 187.682563 
L 477.547112 189.36189 
L 477.547112 191.041218 
L 477.547112 192.720545 
L 477.547112 194.399873 
L 477.547112 196.0792 
L 476.699088 196.918864 
L 475.851064 197.758528 
L 475.851064 199.437856 
L 475.851064 201.117183 
L 475.851064 202.796511 
L 475.851064 204.475838 
L 475.851064 206.155166 
L 475.851064 207.834493 
L 476.699088 208.674157 
L 477.547112 209.513821 
L 477.547112 211.193148 
L 477.547112 212.872476 
L 477.547112 214.551803 
L 477.547112 216.231131 
L 477.547112 217.910458 
L 477.547112 219.589786 
L 477.547112 221.269113 
L 477.547112 222.948441 
L 477.547112 224.627768 
L 477.547112 226.307096 
L 477.547112 227.986423 
L 477.547112 229.665751 
L 478.395137 230.505415 
L 479.243161 231.345078 
L 480.091185 232.184742 
L 481.787234 232.184742 
L 482.635258 233.024406 
L 483.483283 233.86407 
L 484.331307 234.703733 
L 484.331307 236.383061 
L 484.331307 238.062389 
L 484.331307 239.741716 
L 484.331307 241.421044 
L 484.331307 243.100371 
L 484.331307 244.779699 
L 484.331307 246.459026 
L 484.331307 248.138354 
L 484.331307 249.817681 
L 484.331307 251.497009 
L 484.331307 253.176336 
L 484.331307 254.855664 
L 484.331307 256.534991 
L 484.331307 258.214319 
L 484.331307 259.893646 
L 484.331307 261.572974 
L 485.179331 262.412638 
L 486.027356 263.252301 
L 485.179331 264.091965 
L 484.331307 264.931629 
L 484.331307 266.610956 
L 484.331307 268.290284 
L 485.179331 269.129948 
L 486.027356 269.969611 
L 486.027356 271.648939 
L 486.87538 272.488603 
L 487.723404 273.328267 
L 487.723404 275.007594 
L 487.723404 276.686922 
L 486.87538 277.526585 
L 486.027356 278.366249 
L 486.027356 280.045577 
L 485.179331 280.88524 
L 483.483283 280.88524 
L 482.635258 281.724904 
L 481.787234 282.564568 
L 480.93921 283.404232 
L 480.091185 284.243895 
L 479.243161 285.083559 
L 478.395137 285.923223 
L 477.547112 286.762887 
L 476.699088 287.60255 
L 475.00304 287.60255 
L 473.306991 287.60255 
L 472.458967 288.442214 
L 471.610942 289.281878 
L 469.914894 289.281878 
L 468.218845 289.281878 
L 466.522796 289.281878 
L 465.674772 288.442214 
L 465.674772 286.762887 
L 465.674772 285.083559 
L 464.826748 284.243895 
L 463.978723 285.083559 
L 463.130699 285.923223 
L 461.43465 285.923223 
L 460.586626 286.762887 
L 460.586626 288.442214 
L 459.738602 289.281878 
L 458.042553 289.281878 
L 456.346505 289.281878 
L 454.650456 289.281878 
L 453.802432 290.121542 
L 452.954407 290.961205 
L 452.106383 291.800869 
L 451.258359 292.640533 
L 450.410334 293.480197 
L 449.56231 294.319861 
L 448.714286 293.480197 
L 447.866261 292.640533 
L 447.018237 291.800869 
L 446.170213 290.961205 
L 444.474164 290.961205 
L 442.778116 290.961205 
L 441.082067 290.961205 
L 439.386018 290.961205 
L 438.537994 291.800869 
L 437.68997 292.640533 
L 435.993921 292.640533 
L 435.145897 291.800869 
L 434.297872 290.961205 
L 433.449848 290.121542 
L 432.601824 289.281878 
L 431.753799 288.442214 
L 430.905775 287.60255 
L 429.209726 287.60255 
L 427.513678 287.60255 
L 426.665653 286.762887 
L 425.817629 285.923223 
L 424.969605 286.762887 
L 424.121581 287.60255 
L 422.425532 287.60255 
L 421.577508 288.442214 
L 420.729483 289.281878 
L 419.033435 289.281878 
L 418.18541 290.121542 
L 417.337386 290.961205 
L 416.489362 291.800869 
L 415.641337 292.640533 
L 414.793313 293.480197 
L 413.945289 294.319861 
L 413.097264 295.159524 
L 412.24924 295.999188 
L 411.401216 296.838852 
L 410.553191 297.678516 
L 409.705167 298.518179 
L 408.857143 299.357843 
L 407.161094 299.357843 
L 406.31307 298.518179 
L 406.31307 296.838852 
L 405.465046 295.999188 
L 404.617021 295.159524 
L 403.768997 294.319861 
L 402.920973 295.159524 
L 402.072948 295.999188 
L 401.224924 295.159524 
L 400.3769 294.319861 
L 399.528875 293.480197 
L 398.680851 292.640533 
L 397.832827 291.800869 
L 396.984802 290.961205 
L 396.136778 290.121542 
L 395.288754 289.281878 
L 394.440729 288.442214 
L 393.592705 287.60255 
L 392.744681 286.762887 
L 392.744681 285.083559 
L 392.744681 283.404232 
L 392.744681 281.724904 
L 391.896657 280.88524 
L 391.048632 280.045577 
L 390.200608 279.205913 
L 389.352584 278.366249 
L 388.504559 277.526585 
L 387.656535 276.686922 
L 386.808511 275.847258 
L 385.960486 275.007594 
L 385.112462 274.16793 
L 384.264438 273.328267 
L 384.264438 271.648939 
L 383.416413 270.809275 
L 382.568389 269.969611 
L 382.568389 268.290284 
L 382.568389 266.610956 
L 381.720365 265.771293 
L 380.87234 264.931629 
L 380.024316 264.091965 
L 378.328267 264.091965 
L 377.480243 263.252301 
L 377.480243 261.572974 
L 377.480243 259.893646 
L 376.632219 259.053983 
L 375.784195 258.214319 
L 375.784195 256.534991 
L 375.784195 254.855664 
L 374.93617 254.016 
L 374.088146 254.855664 
L 373.240122 255.695328 
L 371.544073 255.695328 
L 370.696049 254.855664 
L 369.848024 254.016 
L 369 253.176336 
L 368.151976 252.336672 
L 366.455927 252.336672 
L 365.607903 251.497009 
L 364.759878 250.657345 
L 363.911854 249.817681 
L 363.06383 248.978017 
L 362.215805 248.138354 
L 362.215805 246.459026 
L 362.215805 244.779699 
L 361.367781 243.940035 
L 359.671733 243.940035 
L 358.823708 243.100371 
L 357.975684 242.260707 
L 356.279635 242.260707 
L 355.431611 241.421044 
L 354.583587 240.58138 
L 353.735562 239.741716 
L 353.735562 238.062389 
L 353.735562 236.383061 
L 353.735562 234.703733 
L 353.735562 233.024406 
L 353.735562 231.345078 
L 352.887538 230.505415 
L 352.039514 229.665751 
L 352.039514 227.986423 
L 351.191489 227.14676 
L 350.343465 226.307096 
L 350.343465 224.627768 
L 350.343465 222.948441 
L 349.495441 222.108777 
L 348.647416 221.269113 
L 347.799392 220.42945 
L 346.103343 220.42945 
L 345.255319 221.269113 
L 344.407295 222.108777 
L 342.711246 222.108777 
L 341.015198 222.108777 
L 340.167173 221.269113 
L 339.319149 220.42945 
L 338.471125 219.589786 
L 337.6231 218.750122 
L 336.775076 217.910458 
L 335.927052 217.070795 
L 335.079027 216.231131 
L 334.231003 215.391467 
L 333.382979 214.551803 
L 332.534954 213.712139 
L 331.68693 212.872476 
L 330.838906 212.032812 
L 329.990881 211.193148 
L 329.142857 210.353484 
L 327.446809 210.353484 
L 326.598784 209.513821 
L 325.75076 208.674157 
L 324.902736 209.513821 
L 324.054711 210.353484 
L 322.358663 210.353484 
L 320.662614 210.353484 
L 318.966565 210.353484 
L 318.118541 211.193148 
L 317.270517 212.032812 
L 315.574468 212.032812 
L 313.878419 212.032812 
L 312.182371 212.032812 
L 310.486322 212.032812 
L 309.638298 212.872476 
L 308.790274 213.712139 
L 307.094225 213.712139 
L 306.246201 212.872476 
L 305.398176 212.032812 
L 304.550152 212.872476 
L 303.702128 213.712139 
L 302.006079 213.712139 
L 300.31003 213.712139 
L 298.613982 213.712139 
L 297.765957 214.551803 
L 296.917933 215.391467 
L 296.069909 216.231131 
L 296.069909 217.910458 
L 296.069909 219.589786 
L 296.069909 221.269113 
L 295.221884 222.108777 
L 294.37386 222.948441 
L 293.525836 223.788105 
L 291.829787 223.788105 
L 290.981763 224.627768 
L 290.133739 225.467432 
L 289.285714 226.307096 
L 288.43769 227.14676 
L 287.589666 227.986423 
L 286.741641 228.826087 
L 285.893617 229.665751 
L 285.893617 231.345078 
L 285.893617 233.024406 
L 285.045593 233.86407 
L 284.197568 234.703733 
L 283.349544 235.543397 
L 281.653495 235.543397 
L 279.957447 235.543397 
L 279.109422 236.383061 
L 278.261398 237.222725 
L 277.413374 238.062389 
L 276.56535 238.902052 
L 275.717325 239.741716 
L 275.717325 241.421044 
L 274.869301 242.260707 
L 273.173252 242.260707 
L 272.325228 243.100371 
L 271.477204 243.940035 
L 269.781155 243.940035 
L 268.933131 244.779699 
L 268.085106 245.619362 
L 266.389058 245.619362 
L 264.693009 245.619362 
L 263.844985 246.459026 
L 262.99696 247.29869 
L 261.300912 247.29869 
L 259.604863 247.29869 
L 258.756839 248.138354 
L 257.908815 248.978017 
L 256.212766 248.978017 
L 255.364742 249.817681 
L 254.516717 250.657345 
L 253.668693 251.497009 
L 252.820669 252.336672 
L 251.972644 253.176336 
L 251.972644 254.855664 
L 251.12462 255.695328 
L 250.276596 256.534991 
L 249.428571 257.374655 
L 248.580547 258.214319 
L 248.580547 259.893646 
L 248.580547 261.572974 
L 248.580547 263.252301 
L 248.580547 264.931629 
L 248.580547 266.610956 
L 248.580547 268.290284 
L 247.732523 269.129948 
L 246.884498 269.969611 
L 246.036474 270.809275 
L 245.18845 271.648939 
L 245.18845 273.328267 
L 245.18845 275.007594 
L 244.340426 275.847258 
L 243.492401 276.686922 
L 243.492401 278.366249 
L 243.492401 280.045577 
L 243.492401 281.724904 
L 242.644377 282.564568 
L 241.796353 283.404232 
L 241.796353 285.083559 
L 241.796353 286.762887 
L 240.948328 287.60255 
L 240.100304 288.442214 
L 240.100304 290.121542 
L 239.25228 290.961205 
L 238.404255 291.800869 
L 238.404255 293.480197 
L 238.404255 295.159524 
L 238.404255 296.838852 
L 237.556231 297.678516 
L 236.708207 298.518179 
L 236.708207 300.197507 
L 236.708207 301.876834 
L 235.860182 302.716498 
L 235.012158 303.556162 
L 235.012158 305.235489 
L 235.012158 306.914817 
L 234.164134 307.754481 
L 233.316109 308.594144 
L 233.316109 310.273472 
L 233.316109 311.9528 
L 232.468085 312.792463 
L 231.620061 313.632127 
L 231.620061 315.311455 
L 231.620061 316.990782 
L 230.772036 317.830446 
L 229.924012 318.67011 
L 229.075988 319.509773 
L 228.227964 320.349437 
L 227.379939 321.189101 
L 226.531915 322.028765 
L 226.531915 323.708092 
L 225.683891 324.547756 
L 224.835866 325.38742 
L 223.987842 326.227083 
L 223.139818 327.066747 
L 223.139818 328.746075 
L 222.291793 329.585738 
L 220.595745 329.585738 
L 219.74772 330.425402 
L 218.899696 331.265066 
L 218.051672 332.10473 
L 217.203647 332.944394 
L 216.355623 333.784057 
L 215.507599 334.623721 
L 213.81155 334.623721 
L 212.963526 335.463385 
L 212.115502 336.303049 
L 211.267477 337.142712 
L 210.419453 337.982376 
L 209.571429 338.82204 
L 208.723404 339.661704 
L 207.027356 339.661704 
L 206.179331 340.501367 
L 205.331307 341.341031 
L 204.483283 342.180695 
L 203.635258 343.020359 
L 202.787234 343.860022 
L 201.93921 344.699686 
L 200.243161 344.699686 
L 199.395137 345.53935 
L 198.547112 346.379014 
L 197.699088 347.218677 
L 197.699088 348.898005 
L 196.851064 349.737669 
L 196.00304 350.577333 
L 196.00304 352.25666 
L 195.155015 353.096324 
L 194.306991 353.935988 
L 194.306991 355.615315 
L 193.458967 356.454979 
L 192.610942 357.294643 
L 192.610942 358.97397 
L 191.762918 359.813634 
L 190.914894 360.653298 
L 190.914894 362.332625 
L 190.066869 363.172289 
L 189.218845 364.011953 
L 189.218845 365.69128 
L 188.370821 366.530944 
L 187.522796 367.370608 
L 187.522796 369.049935 
L 186.674772 369.889599 
L 185.826748 370.729263 
L 185.826748 372.40859 
L 184.978723 373.248254 
L 184.130699 374.087918 
L 184.130699 375.767245 
L 183.282675 376.606909 
L 182.43465 377.446573 
L 182.43465 379.1259 
L 181.586626 379.965564 
L 180.738602 380.805228 
L 180.738602 382.484555 
L 179.890578 383.324219 
L 179.042553 384.163883 
L 178.194529 385.003547 
L 177.346505 385.84321 
L 177.346505 387.522538 
L 176.49848 388.362202 
L 175.650456 389.201866 
L 175.650456 390.881193 
L 174.802432 391.720857 
L 173.954407 392.560521 
L 173.954407 394.239848 
L 173.106383 395.079512 
L 172.258359 395.919176 
L 172.258359 397.598503 
L 171.410334 398.438167 
L 170.56231 399.277831 
L 170.56231 400.957158 
L 169.714286 401.796822 
L 168.866261 402.636486 
L 168.866261 404.315813 
L 168.018237 405.155477 
L 167.170213 405.995141 
L 167.170213 407.674468 
L 166.322188 408.514132 
L 165.474164 409.353796 
L 165.474164 411.033123 
L 164.62614 411.872787 
L 163.778116 412.712451 
L 163.778116 414.391778 
L 162.930091 415.231442 
L 162.082067 416.071106 
L 162.082067 417.750433 
L 161.234043 418.590097 
L 160.386018 419.429761 
L 160.386018 421.109088 
L 159.537994 421.948752 
L 158.68997 422.788416 
L 157.841945 423.62808 
L 156.993921 424.467743 
L 156.993921 426.147071 
L 156.145897 426.986735 
L 155.297872 427.826399 
L 155.297872 429.505726 
L 154.449848 430.34539 
L 153.601824 431.185054 
L 153.601824 432.864381 
L 152.753799 433.704045 
L 151.905775 434.543709 
L 151.905775 436.223036 
L 151.057751 437.0627 
L 150.209726 437.902364 
z
" clip-path="url(#pd0fb04bc2c)" style="fill: #fbe7d3; fill-opacity: 0.9"/>
   </g>
   <g id="matplotlib.axis_1">
    <g id="xtick_1">
     <g id="line2d_1">
      <path d="M 115.363636 437.902364 
L 115.363636 70.129636 
" clip-path="url(#pd0fb04bc2c)" style="fill: none; stroke: #d8dee4; stroke-opacity: 0.75; stroke-width: 0.7; stroke-linecap: square"/>
     </g>
     <g id="line2d_2">
      <defs>
       <path id="mb00f64647d" d="M 0 0 
L 0 3.5 
" style="stroke: #000000; stroke-width: 0.8"/>
      </defs>
      <g>
       <use xlink:href="#mb00f64647d" x="115.363636" y="437.902364" style="stroke: #000000; stroke-width: 0.8"/>
      </g>
     </g>
     <g id="text_1">
      <text style="font-size: 12px; font-family: 'DejaVu Sans', 'Bitstream Vera Sans', 'Computer Modern Sans Serif', 'Lucida Grande', 'Verdana', 'Geneva', 'Lucid', 'Arial', 'Helvetica', 'Avant Garde', sans-serif; text-anchor: middle" x="115.363636" y="454.019551" transform="rotate(-0 115.363636 454.019551)">−1.5</text>
     </g>
    </g>
    <g id="xtick_2">
     <g id="line2d_3">
      <path d="M 178.772727 437.902364 
L 178.772727 70.129636 
" clip-path="url(#pd0fb04bc2c)" style="fill: none; stroke: #d8dee4; stroke-opacity: 0.75; stroke-width: 0.7; stroke-linecap: square"/>
     </g>
     <g id="line2d_4">
      <g>
       <use xlink:href="#mb00f64647d" x="178.772727" y="437.902364" style="stroke: #000000; stroke-width: 0.8"/>
      </g>
     </g>
     <g id="text_2">
      <text style="font-size: 12px; font-family: 'DejaVu Sans', 'Bitstream Vera Sans', 'Computer Modern Sans Serif', 'Lucida Grande', 'Verdana', 'Geneva', 'Lucid', 'Arial', 'Helvetica', 'Avant Garde', sans-serif; text-anchor: middle" x="178.772727" y="454.019551" transform="rotate(-0 178.772727 454.019551)">−1.0</text>
     </g>
    </g>
    <g id="xtick_3">
     <g id="line2d_5">
      <path d="M 242.181818 437.902364 
L 242.181818 70.129636 
" clip-path="url(#pd0fb04bc2c)" style="fill: none; stroke: #d8dee4; stroke-opacity: 0.75; stroke-width: 0.7; stroke-linecap: square"/>
     </g>
     <g id="line2d_6">
      <g>
       <use xlink:href="#mb00f64647d" x="242.181818" y="437.902364" style="stroke: #000000; stroke-width: 0.8"/>
      </g>
     </g>
     <g id="text_3">
      <text style="font-size: 12px; font-family: 'DejaVu Sans', 'Bitstream Vera Sans', 'Computer Modern Sans Serif', 'Lucida Grande', 'Verdana', 'Geneva', 'Lucid', 'Arial', 'Helvetica', 'Avant Garde', sans-serif; text-anchor: middle" x="242.181818" y="454.019551" transform="rotate(-0 242.181818 454.019551)">−0.5</text>
     </g>
    </g>
    <g id="xtick_4">
     <g id="line2d_7">
      <path d="M 305.590909 437.902364 
L 305.590909 70.129636 
" clip-path="url(#pd0fb04bc2c)" style="fill: none; stroke: #d8dee4; stroke-opacity: 0.75; stroke-width: 0.7; stroke-linecap: square"/>
     </g>
     <g id="line2d_8">
      <g>
       <use xlink:href="#mb00f64647d" x="305.590909" y="437.902364" style="stroke: #000000; stroke-width: 0.8"/>
      </g>
     </g>
     <g id="text_4">
      <text style="font-size: 12px; font-family: 'DejaVu Sans', 'Bitstream Vera Sans', 'Computer Modern Sans Serif', 'Lucida Grande', 'Verdana', 'Geneva', 'Lucid', 'Arial', 'Helvetica', 'Avant Garde', sans-serif; text-anchor: middle" x="305.590909" y="454.019551" transform="rotate(-0 305.590909 454.019551)">0.0</text>
     </g>
    </g>
    <g id="xtick_5">
     <g id="line2d_9">
      <path d="M 369 437.902364 
L 369 70.129636 
" clip-path="url(#pd0fb04bc2c)" style="fill: none; stroke: #d8dee4; stroke-opacity: 0.75; stroke-width: 0.7; stroke-linecap: square"/>
     </g>
     <g id="line2d_10">
      <g>
       <use xlink:href="#mb00f64647d" x="369" y="437.902364" style="stroke: #000000; stroke-width: 0.8"/>
      </g>
     </g>
     <g id="text_5">
      <text style="font-size: 12px; font-family: 'DejaVu Sans', 'Bitstream Vera Sans', 'Computer Modern Sans Serif', 'Lucida Grande', 'Verdana', 'Geneva', 'Lucid', 'Arial', 'Helvetica', 'Avant Garde', sans-serif; text-anchor: middle" x="369" y="454.019551" transform="rotate(-0 369 454.019551)">0.5</text>
     </g>
    </g>
    <g id="xtick_6">
     <g id="line2d_11">
      <path d="M 432.409091 437.902364 
L 432.409091 70.129636 
" clip-path="url(#pd0fb04bc2c)" style="fill: none; stroke: #d8dee4; stroke-opacity: 0.75; stroke-width: 0.7; stroke-linecap: square"/>
     </g>
     <g id="line2d_12">
      <g>
       <use xlink:href="#mb00f64647d" x="432.409091" y="437.902364" style="stroke: #000000; stroke-width: 0.8"/>
      </g>
     </g>
     <g id="text_6">
      <text style="font-size: 12px; font-family: 'DejaVu Sans', 'Bitstream Vera Sans', 'Computer Modern Sans Serif', 'Lucida Grande', 'Verdana', 'Geneva', 'Lucid', 'Arial', 'Helvetica', 'Avant Garde', sans-serif; text-anchor: middle" x="432.409091" y="454.019551" transform="rotate(-0 432.409091 454.019551)">1.0</text>
     </g>
    </g>
    <g id="xtick_7">
     <g id="line2d_13">
      <path d="M 495.818182 437.902364 
L 495.818182 70.129636 
" clip-path="url(#pd0fb04bc2c)" style="fill: none; stroke: #d8dee4; stroke-opacity: 0.75; stroke-width: 0.7; stroke-linecap: square"/>
     </g>
     <g id="line2d_14">
      <g>
       <use xlink:href="#mb00f64647d" x="495.818182" y="437.902364" style="stroke: #000000; stroke-width: 0.8"/>
      </g>
     </g>
     <g id="text_7">
      <text style="font-size: 12px; font-family: 'DejaVu Sans', 'Bitstream Vera Sans', 'Computer Modern Sans Serif', 'Lucida Grande', 'Verdana', 'Geneva', 'Lucid', 'Arial', 'Helvetica', 'Avant Garde', sans-serif; text-anchor: middle" x="495.818182" y="454.019551" transform="rotate(-0 495.818182 454.019551)">1.5</text>
     </g>
    </g>
    <g id="xtick_8">
     <g id="line2d_15">
      <path d="M 559.227273 437.902364 
L 559.227273 70.129636 
" clip-path="url(#pd0fb04bc2c)" style="fill: none; stroke: #d8dee4; stroke-opacity: 0.75; stroke-width: 0.7; stroke-linecap: square"/>
     </g>
     <g id="line2d_16">
      <g>
       <use xlink:href="#mb00f64647d" x="559.227273" y="437.902364" style="stroke: #000000; stroke-width: 0.8"/>
      </g>
     </g>
     <g id="text_8">
      <text style="font-size: 12px; font-family: 'DejaVu Sans', 'Bitstream Vera Sans', 'Computer Modern Sans Serif', 'Lucida Grande', 'Verdana', 'Geneva', 'Lucid', 'Arial', 'Helvetica', 'Avant Garde', sans-serif; text-anchor: middle" x="559.227273" y="454.019551" transform="rotate(-0 559.227273 454.019551)">2.0</text>
     </g>
    </g>
    <g id="xtick_9">
     <g id="line2d_17">
      <path d="M 622.636364 437.902364 
L 622.636364 70.129636 
" clip-path="url(#pd0fb04bc2c)" style="fill: none; stroke: #d8dee4; stroke-opacity: 0.75; stroke-width: 0.7; stroke-linecap: square"/>
     </g>
     <g id="line2d_18">
      <g>
       <use xlink:href="#mb00f64647d" x="622.636364" y="437.902364" style="stroke: #000000; stroke-width: 0.8"/>
      </g>
     </g>
     <g id="text_9">
      <text style="font-size: 12px; font-family: 'DejaVu Sans', 'Bitstream Vera Sans', 'Computer Modern Sans Serif', 'Lucida Grande', 'Verdana', 'Geneva', 'Lucid', 'Arial', 'Helvetica', 'Avant Garde', sans-serif; text-anchor: middle" x="622.636364" y="454.019551" transform="rotate(-0 622.636364 454.019551)">2.5</text>
     </g>
    </g>
    <g id="text_10">
     <text style="font-size: 12px; font-family: 'DejaVu Sans', 'Bitstream Vera Sans', 'Computer Modern Sans Serif', 'Lucida Grande', 'Verdana', 'Geneva', 'Lucid', 'Arial', 'Helvetica', 'Avant Garde', sans-serif; text-anchor: middle" x="369" y="470.019551" transform="rotate(-0 369 470.019551)">Feature 1</text>
    </g>
   </g>
   <g id="matplotlib.axis_2">
    <g id="ytick_1">
     <g id="line2d_19">
      <path d="M 90 412.538727 
L 648 412.538727 
" clip-path="url(#pd0fb04bc2c)" style="fill: none; stroke: #d8dee4; stroke-opacity: 0.75; stroke-width: 0.7; stroke-linecap: square"/>
     </g>
     <g id="line2d_20">
      <defs>
       <path id="m88d11eecaf" d="M 0 0 
L -3.5 0 
" style="stroke: #000000; stroke-width: 0.8"/>
      </defs>
      <g>
       <use xlink:href="#m88d11eecaf" x="90" y="412.538727" style="stroke: #000000; stroke-width: 0.8"/>
      </g>
     </g>
     <g id="text_11">
      <text style="font-size: 12px; font-family: 'DejaVu Sans', 'Bitstream Vera Sans', 'Computer Modern Sans Serif', 'Lucida Grande', 'Verdana', 'Geneva', 'Lucid', 'Arial', 'Helvetica', 'Avant Garde', sans-serif; text-anchor: end" x="83" y="417.097321" transform="rotate(-0 83 417.097321)">−1.0</text>
     </g>
    </g>
    <g id="ytick_2">
     <g id="line2d_21">
      <path d="M 90 349.129636 
L 648 349.129636 
" clip-path="url(#pd0fb04bc2c)" style="fill: none; stroke: #d8dee4; stroke-opacity: 0.75; stroke-width: 0.7; stroke-linecap: square"/>
     </g>
     <g id="line2d_22">
      <g>
       <use xlink:href="#m88d11eecaf" x="90" y="349.129636" style="stroke: #000000; stroke-width: 0.8"/>
      </g>
     </g>
     <g id="text_12">
      <text style="font-size: 12px; font-family: 'DejaVu Sans', 'Bitstream Vera Sans', 'Computer Modern Sans Serif', 'Lucida Grande', 'Verdana', 'Geneva', 'Lucid', 'Arial', 'Helvetica', 'Avant Garde', sans-serif; text-anchor: end" x="83" y="353.68823" transform="rotate(-0 83 353.68823)">−0.5</text>
     </g>
    </g>
    <g id="ytick_3">
     <g id="line2d_23">
      <path d="M 90 285.720545 
L 648 285.720545 
" clip-path="url(#pd0fb04bc2c)" style="fill: none; stroke: #d8dee4; stroke-opacity: 0.75; stroke-width: 0.7; stroke-linecap: square"/>
     </g>
     <g id="line2d_24">
      <g>
       <use xlink:href="#m88d11eecaf" x="90" y="285.720545" style="stroke: #000000; stroke-width: 0.8"/>
      </g>
     </g>
     <g id="text_13">
      <text style="font-size: 12px; font-family: 'DejaVu Sans', 'Bitstream Vera Sans', 'Computer Modern Sans Serif', 'Lucida Grande', 'Verdana', 'Geneva', 'Lucid', 'Arial', 'Helvetica', 'Avant Garde', sans-serif; text-anchor: end" x="83" y="290.279139" transform="rotate(-0 83 290.279139)">0.0</text>
     </g>
    </g>
    <g id="ytick_4">
     <g id="line2d_25">
      <path d="M 90 222.311455 
L 648 222.311455 
" clip-path="url(#pd0fb04bc2c)" style="fill: none; stroke: #d8dee4; stroke-opacity: 0.75; stroke-width: 0.7; stroke-linecap: square"/>
     </g>
     <g id="line2d_26">
      <g>
       <use xlink:href="#m88d11eecaf" x="90" y="222.311455" style="stroke: #000000; stroke-width: 0.8"/>
      </g>
     </g>
     <g id="text_14">
      <text style="font-size: 12px; font-family: 'DejaVu Sans', 'Bitstream Vera Sans', 'Computer Modern Sans Serif', 'Lucida Grande', 'Verdana', 'Geneva', 'Lucid', 'Arial', 'Helvetica', 'Avant Garde', sans-serif; text-anchor: end" x="83" y="226.870048" transform="rotate(-0 83 226.870048)">0.5</text>
     </g>
    </g>
    <g id="ytick_5">
     <g id="line2d_27">
      <path d="M 90 158.902364 
L 648 158.902364 
" clip-path="url(#pd0fb04bc2c)" style="fill: none; stroke: #d8dee4; stroke-opacity: 0.75; stroke-width: 0.7; stroke-linecap: square"/>
     </g>
     <g id="line2d_28">
      <g>
       <use xlink:href="#m88d11eecaf" x="90" y="158.902364" style="stroke: #000000; stroke-width: 0.8"/>
      </g>
     </g>
     <g id="text_15">
      <text style="font-size: 12px; font-family: 'DejaVu Sans', 'Bitstream Vera Sans', 'Computer Modern Sans Serif', 'Lucida Grande', 'Verdana', 'Geneva', 'Lucid', 'Arial', 'Helvetica', 'Avant Garde', sans-serif; text-anchor: end" x="83" y="163.460957" transform="rotate(-0 83 163.460957)">1.0</text>
     </g>
    </g>
    <g id="ytick_6">
     <g id="line2d_29">
      <path d="M 90 95.493273 
L 648 95.493273 
" clip-path="url(#pd0fb04bc2c)" style="fill: none; stroke: #d8dee4; stroke-opacity: 0.75; stroke-width: 0.7; stroke-linecap: square"/>
     </g>
     <g id="line2d_30">
      <g>
       <use xlink:href="#m88d11eecaf" x="90" y="95.493273" style="stroke: #000000; stroke-width: 0.8"/>
      </g>
     </g>
     <g id="text_16">
      <text style="font-size: 12px; font-family: 'DejaVu Sans', 'Bitstream Vera Sans', 'Computer Modern Sans Serif', 'Lucida Grande', 'Verdana', 'Geneva', 'Lucid', 'Arial', 'Helvetica', 'Avant Garde', sans-serif; text-anchor: end" x="83" y="100.051866" transform="rotate(-0 83 100.051866)">1.5</text>
     </g>
    </g>
    <g id="text_17">
     <text style="font-size: 12px; font-family: 'DejaVu Sans', 'Bitstream Vera Sans', 'Computer Modern Sans Serif', 'Lucida Grande', 'Verdana', 'Geneva', 'Lucid', 'Arial', 'Helvetica', 'Avant Garde', sans-serif; text-anchor: middle" x="46.977812" y="254.016" transform="rotate(-90 46.977812 254.016)">Feature 2</text>
    </g>
   </g>
   <g id="QuadContourSet_2">
    <path d="M 491.115502 70.129636 
L 491.115502 71.808964 
L 489.419453 73.488291 
L 489.419453 81.884929 
L 487.723404 83.564257 
L 487.723404 91.960894 
L 486.027356 93.640222 
L 486.027356 108.754169 
L 484.331307 110.433497 
L 484.331307 125.547445 
L 482.635258 127.226772 
L 482.635258 133.944082 
L 480.93921 135.62341 
L 480.93921 137.302737 
L 479.243161 138.982065 
L 479.243161 140.661392 
L 477.547112 142.34072 
L 477.547112 147.378702 
L 475.851064 149.05803 
L 475.851064 150.737357 
L 477.547112 152.416685 
L 475.851064 154.096012 
L 475.851064 164.171978 
L 474.155015 165.851305 
L 474.155015 167.530633 
L 475.851064 169.20996 
L 475.851064 175.92727 
L 477.547112 177.606598 
L 477.547112 196.0792 
L 475.851064 197.758528 
L 475.851064 207.834493 
L 477.547112 209.513821 
L 477.547112 229.665751 
L 480.091185 232.184742 
L 481.787234 232.184742 
L 484.331307 234.703733 
L 484.331307 261.572974 
L 486.027356 263.252301 
L 484.331307 264.931629 
L 484.331307 268.290284 
L 486.027356 269.969611 
L 486.027356 271.648939 
L 487.723404 273.328267 
L 487.723404 276.686922 
L 486.027356 278.366249 
L 486.027356 280.045577 
L 485.179331 280.88524 
L 483.483283 280.88524 
L 476.699088 287.60255 
L 473.306991 287.60255 
L 471.610942 289.281878 
L 466.522796 289.281878 
L 465.674772 288.442214 
L 465.674772 285.083559 
L 464.826748 284.243895 
L 463.130699 285.923223 
L 461.43465 285.923223 
L 460.586626 286.762887 
L 460.586626 288.442214 
L 459.738602 289.281878 
L 454.650456 289.281878 
L 449.56231 294.319861 
L 446.170213 290.961205 
L 439.386018 290.961205 
L 437.68997 292.640533 
L 435.993921 292.640533 
L 430.905775 287.60255 
L 427.513678 287.60255 
L 425.817629 285.923223 
L 424.121581 287.60255 
L 422.425532 287.60255 
L 420.729483 289.281878 
L 419.033435 289.281878 
L 408.857143 299.357843 
L 407.161094 299.357843 
L 406.31307 298.518179 
L 406.31307 296.838852 
L 403.768997 294.319861 
L 402.072948 295.999188 
L 392.744681 286.762887 
L 392.744681 281.724904 
L 384.264438 273.328267 
L 384.264438 271.648939 
L 382.568389 269.969611 
L 382.568389 266.610956 
L 380.024316 264.091965 
L 378.328267 264.091965 
L 377.480243 263.252301 
L 377.480243 259.893646 
L 375.784195 258.214319 
L 375.784195 254.855664 
L 374.93617 254.016 
L 373.240122 255.695328 
L 371.544073 255.695328 
L 368.151976 252.336672 
L 366.455927 252.336672 
L 362.215805 248.138354 
L 362.215805 244.779699 
L 361.367781 243.940035 
L 359.671733 243.940035 
L 357.975684 242.260707 
L 356.279635 242.260707 
L 353.735562 239.741716 
L 353.735562 231.345078 
L 352.039514 229.665751 
L 352.039514 227.986423 
L 350.343465 226.307096 
L 350.343465 222.948441 
L 347.799392 220.42945 
L 346.103343 220.42945 
L 344.407295 222.108777 
L 341.015198 222.108777 
L 329.142857 210.353484 
L 327.446809 210.353484 
L 325.75076 208.674157 
L 324.054711 210.353484 
L 318.966565 210.353484 
L 317.270517 212.032812 
L 310.486322 212.032812 
L 308.790274 213.712139 
L 307.094225 213.712139 
L 305.398176 212.032812 
L 303.702128 213.712139 
L 298.613982 213.712139 
L 296.069909 216.231131 
L 296.069909 221.269113 
L 293.525836 223.788105 
L 291.829787 223.788105 
L 285.893617 229.665751 
L 285.893617 233.024406 
L 283.349544 235.543397 
L 279.957447 235.543397 
L 275.717325 239.741716 
L 275.717325 241.421044 
L 274.869301 242.260707 
L 273.173252 242.260707 
L 271.477204 243.940035 
L 269.781155 243.940035 
L 268.085106 245.619362 
L 264.693009 245.619362 
L 262.99696 247.29869 
L 259.604863 247.29869 
L 257.908815 248.978017 
L 256.212766 248.978017 
L 251.972644 253.176336 
L 251.972644 254.855664 
L 248.580547 258.214319 
L 248.580547 268.290284 
L 245.18845 271.648939 
L 245.18845 275.007594 
L 243.492401 276.686922 
L 243.492401 281.724904 
L 241.796353 283.404232 
L 241.796353 286.762887 
L 240.100304 288.442214 
L 240.100304 290.121542 
L 238.404255 291.800869 
L 238.404255 296.838852 
L 236.708207 298.518179 
L 236.708207 301.876834 
L 235.012158 303.556162 
L 235.012158 306.914817 
L 233.316109 308.594144 
L 233.316109 311.9528 
L 231.620061 313.632127 
L 231.620061 316.990782 
L 226.531915 322.028765 
L 226.531915 323.708092 
L 223.139818 327.066747 
L 223.139818 328.746075 
L 222.291793 329.585738 
L 220.595745 329.585738 
L 215.507599 334.623721 
L 213.81155 334.623721 
L 208.723404 339.661704 
L 207.027356 339.661704 
L 201.93921 344.699686 
L 200.243161 344.699686 
L 197.699088 347.218677 
L 197.699088 348.898005 
L 196.00304 350.577333 
L 196.00304 352.25666 
L 194.306991 353.935988 
L 194.306991 355.615315 
L 192.610942 357.294643 
L 192.610942 358.97397 
L 190.914894 360.653298 
L 190.914894 362.332625 
L 189.218845 364.011953 
L 189.218845 365.69128 
L 187.522796 367.370608 
L 187.522796 369.049935 
L 185.826748 370.729263 
L 185.826748 372.40859 
L 184.130699 374.087918 
L 184.130699 375.767245 
L 182.43465 377.446573 
L 182.43465 379.1259 
L 180.738602 380.805228 
L 180.738602 382.484555 
L 177.346505 385.84321 
L 177.346505 387.522538 
L 175.650456 389.201866 
L 175.650456 390.881193 
L 173.954407 392.560521 
L 173.954407 394.239848 
L 172.258359 395.919176 
L 172.258359 397.598503 
L 170.56231 399.277831 
L 170.56231 400.957158 
L 168.866261 402.636486 
L 168.866261 404.315813 
L 167.170213 405.995141 
L 167.170213 407.674468 
L 165.474164 409.353796 
L 165.474164 411.033123 
L 163.778116 412.712451 
L 163.778116 414.391778 
L 162.082067 416.071106 
L 162.082067 417.750433 
L 160.386018 419.429761 
L 160.386018 421.109088 
L 156.993921 424.467743 
L 156.993921 426.147071 
L 155.297872 427.826399 
L 155.297872 429.505726 
L 153.601824 431.185054 
L 153.601824 432.864381 
L 151.905775 434.543709 
L 151.905775 436.223036 
L 150.209726 437.902364 
L 150.209726 437.902364 
" clip-path="url(#pd0fb04bc2c)" style="fill: none; stroke: #57606a; stroke-width: 1.1"/>
   </g>
   <g id="patch_3">
    <path d="M 90 437.902364 
L 90 70.129636 
" style="fill: none; stroke: #000000; stroke-width: 0.8; stroke-linejoin: miter; stroke-linecap: square"/>
   </g>
   <g id="patch_4">
    <path d="M 90 437.902364 
L 648 437.902364 
" style="fill: none; stroke: #000000; stroke-width: 0.8; stroke-linejoin: miter; stroke-linecap: square"/>
   </g>
   <g id="text_18">
    <text style="font-weight: 700; font-size: 16px; font-family: 'DejaVu Sans', 'Bitstream Vera Sans', 'Computer Modern Sans Serif', 'Lucida Grande', 'Verdana', 'Geneva', 'Lucid', 'Arial', 'Helvetica', 'Avant Garde', sans-serif; text-anchor: middle" x="369" y="64.129636" transform="rotate(-0 369 64.129636)">KNN decision regions · k = 9</text>
   </g>
   <g id="PathCollection_1">
    <defs>
     <path id="ma77c4cacf4" d="M 0 3.807887 
C 1.009863 3.807887 1.978501 3.406664 2.692582 2.692582 
C 3.406664 1.978501 3.807887 1.009863 3.807887 0 
C 3.807887 -1.009863 3.406664 -1.978501 2.692582 -2.692582 
C 1.978501 -3.406664 1.009863 -3.807887 0 -3.807887 
C -1.009863 -3.807887 -1.978501 -3.406664 -2.692582 -2.692582 
C -3.406664 -1.978501 -3.807887 -1.009863 -3.807887 0 
C -3.807887 1.009863 -3.406664 1.978501 -2.692582 2.692582 
C -1.978501 3.406664 -1.009863 3.807887 0 3.807887 
z
" style="stroke: #ffffff; stroke-width: 0.8"/>
    </defs>
    <g clip-path="url(#pd0fb04bc2c)">
     <use xlink:href="#ma77c4cacf4" x="266.604351" y="146.957408" style="fill: #0969da; stroke: #ffffff; stroke-width: 0.8"/>
     <use xlink:href="#ma77c4cacf4" x="236.441271" y="193.472615" style="fill: #0969da; stroke: #ffffff; stroke-width: 0.8"/>
     <use xlink:href="#ma77c4cacf4" x="441.222497" y="303.858951" style="fill: #0969da; stroke: #ffffff; stroke-width: 0.8"/>
     <use xlink:href="#ma77c4cacf4" x="174.847602" y="216.341555" style="fill: #0969da; stroke: #ffffff; stroke-width: 0.8"/>
     <use xlink:href="#ma77c4cacf4" x="445.066863" y="203.67533" style="fill: #0969da; stroke: #ffffff; stroke-width: 0.8"/>
     <use xlink:href="#ma77c4cacf4" x="255.844727" y="180.021231" style="fill: #0969da; stroke: #ffffff; stroke-width: 0.8"/>
     <use xlink:href="#ma77c4cacf4" x="311.391818" y="160.84653" style="fill: #0969da; stroke: #ffffff; stroke-width: 0.8"/>
     <use xlink:href="#ma77c4cacf4" x="350.092131" y="182.213974" style="fill: #0969da; stroke: #ffffff; stroke-width: 0.8"/>
     <use xlink:href="#ma77c4cacf4" x="339.269164" y="155.429463" style="fill: #0969da; stroke: #ffffff; stroke-width: 0.8"/>
     <use xlink:href="#ma77c4cacf4" x="407.413053" y="207.78854" style="fill: #0969da; stroke: #ffffff; stroke-width: 0.8"/>
     <use xlink:href="#ma77c4cacf4" x="366.617903" y="209.059641" style="fill: #0969da; stroke: #ffffff; stroke-width: 0.8"/>
     <use xlink:href="#ma77c4cacf4" x="254.950543" y="132.681594" style="fill: #0969da; stroke: #ffffff; stroke-width: 0.8"/>
     <use xlink:href="#ma77c4cacf4" x="237.843404" y="119.649267" style="fill: #0969da; stroke: #ffffff; stroke-width: 0.8"/>
     <use xlink:href="#ma77c4cacf4" x="296.096025" y="131.601497" style="fill: #0969da; stroke: #ffffff; stroke-width: 0.8"/>
     <use xlink:href="#ma77c4cacf4" x="402.175671" y="246.185584" style="fill: #0969da; stroke: #ffffff; stroke-width: 0.8"/>
     <use xlink:href="#ma77c4cacf4" x="243.123229" y="268.362463" style="fill: #0969da; stroke: #ffffff; stroke-width: 0.8"/>
     <use xlink:href="#ma77c4cacf4" x="185.333437" y="212.167865" style="fill: #0969da; stroke: #ffffff; stroke-width: 0.8"/>
     <use xlink:href="#ma77c4cacf4" x="444.279498" y="241.459031" style="fill: #0969da; stroke: #ffffff; stroke-width: 0.8"/>
     <use xlink:href="#ma77c4cacf4" x="256.031069" y="156.86572" style="fill: #0969da; stroke: #ffffff; stroke-width: 0.8"/>
     <use xlink:href="#ma77c4cacf4" x="259.362119" y="184.878171" style="fill: #0969da; stroke: #ffffff; stroke-width: 0.8"/>
     <use xlink:href="#ma77c4cacf4" x="181.956705" y="243.95545" style="fill: #0969da; stroke: #ffffff; stroke-width: 0.8"/>
     <use xlink:href="#ma77c4cacf4" x="207.189278" y="167.526712" style="fill: #0969da; stroke: #ffffff; stroke-width: 0.8"/>
     <use xlink:href="#ma77c4cacf4" x="398.132674" y="206.866877" style="fill: #0969da; stroke: #ffffff; stroke-width: 0.8"/>
     <use xlink:href="#ma77c4cacf4" x="376.515435" y="136.876611" style="fill: #0969da; stroke: #ffffff; stroke-width: 0.8"/>
     <use xlink:href="#ma77c4cacf4" x="473.81551" y="261.011629" style="fill: #0969da; stroke: #ffffff; stroke-width: 0.8"/>
     <use xlink:href="#ma77c4cacf4" x="237.383518" y="159.728037" style="fill: #0969da; stroke: #ffffff; stroke-width: 0.8"/>
     <use xlink:href="#ma77c4cacf4" x="184.076453" y="221.686065" style="fill: #0969da; stroke: #ffffff; stroke-width: 0.8"/>
     <use xlink:href="#ma77c4cacf4" x="434.57846" y="243.945035" style="fill: #0969da; stroke: #ffffff; stroke-width: 0.8"/>
     <use xlink:href="#ma77c4cacf4" x="395.680766" y="228.763198" style="fill: #0969da; stroke: #ffffff; stroke-width: 0.8"/>
     <use xlink:href="#ma77c4cacf4" x="515.858432" y="276.528996" style="fill: #0969da; stroke: #ffffff; stroke-width: 0.8"/>
     <use xlink:href="#ma77c4cacf4" x="281.891888" y="125.751865" style="fill: #0969da; stroke: #ffffff; stroke-width: 0.8"/>
     <use xlink:href="#ma77c4cacf4" x="318.617579" y="146.051489" style="fill: #0969da; stroke: #ffffff; stroke-width: 0.8"/>
     <use xlink:href="#ma77c4cacf4" x="391.394169" y="257.587662" style="fill: #0969da; stroke: #ffffff; stroke-width: 0.8"/>
     <use xlink:href="#ma77c4cacf4" x="168.640657" y="284.670691" style="fill: #0969da; stroke: #ffffff; stroke-width: 0.8"/>
     <use xlink:href="#ma77c4cacf4" x="335.587646" y="212.191698" style="fill: #0969da; stroke: #ffffff; stroke-width: 0.8"/>
     <use xlink:href="#ma77c4cacf4" x="420.116409" y="244.998289" style="fill: #0969da; stroke: #ffffff; stroke-width: 0.8"/>
     <use xlink:href="#ma77c4cacf4" x="181.226834" y="224.516848" style="fill: #0969da; stroke: #ffffff; stroke-width: 0.8"/>
     <use xlink:href="#ma77c4cacf4" x="373.973159" y="263.598903" style="fill: #0969da; stroke: #ffffff; stroke-width: 0.8"/>
     <use xlink:href="#ma77c4cacf4" x="480.973241" y="289.346" style="fill: #0969da; stroke: #ffffff; stroke-width: 0.8"/>
     <use xlink:href="#ma77c4cacf4" x="313.011938" y="187.906619" style="fill: #0969da; stroke: #ffffff; stroke-width: 0.8"/>
     <use xlink:href="#ma77c4cacf4" x="204.936536" y="208.881407" style="fill: #0969da; stroke: #ffffff; stroke-width: 0.8"/>
     <use xlink:href="#ma77c4cacf4" x="399.262074" y="190.10055" style="fill: #0969da; stroke: #ffffff; stroke-width: 0.8"/>
     <use xlink:href="#ma77c4cacf4" x="375.772975" y="193.206896" style="fill: #0969da; stroke: #ffffff; stroke-width: 0.8"/>
     <use xlink:href="#ma77c4cacf4" x="264.4184" y="210.020602" style="fill: #0969da; stroke: #ffffff; stroke-width: 0.8"/>
     <use xlink:href="#ma77c4cacf4" x="229.395159" y="142.821463" style="fill: #0969da; stroke: #ffffff; stroke-width: 0.8"/>
     <use xlink:href="#ma77c4cacf4" x="198.538041" y="220.170394" style="fill: #0969da; stroke: #ffffff; stroke-width: 0.8"/>
     <use xlink:href="#ma77c4cacf4" x="158.941738" y="230.109217" style="fill: #0969da; stroke: #ffffff; stroke-width: 0.8"/>
     <use xlink:href="#ma77c4cacf4" x="382.373671" y="159.954788" style="fill: #0969da; stroke: #ffffff; stroke-width: 0.8"/>
     <use xlink:href="#ma77c4cacf4" x="225.95519" y="268.915519" style="fill: #0969da; stroke: #ffffff; stroke-width: 0.8"/>
    </g>
   </g>
   <g id="PathCollection_2">
    <defs>
     <path id="C0_0_0d04520593" d="M 0 3.937004 
C 1.044106 3.937004 2.045588 3.522176 2.783882 2.783882 
C 3.522176 2.045588 3.937004 1.044106 3.937004 -0 
C 3.937004 -1.044106 3.522176 -2.045588 2.783882 -2.783882 
C 2.045588 -3.522176 1.044106 -3.937004 0 -3.937004 
C -1.044106 -3.937004 -2.045588 -3.522176 -2.783882 -2.783882 
C -3.522176 -2.045588 -3.937004 -1.044106 -3.937004 0 
C -3.937004 1.044106 -3.522176 2.045588 -2.783882 2.783882 
C -2.045588 3.522176 -1.044106 3.937004 0 3.937004 
z
"/>
    </defs>
    <g clip-path="url(#pd0fb04bc2c)">
     <use xlink:href="#C0_0_0d04520593" x="158.930074" y="317.87584" style="fill: none; stroke: #0969da; stroke-width: 1.6"/>
    </g>
    <g clip-path="url(#pd0fb04bc2c)">
     <use xlink:href="#C0_0_0d04520593" x="234.545904" y="190.158932" style="fill: none; stroke: #0969da; stroke-width: 1.6"/>
    </g>
    <g clip-path="url(#pd0fb04bc2c)">
     <use xlink:href="#C0_0_0d04520593" x="234.899055" y="127.952877" style="fill: none; stroke: #0969da; stroke-width: 1.6"/>
    </g>
    <g clip-path="url(#pd0fb04bc2c)">
     <use xlink:href="#C0_0_0d04520593" x="211.298317" y="309.030023" style="fill: none; stroke: #0969da; stroke-width: 1.6"/>
    </g>
    <g clip-path="url(#pd0fb04bc2c)">
     <use xlink:href="#C0_0_0d04520593" x="450.463053" y="269.879168" style="fill: none; stroke: #0969da; stroke-width: 1.6"/>
    </g>
    <g clip-path="url(#pd0fb04bc2c)">
     <use xlink:href="#C0_0_0d04520593" x="327.756801" y="145.588217" style="fill: none; stroke: #0969da; stroke-width: 1.6"/>
    </g>
    <g clip-path="url(#pd0fb04bc2c)">
     <use xlink:href="#C0_0_0d04520593" x="354.983718" y="157.576545" style="fill: none; stroke: #0969da; stroke-width: 1.6"/>
    </g>
    <g clip-path="url(#pd0fb04bc2c)">
     <use xlink:href="#C0_0_0d04520593" x="143.85437" y="286.846113" style="fill: none; stroke: #0969da; stroke-width: 1.6"/>
    </g>
    <g clip-path="url(#pd0fb04bc2c)">
     <use xlink:href="#C0_0_0d04520593" x="325.854776" y="148.114984" style="fill: none; stroke: #0969da; stroke-width: 1.6"/>
    </g>
    <g clip-path="url(#pd0fb04bc2c)">
     <use xlink:href="#C0_0_0d04520593" x="343.740925" y="163.135029" style="fill: none; stroke: #0969da; stroke-width: 1.6"/>
    </g>
    <g clip-path="url(#pd0fb04bc2c)">
     <use xlink:href="#C0_0_0d04520593" x="242.18439" y="163.700176" style="fill: none; stroke: #0969da; stroke-width: 1.6"/>
    </g>
    <g clip-path="url(#pd0fb04bc2c)">
     <use xlink:href="#C0_0_0d04520593" x="205.392448" y="217.406381" style="fill: none; stroke: #0969da; stroke-width: 1.6"/>
    </g>
    <g clip-path="url(#pd0fb04bc2c)">
     <use xlink:href="#C0_0_0d04520593" x="362.514595" y="218.542021" style="fill: none; stroke: #0969da; stroke-width: 1.6"/>
    </g>
    <g clip-path="url(#pd0fb04bc2c)">
     <use xlink:href="#C0_0_0d04520593" x="164.855516" y="256.132199" style="fill: none; stroke: #0969da; stroke-width: 1.6"/>
    </g>
    <g clip-path="url(#pd0fb04bc2c)">
     <use xlink:href="#C0_0_0d04520593" x="359.350041" y="149.47374" style="fill: none; stroke: #0969da; stroke-width: 1.6"/>
    </g>
    <g clip-path="url(#pd0fb04bc2c)">
     <use xlink:href="#C0_0_0d04520593" x="427.783151" y="263.260892" style="fill: none; stroke: #0969da; stroke-width: 1.6"/>
    </g>
    <g clip-path="url(#pd0fb04bc2c)">
     <use xlink:href="#C0_0_0d04520593" x="192.932329" y="293.19241" style="fill: none; stroke: #0969da; stroke-width: 1.6"/>
    </g>
    <g clip-path="url(#pd0fb04bc2c)">
     <use xlink:href="#C0_0_0d04520593" x="355.452499" y="166.539202" style="fill: none; stroke: #0969da; stroke-width: 1.6"/>
    </g>
    <g clip-path="url(#pd0fb04bc2c)">
     <use xlink:href="#C0_0_0d04520593" x="186.638043" y="235.755843" style="fill: none; stroke: #0969da; stroke-width: 1.6"/>
    </g>
    <g clip-path="url(#pd0fb04bc2c)">
     <use xlink:href="#C0_0_0d04520593" x="221.410528" y="190.429498" style="fill: none; stroke: #0969da; stroke-width: 1.6"/>
    </g>
    <g clip-path="url(#pd0fb04bc2c)">
     <use xlink:href="#C0_0_0d04520593" x="430.957673" y="220.240146" style="fill: none; stroke: #0969da; stroke-width: 1.6"/>
    </g>
   </g>
   <g id="PathCollection_3">
    <defs>
     <path id="me2ba5278c8" d="M -3.807887 3.807887 
L 3.807887 3.807887 
L 3.807887 -3.807887 
L -3.807887 -3.807887 
z
" style="stroke: #ffffff; stroke-width: 0.8"/>
    </defs>
    <g clip-path="url(#pd0fb04bc2c)">
     <use xlink:href="#me2ba5278c8" x="502.157779" y="295.623557" style="fill: #b54708; stroke: #ffffff; stroke-width: 0.8"/>
     <use xlink:href="#me2ba5278c8" x="544.308671" y="296.62606" style="fill: #b54708; stroke: #ffffff; stroke-width: 0.8"/>
     <use xlink:href="#me2ba5278c8" x="553.693392" y="194.098605" style="fill: #b54708; stroke: #ffffff; stroke-width: 0.8"/>
     <use xlink:href="#me2ba5278c8" x="453.223358" y="340.263962" style="fill: #b54708; stroke: #ffffff; stroke-width: 0.8"/>
     <use xlink:href="#me2ba5278c8" x="352.888569" y="317.362936" style="fill: #b54708; stroke: #ffffff; stroke-width: 0.8"/>
     <use xlink:href="#me2ba5278c8" x="329.514761" y="285.495194" style="fill: #b54708; stroke: #ffffff; stroke-width: 0.8"/>
     <use xlink:href="#me2ba5278c8" x="347.602424" y="195.937718" style="fill: #b54708; stroke: #ffffff; stroke-width: 0.8"/>
     <use xlink:href="#me2ba5278c8" x="503.211421" y="333.577761" style="fill: #b54708; stroke: #ffffff; stroke-width: 0.8"/>
     <use xlink:href="#me2ba5278c8" x="521.553798" y="377.791349" style="fill: #b54708; stroke: #ffffff; stroke-width: 0.8"/>
     <use xlink:href="#me2ba5278c8" x="311.483041" y="396.577573" style="fill: #b54708; stroke: #ffffff; stroke-width: 0.8"/>
     <use xlink:href="#me2ba5278c8" x="382.635185" y="355.964756" style="fill: #b54708; stroke: #ffffff; stroke-width: 0.8"/>
     <use xlink:href="#me2ba5278c8" x="573.139187" y="243.777217" style="fill: #b54708; stroke: #ffffff; stroke-width: 0.8"/>
     <use xlink:href="#me2ba5278c8" x="289.794746" y="301.387193" style="fill: #b54708; stroke: #ffffff; stroke-width: 0.8"/>
     <use xlink:href="#me2ba5278c8" x="419.707662" y="264.670202" style="fill: #b54708; stroke: #ffffff; stroke-width: 0.8"/>
     <use xlink:href="#me2ba5278c8" x="596.342126" y="302.476613" style="fill: #b54708; stroke: #ffffff; stroke-width: 0.8"/>
     <use xlink:href="#me2ba5278c8" x="533.487703" y="340.244946" style="fill: #b54708; stroke: #ffffff; stroke-width: 0.8"/>
     <use xlink:href="#me2ba5278c8" x="558.464154" y="341.679511" style="fill: #b54708; stroke: #ffffff; stroke-width: 0.8"/>
     <use xlink:href="#me2ba5278c8" x="291.027353" y="324.27881" style="fill: #b54708; stroke: #ffffff; stroke-width: 0.8"/>
     <use xlink:href="#me2ba5278c8" x="378.931677" y="365.07163" style="fill: #b54708; stroke: #ffffff; stroke-width: 0.8"/>
     <use xlink:href="#me2ba5278c8" x="325.056934" y="262.535874" style="fill: #b54708; stroke: #ffffff; stroke-width: 0.8"/>
     <use xlink:href="#me2ba5278c8" x="542.548608" y="220.886822" style="fill: #b54708; stroke: #ffffff; stroke-width: 0.8"/>
     <use xlink:href="#me2ba5278c8" x="514.431054" y="221.546555" style="fill: #b54708; stroke: #ffffff; stroke-width: 0.8"/>
     <use xlink:href="#me2ba5278c8" x="314.903113" y="259.079884" style="fill: #b54708; stroke: #ffffff; stroke-width: 0.8"/>
     <use xlink:href="#me2ba5278c8" x="393.949538" y="320.945076" style="fill: #b54708; stroke: #ffffff; stroke-width: 0.8"/>
     <use xlink:href="#me2ba5278c8" x="442.012291" y="330.687386" style="fill: #b54708; stroke: #ffffff; stroke-width: 0.8"/>
     <use xlink:href="#me2ba5278c8" x="317.477233" y="313.613571" style="fill: #b54708; stroke: #ffffff; stroke-width: 0.8"/>
     <use xlink:href="#me2ba5278c8" x="292.051536" y="228.631272" style="fill: #b54708; stroke: #ffffff; stroke-width: 0.8"/>
     <use xlink:href="#me2ba5278c8" x="296.047486" y="299.142199" style="fill: #b54708; stroke: #ffffff; stroke-width: 0.8"/>
     <use xlink:href="#me2ba5278c8" x="457.418557" y="347.114826" style="fill: #b54708; stroke: #ffffff; stroke-width: 0.8"/>
     <use xlink:href="#me2ba5278c8" x="332.878793" y="317.54774" style="fill: #b54708; stroke: #ffffff; stroke-width: 0.8"/>
     <use xlink:href="#me2ba5278c8" x="369.230973" y="357.26299" style="fill: #b54708; stroke: #ffffff; stroke-width: 0.8"/>
     <use xlink:href="#me2ba5278c8" x="357.257891" y="352.179299" style="fill: #b54708; stroke: #ffffff; stroke-width: 0.8"/>
     <use xlink:href="#me2ba5278c8" x="309.863127" y="231.635143" style="fill: #b54708; stroke: #ffffff; stroke-width: 0.8"/>
     <use xlink:href="#me2ba5278c8" x="342.053965" y="255.463234" style="fill: #b54708; stroke: #ffffff; stroke-width: 0.8"/>
     <use xlink:href="#me2ba5278c8" x="331.506653" y="265.872929" style="fill: #b54708; stroke: #ffffff; stroke-width: 0.8"/>
     <use xlink:href="#me2ba5278c8" x="527.138977" y="315.450757" style="fill: #b54708; stroke: #ffffff; stroke-width: 0.8"/>
     <use xlink:href="#me2ba5278c8" x="416.18444" y="362.536522" style="fill: #b54708; stroke: #ffffff; stroke-width: 0.8"/>
     <use xlink:href="#me2ba5278c8" x="525.637006" y="227.13538" style="fill: #b54708; stroke: #ffffff; stroke-width: 0.8"/>
     <use xlink:href="#me2ba5278c8" x="535.392624" y="246.704894" style="fill: #b54708; stroke: #ffffff; stroke-width: 0.8"/>
     <use xlink:href="#me2ba5278c8" x="540.664426" y="324.06892" style="fill: #b54708; stroke: #ffffff; stroke-width: 0.8"/>
     <use xlink:href="#me2ba5278c8" x="500.333788" y="198.808845" style="fill: #b54708; stroke: #ffffff; stroke-width: 0.8"/>
     <use xlink:href="#me2ba5278c8" x="461.883413" y="312.192728" style="fill: #b54708; stroke: #ffffff; stroke-width: 0.8"/>
     <use xlink:href="#me2ba5278c8" x="483.695" y="387.844352" style="fill: #b54708; stroke: #ffffff; stroke-width: 0.8"/>
     <use xlink:href="#me2ba5278c8" x="540.82235" y="269.173987" style="fill: #b54708; stroke: #ffffff; stroke-width: 0.8"/>
     <use xlink:href="#me2ba5278c8" x="398.540975" y="305.58961" style="fill: #b54708; stroke: #ffffff; stroke-width: 0.8"/>
     <use xlink:href="#me2ba5278c8" x="353.920865" y="283.177355" style="fill: #b54708; stroke: #ffffff; stroke-width: 0.8"/>
     <use xlink:href="#me2ba5278c8" x="339.73553" y="278.459794" style="fill: #b54708; stroke: #ffffff; stroke-width: 0.8"/>
     <use xlink:href="#me2ba5278c8" x="506.485475" y="339.684534" style="fill: #b54708; stroke: #ffffff; stroke-width: 0.8"/>
     <use xlink:href="#me2ba5278c8" x="500.824209" y="257.576073" style="fill: #b54708; stroke: #ffffff; stroke-width: 0.8"/>
    </g>
   </g>
   <g id="PathCollection_4">
    <defs>
     <path id="C1_0_608e7f86df" d="M -3.937004 3.937004 
L 3.937004 3.937004 
L 3.937004 -3.937004 
L -3.937004 -3.937004 
z
"/>
    </defs>
    <g clip-path="url(#pd0fb04bc2c)">
     <use xlink:href="#C1_0_608e7f86df" x="556.56837" y="298.836597" style="fill: none; stroke: #b54708; stroke-width: 1.6"/>
    </g>
    <g clip-path="url(#pd0fb04bc2c)">
     <use xlink:href="#C1_0_608e7f86df" x="357.233194" y="306.95626" style="fill: none; stroke: #b54708; stroke-width: 1.6"/>
    </g>
    <g clip-path="url(#pd0fb04bc2c)">
     <use xlink:href="#C1_0_608e7f86df" x="489.652888" y="280.069707" style="fill: none; stroke: #b54708; stroke-width: 1.6"/>
    </g>
    <g clip-path="url(#pd0fb04bc2c)">
     <use xlink:href="#C1_0_608e7f86df" x="517.06277" y="277.0209" style="fill: none; stroke: #b54708; stroke-width: 1.6"/>
    </g>
    <g clip-path="url(#pd0fb04bc2c)">
     <use xlink:href="#C1_0_608e7f86df" x="380.293948" y="340.421329" style="fill: none; stroke: #b54708; stroke-width: 1.6"/>
    </g>
    <g clip-path="url(#pd0fb04bc2c)">
     <use xlink:href="#C1_0_608e7f86df" x="338.80028" y="321.082091" style="fill: none; stroke: #b54708; stroke-width: 1.6"/>
    </g>
    <g clip-path="url(#pd0fb04bc2c)">
     <use xlink:href="#C1_0_608e7f86df" x="383.490581" y="365.44657" style="fill: none; stroke: #b54708; stroke-width: 1.6"/>
    </g>
    <g clip-path="url(#pd0fb04bc2c)">
     <use xlink:href="#C1_0_608e7f86df" x="602.834563" y="281.525035" style="fill: none; stroke: #b54708; stroke-width: 1.6"/>
    </g>
    <g clip-path="url(#pd0fb04bc2c)">
     <use xlink:href="#C1_0_608e7f86df" x="443.407843" y="359.829191" style="fill: none; stroke: #b54708; stroke-width: 1.6"/>
    </g>
    <g clip-path="url(#pd0fb04bc2c)">
     <use xlink:href="#C1_0_608e7f86df" x="461.646235" y="336.06979" style="fill: none; stroke: #b54708; stroke-width: 1.6"/>
    </g>
    <g clip-path="url(#pd0fb04bc2c)">
     <use xlink:href="#C1_0_608e7f86df" x="482.737374" y="293.30685" style="fill: none; stroke: #b54708; stroke-width: 1.6"/>
    </g>
    <g clip-path="url(#pd0fb04bc2c)">
     <use xlink:href="#C1_0_608e7f86df" x="537.157339" y="300.094849" style="fill: none; stroke: #b54708; stroke-width: 1.6"/>
    </g>
    <g clip-path="url(#pd0fb04bc2c)">
     <use xlink:href="#C1_0_608e7f86df" x="514.433079" y="267.051705" style="fill: none; stroke: #b54708; stroke-width: 1.6"/>
    </g>
    <g clip-path="url(#pd0fb04bc2c)">
     <use xlink:href="#C1_0_608e7f86df" x="457.67941" y="339.922293" style="fill: none; stroke: #b54708; stroke-width: 1.6"/>
    </g>
    <g clip-path="url(#pd0fb04bc2c)">
     <use xlink:href="#C1_0_608e7f86df" x="457.661013" y="338.355181" style="fill: none; stroke: #b54708; stroke-width: 1.6"/>
    </g>
    <g clip-path="url(#pd0fb04bc2c)">
     <use xlink:href="#C1_0_608e7f86df" x="489.554186" y="309.443286" style="fill: none; stroke: #b54708; stroke-width: 1.6"/>
    </g>
    <g clip-path="url(#pd0fb04bc2c)">
     <use xlink:href="#C1_0_608e7f86df" x="328.156593" y="196.96378" style="fill: none; stroke: #b54708; stroke-width: 1.6"/>
    </g>
    <g clip-path="url(#pd0fb04bc2c)">
     <use xlink:href="#C1_0_608e7f86df" x="307.861273" y="178.687637" style="fill: none; stroke: #b54708; stroke-width: 1.6"/>
    </g>
    <g clip-path="url(#pd0fb04bc2c)">
     <use xlink:href="#C1_0_608e7f86df" x="422.160351" y="308.768258" style="fill: none; stroke: #b54708; stroke-width: 1.6"/>
    </g>
    <g clip-path="url(#pd0fb04bc2c)">
     <use xlink:href="#C1_0_608e7f86df" x="408.30075" y="309.690659" style="fill: none; stroke: #b54708; stroke-width: 1.6"/>
    </g>
    <g clip-path="url(#pd0fb04bc2c)">
     <use xlink:href="#C1_0_608e7f86df" x="384.994855" y="294.937325" style="fill: none; stroke: #b54708; stroke-width: 1.6"/>
    </g>
   </g>
   <g id="legend_1">
    <g id="patch_5">
     <path d="M 440.559844 117.831746 
L 641.7 117.831746 
Q 643.5 117.831746 643.5 116.031746 
L 643.5 76.429636 
Q 643.5 74.629636 641.7 74.629636 
L 440.559844 74.629636 
Q 438.759844 74.629636 438.759844 76.429636 
L 438.759844 116.031746 
Q 438.759844 117.831746 440.559844 117.831746 
z
" style="fill: #ffffff; opacity: 0.96; stroke: #cccccc; stroke-linejoin: miter"/>
    </g>
    <g id="PathCollection_5">
     <g>
      <use xlink:href="#ma77c4cacf4" x="451.359844" y="82.70573" style="fill: #0969da; stroke: #ffffff; stroke-width: 0.8"/>
     </g>
    </g>
    <g id="text_19">
     <text style="font-size: 9px; font-family: 'DejaVu Sans', 'Bitstream Vera Sans', 'Computer Modern Sans Serif', 'Lucida Grande', 'Verdana', 'Geneva', 'Lucid', 'Arial', 'Helvetica', 'Avant Garde', sans-serif; text-anchor: start" x="467.559844" y="85.06823" transform="rotate(-0 467.559844 85.06823)">Train · class A</text>
    </g>
    <g id="PathCollection_6">
     <path d="M 451.359844 100.143437 
C 452.403949 100.143437 453.405432 99.72861 454.143726 98.990315 
C 454.88202 98.252021 455.296848 97.250539 455.296848 96.206433 
C 455.296848 95.162328 454.88202 94.160845 454.143726 93.422551 
C 453.405432 92.684257 452.403949 92.269429 451.359844 92.269429 
C 450.315738 92.269429 449.314256 92.684257 448.575962 93.422551 
C 447.837667 94.160845 447.42284 95.162328 447.42284 96.206433 
C 447.42284 97.250539 447.837667 98.252021 448.575962 98.990315 
C 449.314256 99.72861 450.315738 100.143437 451.359844 100.143437 
L 451.359844 100.143437 
z
" style="fill: none; stroke: #0969da; stroke-width: 1.6"/>
    </g>
    <g id="text_20">
     <text style="font-size: 9px; font-family: 'DejaVu Sans', 'Bitstream Vera Sans', 'Computer Modern Sans Serif', 'Lucida Grande', 'Verdana', 'Geneva', 'Lucid', 'Arial', 'Helvetica', 'Avant Garde', sans-serif; text-anchor: start" x="467.559844" y="98.568933" transform="rotate(-0 467.559844 98.568933)">Test · class A</text>
    </g>
    <g id="PathCollection_7">
     <g>
      <use xlink:href="#me2ba5278c8" x="451.359844" y="109.707136" style="fill: #b54708; stroke: #ffffff; stroke-width: 0.8"/>
     </g>
    </g>
    <g id="text_21">
     <text style="font-size: 9px; font-family: 'DejaVu Sans', 'Bitstream Vera Sans', 'Computer Modern Sans Serif', 'Lucida Grande', 'Verdana', 'Geneva', 'Lucid', 'Arial', 'Helvetica', 'Avant Garde', sans-serif; text-anchor: start" x="467.559844" y="112.069636" transform="rotate(-0 467.559844 112.069636)">Train · class B</text>
    </g>
    <g id="PathCollection_8">
     <path d="M 552.172996 86.642734 
L 560.047004 86.642734 
L 560.047004 78.768726 
L 552.172996 78.768726 
L 552.172996 86.642734 
z
" style="fill: none; stroke: #b54708; stroke-width: 1.6"/>
    </g>
    <g id="text_22">
     <text style="font-size: 9px; font-family: 'DejaVu Sans', 'Bitstream Vera Sans', 'Computer Modern Sans Serif', 'Lucida Grande', 'Verdana', 'Geneva', 'Lucid', 'Arial', 'Helvetica', 'Avant Garde', sans-serif; text-anchor: start" x="572.31" y="85.06823" transform="rotate(-0 572.31 85.06823)">Test · class B</text>
    </g>
    <g id="PathCollection_9">
     <defs>
      <path id="ma117a05079" d="M -0 11.401754 
L 11.401754 0 
L 0 -11.401754 
L -11.401754 -0 
z
" style="stroke: #b54708; stroke-width: 2.8"/>
     </defs>
     <g>
      <use xlink:href="#ma117a05079" x="556.11" y="96.206433" style="fill: #ffffff; stroke: #b54708; stroke-width: 2.8"/>
     </g>
    </g>
    <g id="text_23">
     <text style="font-size: 9px; font-family: 'DejaVu Sans', 'Bitstream Vera Sans', 'Computer Modern Sans Serif', 'Lucida Grande', 'Verdana', 'Geneva', 'Lucid', 'Arial', 'Helvetica', 'Avant Garde', sans-serif; text-anchor: start" x="572.31" y="98.568933" transform="rotate(-0 572.31 98.568933)">Unknown point</text>
    </g>
   </g>
   <g id="PathCollection_10">
    <g clip-path="url(#pd0fb04bc2c)">
     <use xlink:href="#ma117a05079" x="254.863636" y="266.697818" style="fill: #ffffff; stroke: #b54708; stroke-width: 2.8"/>
    </g>
   </g>
   <g id="text_24">
    <text style="font-weight: 700; font-size: 12px; font-family: 'DejaVu Sans', 'Bitstream Vera Sans', 'Computer Modern Sans Serif', 'Lucida Grande', 'Verdana', 'Geneva', 'Lucid', 'Arial', 'Helvetica', 'Avant Garde', sans-serif; text-anchor: middle; fill: #b54708" x="254.863636" y="269.815006" transform="rotate(-0 254.863636 269.815006)">B</text>
   </g>
   <g id="patch_6">
    <path d="M 169.998697 389.630567 
Q 211.86269 328.987671 252.773928 269.724905 
" style="fill: none; stroke: #b54708; stroke-width: 1.5; stroke-linecap: round"/>
    <path d="M 248.071905 272.311598 
L 252.773928 269.724905 
L 252.022069 275.038539 
" style="fill: none; stroke: #b54708; stroke-width: 1.5; stroke-linecap: round"/>
   </g>
   <g id="text_25">
    <text style="font-weight: 700; font-size: 12px; font-family: 'DejaVu Sans', 'Bitstream Vera Sans', 'Computer Modern Sans Serif', 'Lucida Grande', 'Verdana', 'Geneva', 'Lucid', 'Arial', 'Helvetica', 'Avant Garde', sans-serif; text-anchor: start; fill: #b54708" x="105.218182" y="402.393273" transform="rotate(-0 105.218182 402.393273)">Predicted class B</text>
   </g>
  </g>
  <g id="text_26">
   <text style="font-size: 11px; font-family: 'DejaVu Sans', 'Bitstream Vera Sans', 'Computer Modern Sans Serif', 'Lucida Grande', 'Verdana', 'Geneva', 'Lucid', 'Arial', 'Helvetica', 'Avant Garde', sans-serif; text-anchor: middle" x="360" y="500.256" transform="rotate(-0 360 500.256)">Unknown → class B · training accuracy 93.9% · test accuracy 95.2%</text>
  </g>
 </g>
 <defs>
  <clipPath id="pd0fb04bc2c">
   <rect x="90" y="70.129636" width="558" height="367.772727"/>
  </clipPath>
 </defs>
</svg>
