<svg xmlns="http://www.w3.org/2000/svg" width="688" height="580" viewBox="0 0 688 580" role="img" aria-labelledby="title desc">
  <title id="title">The six cells of Figure 2, marked on the maze</title>
  <desc id="desc">The seven by nine maze with six cells marked. Cells (0,0), (0,1) and (1,1) are shaded grey as already expanded; (2,1) is outlined amber as the state being expanded now; (2,0) and (2,2) are outlined purple as the two waiting on the frontier. These are the same six states Figure 2 sorts into three columns.</desc>
  <style>
    :root {
      --bg:#ffffff; --fg:#1f2328; --muted:#57606a; --line:#d0d7de;
      --accent:#0969da; --panel:#f6f8fa; --card:#ffffff;
      --wall:#57606a; --good:#1a7f37; --bad:#cf222e;
      --frontier:#8250df; --frontierbg:#f5eeff;
      --current:#9a6700;  --currentbg:#fff8c5;
      --done:#57606a;     --donebg:#eaeef2;
      --goodbg:#e8f5ec; --badbg:#fdeceb; --accbg:#ddeeff;
    }
    @media (prefers-color-scheme: dark) {
      :root { --bg:#0d1117; --fg:#e6edf3; --muted:#8b949e; --line:#30363d;
        --accent:#58a6ff; --panel:#161b22; --card:#0d1117;
        --wall:#6e7681; --good:#3fb950; --bad:#f85149;
        --goodbg:#10261a; --badbg:#2b1416; --accbg:#10263c;
        --frontier:#a371f7; --frontierbg:#1d162b;
        --current:#d29922;  --currentbg:#2b2413;
        --done:#8b949e;     --donebg:#161b22; }
    }
    text { font-family:-apple-system,BlinkMacSystemFont,"Segoe UI",Helvetica,Arial,sans-serif; fill:var(--fg); }
    .axis { font-family:ui-monospace,SFMono-Regular,Menlo,Consolas,monospace; font-size:15px; font-weight:700; fill:var(--muted); }
    .cell { fill:var(--card); stroke:var(--line); stroke-width:1.5; }
    .wall { fill:var(--wall); stroke:var(--wall); stroke-width:1.5; }
    /* The three states of Figure 2, marked on the cells they refer to. */
    .cellE { fill:var(--donebg);     stroke:var(--done);     stroke-width:2.6; }
    .cellC { fill:var(--currentbg);  stroke:var(--current);  stroke-width:3.6; }
    .cellF { fill:var(--frontierbg); stroke:var(--frontier); stroke-width:3; }
    .swatch { stroke-width:2.4; }
    .key { font-size:13px; font-weight:600; }
    .cellmark { font-family:ui-monospace,SFMono-Regular,Menlo,Consolas,monospace; font-size:20px; font-weight:700; }
    .coord { font-family:ui-monospace,SFMono-Regular,Menlo,Consolas,monospace; font-size:12px; fill:var(--muted); }
    .legend { font-size:12px; fill:var(--muted); }
    .lab { font-size:14px; font-weight:700; letter-spacing:1.4px; fill:var(--accent); }
    .cur { fill:var(--accbg); stroke:var(--accent); stroke-width:3; }
    .okc { fill:var(--goodbg); stroke:var(--good); stroke-width:3; }
    .badc { fill:var(--badbg); stroke:var(--bad); stroke-width:3; }
    .arrow { stroke:var(--muted); stroke-width:2.5; fill:none; stroke-linecap:round; }
    .note { font-size:14px; fill:var(--muted); }
    .mono { font-family:ui-monospace,SFMono-Regular,Menlo,Consolas,monospace; font-size:14px; }
  </style>

  <rect width="688" height="580" rx="18" fill="var(--bg)"/>
  <text class="lab" x="30" y="40">THE MAZE &#183; THE SIX CELLS FIGURE 2 SORTS</text>
  <text class="axis" x="115" y="64" text-anchor="middle">0</text>
  <text class="axis" x="173" y="64" text-anchor="middle">1</text>
  <text class="axis" x="231" y="64" text-anchor="middle">2</text>
  <text class="axis" x="289" y="64" text-anchor="middle">3</text>
  <text class="axis" x="347" y="64" text-anchor="middle">4</text>
  <text class="axis" x="405" y="64" text-anchor="middle">5</text>
  <text class="axis" x="463" y="64" text-anchor="middle">6</text>
  <text class="axis" x="521" y="64" text-anchor="middle">7</text>
  <text class="axis" x="579" y="64" text-anchor="middle">8</text>
  <text class="axis" x="70" y="112" text-anchor="end">0</text>
  <text class="axis" x="70" y="170" text-anchor="end">1</text>
  <text class="axis" x="70" y="228" text-anchor="end">2</text>
  <text class="axis" x="70" y="286" text-anchor="end">3</text>
  <text class="axis" x="70" y="344" text-anchor="end">4</text>
  <text class="axis" x="70" y="402" text-anchor="end">5</text>
  <text class="axis" x="70" y="460" text-anchor="end">6</text>
  <rect class="cellE" x="86" y="78" width="58" height="58" rx="6"/>
  <text class="cellmark" x="115" y="114" text-anchor="middle" fill="var(--done)">S</text>
  <rect class="cellE" x="144" y="78" width="58" height="58" rx="6"/>
  <text class="coord" x="173" y="112" text-anchor="middle" style="fill:var(--done);font-weight:700">0,1</text>
  <rect class="wall" x="202" y="78" width="58" height="58" rx="6"/>
  <rect class="cell" x="260" y="78" width="58" height="58" rx="6"/>
  <text class="coord" x="289" y="112" text-anchor="middle">0,3</text>
  <rect class="cell" x="318" y="78" width="58" height="58" rx="6"/>
  <text class="coord" x="347" y="112" text-anchor="middle">0,4</text>
  <rect class="cell" x="376" y="78" width="58" height="58" rx="6"/>
  <text class="coord" x="405" y="112" text-anchor="middle">0,5</text>
  <rect class="cell" x="434" y="78" width="58" height="58" rx="6"/>
  <text class="coord" x="463" y="112" text-anchor="middle">0,6</text>
  <rect class="cell" x="492" y="78" width="58" height="58" rx="6"/>
  <text class="coord" x="521" y="112" text-anchor="middle">0,7</text>
  <rect class="cell" x="550" y="78" width="58" height="58" rx="6"/>
  <text class="coord" x="579" y="112" text-anchor="middle">0,8</text>
  <rect class="wall" x="86" y="136" width="58" height="58" rx="6"/>
  <rect class="cellE" x="144" y="136" width="58" height="58" rx="6"/>
  <text class="coord" x="173" y="170" text-anchor="middle" style="fill:var(--done);font-weight:700">1,1</text>
  <rect class="wall" x="202" y="136" width="58" height="58" rx="6"/>
  <rect class="cell" x="260" y="136" width="58" height="58" rx="6"/>
  <text class="coord" x="289" y="170" text-anchor="middle">1,3</text>
  <rect class="wall" x="318" y="136" width="58" height="58" rx="6"/>
  <rect class="wall" x="376" y="136" width="58" height="58" rx="6"/>
  <rect class="wall" x="434" y="136" width="58" height="58" rx="6"/>
  <rect class="cell" x="492" y="136" width="58" height="58" rx="6"/>
  <text class="coord" x="521" y="170" text-anchor="middle">1,7</text>
  <rect class="wall" x="550" y="136" width="58" height="58" rx="6"/>
  <rect class="cellF" x="86" y="194" width="58" height="58" rx="6"/>
  <text class="coord" x="115" y="228" text-anchor="middle" style="fill:var(--frontier);font-weight:700">2,0</text>
  <rect class="cellC" x="144" y="194" width="58" height="58" rx="6"/>
  <text class="coord" x="173" y="228" text-anchor="middle" style="fill:var(--current);font-weight:700">2,1</text>
  <rect class="cellF" x="202" y="194" width="58" height="58" rx="6"/>
  <text class="coord" x="231" y="228" text-anchor="middle" style="fill:var(--frontier);font-weight:700">2,2</text>
  <rect class="cell" x="260" y="194" width="58" height="58" rx="6"/>
  <text class="coord" x="289" y="228" text-anchor="middle">2,3</text>
  <rect class="cell" x="318" y="194" width="58" height="58" rx="6"/>
  <text class="coord" x="347" y="228" text-anchor="middle">2,4</text>
  <rect class="cell" x="376" y="194" width="58" height="58" rx="6"/>
  <text class="coord" x="405" y="228" text-anchor="middle">2,5</text>
  <rect class="wall" x="434" y="194" width="58" height="58" rx="6"/>
  <rect class="cell" x="492" y="194" width="58" height="58" rx="6"/>
  <text class="coord" x="521" y="228" text-anchor="middle">2,7</text>
  <rect class="cell" x="550" y="194" width="58" height="58" rx="6"/>
  <text class="coord" x="579" y="228" text-anchor="middle">2,8</text>
  <rect class="cell" x="86" y="252" width="58" height="58" rx="6"/>
  <text class="coord" x="115" y="286" text-anchor="middle">3,0</text>
  <rect class="wall" x="144" y="252" width="58" height="58" rx="6"/>
  <rect class="wall" x="202" y="252" width="58" height="58" rx="6"/>
  <rect class="wall" x="260" y="252" width="58" height="58" rx="6"/>
  <rect class="wall" x="318" y="252" width="58" height="58" rx="6"/>
  <rect class="cell" x="376" y="252" width="58" height="58" rx="6"/>
  <text class="coord" x="405" y="286" text-anchor="middle">3,5</text>
  <rect class="wall" x="434" y="252" width="58" height="58" rx="6"/>
  <rect class="wall" x="492" y="252" width="58" height="58" rx="6"/>
  <rect class="cell" x="550" y="252" width="58" height="58" rx="6"/>
  <text class="coord" x="579" y="286" text-anchor="middle">3,8</text>
  <rect class="cell" x="86" y="310" width="58" height="58" rx="6"/>
  <text class="coord" x="115" y="344" text-anchor="middle">4,0</text>
  <rect class="cell" x="144" y="310" width="58" height="58" rx="6"/>
  <text class="coord" x="173" y="344" text-anchor="middle">4,1</text>
  <rect class="cell" x="202" y="310" width="58" height="58" rx="6"/>
  <text class="coord" x="231" y="344" text-anchor="middle">4,2</text>
  <rect class="cell" x="260" y="310" width="58" height="58" rx="6"/>
  <text class="coord" x="289" y="344" text-anchor="middle">4,3</text>
  <rect class="wall" x="318" y="310" width="58" height="58" rx="6"/>
  <rect class="cell" x="376" y="310" width="58" height="58" rx="6"/>
  <text class="coord" x="405" y="344" text-anchor="middle">4,5</text>
  <rect class="cell" x="434" y="310" width="58" height="58" rx="6"/>
  <text class="coord" x="463" y="344" text-anchor="middle">4,6</text>
  <rect class="cell" x="492" y="310" width="58" height="58" rx="6"/>
  <text class="coord" x="521" y="344" text-anchor="middle">4,7</text>
  <rect class="cell" x="550" y="310" width="58" height="58" rx="6"/>
  <text class="coord" x="579" y="344" text-anchor="middle">4,8</text>
  <rect class="wall" x="86" y="368" width="58" height="58" rx="6"/>
  <rect class="wall" x="144" y="368" width="58" height="58" rx="6"/>
  <rect class="wall" x="202" y="368" width="58" height="58" rx="6"/>
  <rect class="cell" x="260" y="368" width="58" height="58" rx="6"/>
  <text class="coord" x="289" y="402" text-anchor="middle">5,3</text>
  <rect class="wall" x="318" y="368" width="58" height="58" rx="6"/>
  <rect class="wall" x="376" y="368" width="58" height="58" rx="6"/>
  <rect class="wall" x="434" y="368" width="58" height="58" rx="6"/>
  <rect class="cell" x="492" y="368" width="58" height="58" rx="6"/>
  <text class="coord" x="521" y="402" text-anchor="middle">5,7</text>
  <rect class="wall" x="550" y="368" width="58" height="58" rx="6"/>
  <rect class="cell" x="86" y="426" width="58" height="58" rx="6"/>
  <text class="coord" x="115" y="460" text-anchor="middle">6,0</text>
  <rect class="cell" x="144" y="426" width="58" height="58" rx="6"/>
  <text class="coord" x="173" y="460" text-anchor="middle">6,1</text>
  <rect class="cell" x="202" y="426" width="58" height="58" rx="6"/>
  <text class="coord" x="231" y="460" text-anchor="middle">6,2</text>
  <rect class="cell" x="260" y="426" width="58" height="58" rx="6"/>
  <text class="coord" x="289" y="460" text-anchor="middle">6,3</text>
  <rect class="cell" x="318" y="426" width="58" height="58" rx="6"/>
  <text class="coord" x="347" y="460" text-anchor="middle">6,4</text>
  <rect class="cell" x="376" y="426" width="58" height="58" rx="6"/>
  <text class="coord" x="405" y="460" text-anchor="middle">6,5</text>
  <rect class="cell" x="434" y="426" width="58" height="58" rx="6"/>
  <text class="coord" x="463" y="460" text-anchor="middle">6,6</text>
  <rect class="cell" x="492" y="426" width="58" height="58" rx="6"/>
  <text class="coord" x="521" y="460" text-anchor="middle">6,7</text>
  <rect class="cell" x="550" y="426" width="58" height="58" rx="6"/>
  <text class="cellmark" x="579" y="462" text-anchor="middle" fill="var(--good)">G</text>
  <text class="legend" x="30" y="512">Every cell is addressed as (row, column). S = start (0,0) &#183; G = goal (6,8) &#183; filled = wall.</text>
  <rect class="cellE swatch" x="30" y="532" width="17" height="17" rx="4"/>
  <text class="key" x="55" y="545" style="fill:var(--done)">Expanded</text>
  <rect class="cellC swatch" x="140" y="532" width="17" height="17" rx="4"/>
  <text class="key" x="165" y="545" style="fill:var(--current)">Being expanded</text>
  <rect class="cellF swatch" x="300" y="532" width="17" height="17" rx="4"/>
  <text class="key" x="325" y="545" style="fill:var(--frontier)">On the frontier</text>
</svg>
